<?xml version="1.0" standalone="no"?>
<!DOCTYPE svg PUBLIC "-//W3C//DTD SVG 1.1//EN" "http://www.w3.org/Graphics/SVG/1.1/DTD/svg11.dtd" >
<svg>
<metadata>
Created by FontForge 20090914 at Wed Jun 13 08:53:38 2018
 By www-data
Copyright (c) Typographer Mediengestaltung, 2000. All rights reserved.
</metadata>
<defs>
<font id="OldEnglishFive" horiz-adv-x="696" >
  <font-face 
    font-family="Old English Five"
    font-weight="400"
    font-stretch="normal"
    units-per-em="1000"
    panose-1="2 0 5 7 2 0 0 2 0 4"
    ascent="800"
    descent="-200"
    x-height="702"
    cap-height="970.003"
    bbox="-110.998 -340.998 1772 1371"
    underline-thickness="77"
    underline-position="-103"
    unicode-range="U+0005-U+E001"
  />
<missing-glyph horiz-adv-x="501" 
d="M63 0h375v822h-375v-822zM125 63v696h250v-696h-250z" />
    <glyph glyph-name=".notdef" horiz-adv-x="501" 
d="M63 0h375v822h-375v-822zM125 63v696h250v-696h-250z" />
    <glyph glyph-name="breve" horiz-adv-x="559" 
d="M291 707l204 212l-31 16l-111 -112l-208 112l-90 -92z" />
    <glyph glyph-name="dotaccent" horiz-adv-x="309" 
d="M133 950l-34 -163l34 -2l117 160z" />
    <glyph glyph-name="ring" horiz-adv-x="426" 
d="M95 933c0 -68.667 43.667 -117.667 131 -147c42 18 74.667 41.5 98 70.5s35 60.5 35 94.5c0 73.333 -44.333 123.333 -133 150c-87.333 -45.333 -131 -101.333 -131 -168zM304 919c0 -29.333 -11.333 -53.333 -34 -72c-38 10 -67.667 25.333 -89 46s-32 43.667 -32 69
c0 29.333 10.667 55.333 32 78c38 -7.33301 68 -21.833 90 -43.5s33 -47.5 33 -77.5z" />
    <glyph glyph-name="dotlessi" unicode="&#xd;" horiz-adv-x="352" 
d="M205 -17l147 115.001l-17 23l-42 -34l-40 34v439l48 44l-119 98l-117 -94l49 -42v-348c0 -33.333 -1 -54.333 -3 -63c-6 -22.667 -20 -37.334 -42 -44.001v-13c38.667 -24 84 -62.333 136 -115z" />
    <glyph glyph-name="fraction" horiz-adv-x="694" 
d="M625 1027l-625 -1210l61 -31l625 1210z" />
    <glyph glyph-name="fi" horiz-adv-x="628" 
d="M480 -17l148 115l-17 23l-43 -34l-39 34v439l48 44l-119 98l-108 -87v58h-94v174l119 -30l22 110l-137 35c-32 -27.333 -60.167 -50.166 -84.5 -68.499s-44.833 -32.833 -61.5 -43.5v-177h-53v-75h53v-371c0 -17.333 -0.5 -31.833 -1.5 -43.5
s-2.16699 -20.834 -3.5 -27.501c-4.66699 -23.333 -18 -41.333 -40 -54v-15c60.667 -20 117.667 -54.667 171 -104l125 100c19.333 -13.333 38.5 -28.5 57.5 -45.5s38.167 -35.167 57.5 -54.5zM507 986l-35 -163l35 -3l117 161zM346 99l-19.001 -12l-36 27l-35 26v458h94v2
l40 -34v-348c0 -38 -1.33301 -61 -4 -69c-5.33301 -20 -18.666 -37 -39.999 -51v1z" />
    <glyph glyph-name="fl" horiz-adv-x="685" 
d="M371 120l-44 -33l-36 27l-35 26v458h94v75h-94v174l119 -30l16 82c24 -22 36 -67.333 36 -136v-555c0 -30 -4 -51.167 -12 -63.5s-22.667 -20.5 -44 -24.5zM552 -17l134 109l-19 22l-30 -22l-69 48v629c0 50 4.66699 86 14 108c8.66699 22 28.667 44 60 66l-8 23
c-66 -16.667 -118.333 -47 -157 -91l-31.5 26c-8.33301 6.66699 -14.833 11.667 -19.5 15c-7.33301 4.66699 -16.333 8.5 -27 11.5s-22.667 5.83301 -36 8.5l-103 26c-32 -27.333 -60.167 -50.166 -84.5 -68.499s-44.833 -32.833 -61.5 -43.5v-177h-53v-75h53v-371
c0 -17.333 -0.5 -31.833 -1.5 -43.5s-2.16699 -20.834 -3.5 -27.501c-4.66699 -23.333 -18 -41.333 -40 -54v-15c60.667 -20 117.667 -54.667 171 -104l139 112v-1c70 -27.333 127.667 -64.333 173 -111z" />
    <glyph glyph-name="Lslash" horiz-adv-x="905" 
d="M455 251c-30.667 -42 -71.666 -80.332 -122.999 -114.999c13.333 18 25.166 35.167 35.499 51.5s19.833 32.166 28.5 47.499zM792.001 461.001l-149.002 -40.002c10 30.667 15 68.334 15 113.001c0 26.667 -5 88 -15 184c-4 40.667 -6 64 -6 70c0 44 11.667 76.667 35 98
s62 35 116 41l-15 33h-16c-78 0 -138.833 -20.667 -182.5 -62s-65.5 -99.333 -65.5 -174c0 -9.33301 0.166992 -18.166 0.5 -26.499s0.833008 -16.833 1.5 -25.5l7 -75c3.33301 -34 5.83301 -60.333 7.5 -79s2.5 -30.667 2.5 -36c0 -16.667 -0.833008 -32.834 -2.5 -48.501
s-4.16699 -30.834 -7.5 -45.501l-73 -21c2.66699 13.333 4.5 27.5 5.5 42.5s1.5 30.167 1.5 45.5c0 26 -1 53.5 -3 82.5s-4.66699 59.5 -8 91.5c-6 56.667 -9 91 -9 103c0 44.667 8.33301 81.334 25 110.001c18 30 50 62.333 96 97l-13 21
c-52.667 -26.667 -94.667 -40 -126 -40c-18.667 0 -47.334 7 -86.001 21c-47.333 15.333 -81.666 23 -102.999 23c-42 0 -78.333 -15.333 -109 -46c-31.333 -30 -47 -65.333 -47 -106c0 -14 4 -33 12 -57l25 11c-2 16.667 -3 25.667 -3 27c0 20 5.83301 36.167 17.5 48.5
s27.5 18.5 47.5 18.5c16.667 0 37 -4.33301 61 -13c30 -10.667 55 -16 75 -16c30 0 69.667 6.66699 119 20c-44 -42 -74 -80.333 -90 -115c-16 -35.333 -24 -80.666 -24 -135.999v-10c0 -3.33301 0.333008 -7 1 -11c2 -11.333 3 -20 3 -26c-18 4.66699 -34.333 7 -49 7
c-43.333 0 -83 -21.667 -119 -65l18 -15c18 14 38.667 21 62 21c67.333 0 101.666 -42.667 102.999 -128c-25.333 16 -48.333 24 -69 24c-26 0 -52 -14.667 -78 -44l13 -15c14 5.33301 26.667 8 38 8c20 0 37.667 -7 53 -21l-168 -46
c-3.33301 -23.333 -6.66602 -45.5 -9.99902 -66.5s-7.33301 -40.167 -12 -57.5l220 59c-16.667 -66.667 -79 -133.667 -187 -201l17 -27c124.667 68.667 239.334 103 344.001 103c102.667 0 199.334 -34.333 290.001 -103l158 147l-24 26l-63 -59
c-74.667 60.667 -158.667 91 -252 91c-46.667 0 -105 -10.667 -175 -32l24 21c46 38 81 70.333 105 97l222 60c4.66699 50.667 10.667 92 18 124z" />
    <glyph glyph-name="lslash" horiz-adv-x="373" 
d="M357 545l-100.998 -27.999v252c0 52 4.33301 88 13 108c8.66699 22 28.667 44 60 66l-8 23c-66 -16.667 -118.333 -47 -157 -91c-16.667 14.667 -34.334 27.5 -53.001 38.5s-38.334 20.833 -59.001 29.5l-7 -21c28 -15.333 46.667 -33.666 56 -54.999
c8.66699 -19.333 13 -54 13 -104v-284l-77 -20c-2.66699 -22.667 -5.5 -44.334 -8.5 -65.001s-6.5 -40.334 -10.5 -59.001l96 26v-153c0 -30 -2 -50.333 -6 -61c-6 -16.667 -19.667 -30.667 -41 -42v-22c66.667 -17.333 124 -50.666 172 -99.999l134 109l-19 22l-29 -22
l-69 48v260l82 21c2 39.333 8.33301 80.666 19 123.999z" />
    <glyph glyph-name="Zcaron" horiz-adv-x="805" 
d="M661 -17l143.997 179.999l-25 22l-68 -85c-70 34.667 -135.333 52 -196 52c-90.667 0 -198.334 -26 -323.001 -78l21 19c102 90 189.667 193.667 263 311h220l21 49h-211l30.5 56.5l10.5 18.5h202l23 49h-202l19 35c40.667 76.667 77.334 142.667 110.001 198
s61.667 100.333 87 135l-18 21c-80.667 -41.333 -170.667 -62 -270 -62c-66.667 0 -145.334 19.667 -236.001 59l-158 -185l25 -22l80 92c56.667 -26 118.334 -39 185.001 -39c68.667 0 159.667 23 273 69c5.33301 2.66699 10 4.83398 14 6.50098l11 4.5l-22 -23l-100 -106
c-24.667 -26.667 -41 -44.667 -49 -54c-16 -17.333 -32.5 -36.833 -49.5 -58.5l-53.5 -70.5h-204l-22 -49h196l-41 -75h-189l-20 -49h183c-9.33301 -15.333 -20.666 -35.5 -33.999 -60.5l-47 -90.5c-55.333 -106 -112.666 -188 -171.999 -246l20 -24
c106 45.333 205 68 297 68c94.667 0 186.334 -22.667 275.001 -68zM536.997 1054l204 211l-31 16l-111 -112l-207 112l-90 -92z" />
    <glyph glyph-name="zcaron" horiz-adv-x="452" 
d="M202 702l-173.002 -131.001l17 -23l71 50l128 -103l-199 -210l18 -15c34.667 18.667 65 28 91 28c30 0 54.333 -10.333 73 -31s28 -48 28 -82c0 -52.667 -28 -104 -84 -154c-34.667 -30.667 -57.334 -53.667 -68.001 -69c-10.667 -16.667 -16 -35.667 -16 -57
c0 -28 10 -51.333 30 -70s45 -28 75 -28c32 0 48 10 48 30c0 13.333 -8.33301 20 -25 20c-4 0 -9 -1 -15 -3l-20 -4c-1.33301 -0.666992 -5 -1 -11 -1c-32.667 0 -49 17.333 -49 52c0 17.333 6.66699 33.333 20 48c14.667 14.667 42.667 33.334 84 56.001
c68.667 39.333 116.667 75 144 107c26.667 30.667 40 68.667 40 114c0 50.667 -17.667 92.667 -53 126c-35.333 34 -78.666 51 -129.999 51c-5.33301 0 -10.666 -0.166992 -15.999 -0.5s-10.666 -0.833008 -15.999 -1.5l181 190l-11 15
c-6.66699 -0.666992 -11.5 -1.16699 -14.5 -1.5s-4.83301 -0.5 -5.5 -0.5c-15.333 0 -41.333 15 -78 45zM240.998 786.999l205 213l-32 15l-110 -111l-208 111l-90 -92z" />
    <glyph glyph-name="space" unicode=" " horiz-adv-x="528" 
 />
    <glyph glyph-name="exclam" unicode="!" horiz-adv-x="405" 
d="M201 881l-117 -116.001c57.333 -146 91 -324 101 -534h34c5.33301 204.667 39.333 381.334 102 530.001zM201 183.999l-102 -101l102 -100l100 100z" />
    <glyph glyph-name="quotedbl" unicode="&#x22;" horiz-adv-x="504" 
d="M58 673c88 32.667 145 100.333 171 203l-92 90l-89 -92l9 -8c32 -28 48 -56 48 -84c0 -26 -19 -53.333 -57 -82zM287 672.999c89.333 33.333 146 101 170 203l-92 90l-89 -92l9 -8c32.667 -28.667 49 -56.667 49 -84c0 -24 -19.333 -51.333 -58 -82z" />
    <glyph glyph-name="numbersign" unicode="#" horiz-adv-x="801" 
d="M773 704h-158l73 326h-82l-73 -326h-173l74 326h-82l-74 -326h-150l-17 -77h149l-38 -172h-153l-18 -79h152l-84 -371h82l86 371h172l-84 -371h82l84 371h155l20 79h-157l38 172h158zM515 627l-38 -172h-173l38 172h173z" />
    <glyph glyph-name="dollar" unicode="$" horiz-adv-x="713" 
d="M14 18l30 -34.001c47.333 39.333 106 59 176 59c33.333 0 69 -5.33301 107 -16c0.666992 -10.667 1 -21.667 1 -33v-36v-37c0 -12 -0.333008 -23.333 -1 -34l44 30c-3.33301 38 -5.33301 70.333 -6 97c28 -11.333 49.333 -21.333 64 -30
c67.333 37.333 121.333 80.666 162 129.999c40.667 50.667 61 99.334 61 146.001c0 28.667 -5.5 55.167 -16.5 79.5s-28 47.5 -51 69.5s-52.667 43 -89 63s-79.833 40 -130.5 60v215c38 -9.33301 84 -29.666 138 -60.999l74 123c-52 25.333 -95.667 44.833 -131 58.5
s-62.333 21.834 -81 24.501l6 129l-44 -26v-103c-71.333 -13.333 -132 -48 -182 -104c-50.667 -56.667 -76 -116.334 -76 -179.001c0 -52.667 16.667 -93.667 50 -123c9.33301 -7.33301 19.833 -15 31.5 -23s25.167 -15.667 40.5 -23l117 -54c4.66699 -2.66699 11 -5 19 -7
v-202c-15.333 2 -31.333 3 -48 3c-112 0 -200.333 -54 -265 -162zM529 106.999c-23.333 14.667 -48.668 27.332 -76.001 37.999s-56.666 19.334 -87.999 26.001v195c126.667 -44 190 -102.333 190 -175c0 -26.667 -8.66699 -54.667 -26 -84zM271.998 759.997
c19.333 0 37.666 -1.99902 54.999 -5.99902v-208c-4.66699 1.33301 -8.5 2.66602 -11.5 3.99902s-5.16699 2.33301 -6.5 3c-53.333 22 -91.166 43.167 -113.499 63.5s-33.5 43.5 -33.5 69.5c0 22 9.83301 39.833 29.5 53.5s46.5 20.5 80.5 20.5z" />
    <glyph glyph-name="percent" unicode="%" horiz-adv-x="735" 
d="M48 665c0 -100 53.333 -172.334 160 -217.001c44.667 24 80.667 58.667 108 104c28 46 42 93.333 42 142c0 50 -14.333 94.333 -43 133s-68 66.334 -118 83.001c-99.333 -69.333 -149 -151 -149 -245zM576 899.999l-458 -887l44 -22l458 887zM377 196.999
c0 -98.667 53.999 -170.002 161.999 -214.002c44.667 23.333 80.334 57.333 107.001 102c28 44.667 42 92 42 142c0 24.667 -3.66699 48.334 -11 71.001s-18 43.334 -32 62.001s-30.833 35 -50.5 49s-41.5 25 -65.5 33c-101.333 -70 -152 -151.667 -152 -245z
M290.999 632.997c0 -39.333 -9.66699 -73.667 -29 -103c-22 7.33301 -42.167 17.166 -60.5 29.499s-34 26.5 -47 42.5s-23 33.333 -30 52s-10.5 37.667 -10.5 57c0 40.667 10.333 78.334 31 113.001c97.333 -33.333 146 -97 146 -191zM621.999 164.996
c0 -39.333 -10.332 -73.666 -30.999 -102.999c-42.667 14 -77.334 38.333 -104.001 73c-27.333 35.333 -41 72 -41 110c0 41.333 10 78.666 30 111.999c97.333 -33.333 146 -97.333 146 -192z" />
    <glyph glyph-name="ampersand" unicode="&#x26;" horiz-adv-x="1027" 
d="M29 282l199.999 -298.999l292 202l12 -20c33.333 -58.667 57.333 -96.334 72 -113.001c14.667 -17.333 38.667 -33.333 72 -48c34 -15.333 70.333 -23 109 -23c95.333 0 162 45.667 200 137l-22 14c-36 -32 -75.667 -48 -119 -48c-21.333 0 -41 3.16699 -59 9.5
s-35.167 16.833 -51.5 31.5s-32.666 33.667 -48.999 57s-32.833 52 -49.5 86l119 83c37.333 -35.333 75.333 -53 114 -53c53.333 0 97 22.667 131 68l-14 17c-10.667 -2.66699 -19.334 -4 -26.001 -4c-39.333 0 -82 21 -128 63l-211 -148l-136 243l22 14
c38.667 23.333 70.834 44.833 96.501 64.5s45.167 37.167 58.5 52.5c26.667 31.333 40 68.333 40 111c0 75.333 -42 137.666 -126 186.999l-254 -121c-40 -18.667 -66.667 -34 -80 -46c-11.333 -11.333 -17 -26.666 -17 -45.999c0 -27.333 13 -64 39 -110l87 -152z
M506.999 214.001l-182 -130l-167 244l207 135zM590.999 725.001c0 -56.667 -40.332 -109.333 -120.999 -158l-87 150c-15.333 26.667 -23 47.667 -23 63c0 20 10.667 38.667 32 56s47.333 26 78 26c33.333 0 61.666 -13.667 84.999 -41c24 -27.333 36 -59.333 36 -96z" />
    <glyph glyph-name="quotesingle" unicode="'" horiz-adv-x="276" 
d="M58 673c88 32.667 145 100.333 171 203l-92 90l-89 -92l9 -8c32 -28 48 -56 48 -84c0 -26 -19 -53.333 -57 -82z" />
    <glyph glyph-name="parenleft" unicode="(" horiz-adv-x="442" 
d="M80 320c0 -234 90.333 -415.335 271 -544.002l85 108c-86 76.667 -146.333 154.334 -181 233.001c-34.667 78 -52 178.667 -52 302c0 98 16.333 188.667 49 272c10.667 26.667 22 51.667 34 75s25.333 45 40 65c14.667 20.667 33.5 44.5 56.5 71.5s50.833 57.5 83.5 91.5
l-15 20c-121.333 -93.333 -213.5 -199.166 -276.5 -317.499s-94.5 -243.833 -94.5 -376.5z" />
    <glyph glyph-name="parenright" unicode=")" horiz-adv-x="442" 
d="M398 470c0 231.333 -90.667 412.669 -272 544.002l-87 -110c86.667 -74.667 147 -152 181 -232c34.667 -78 52 -179 52 -303c0 -114.667 -18.667 -213 -56 -295c-18.667 -40.667 -45 -84.334 -79 -131.001s-76.333 -96.334 -127 -149.001l15 -18
c120.667 90.667 213 195.667 277 315c64 118.667 96 245 96 379z" />
    <glyph glyph-name="asterisk" unicode="*" horiz-adv-x="539" 
d="M329 920l-59.0029 46.001l-62 -46c23.333 -50 37 -96.667 41 -140c-20 6.66699 -38 14.667 -54 24c-4 1.33301 -24.667 14.333 -62 39l-16 11l-60 -48l30 -66c42 4 69.667 6 83 6c11.333 0 33.666 -2 66.999 -6c-31.333 -39.333 -68.666 -71.666 -111.999 -96.999l24 -75
l71 5c12 55.333 28.667 100.666 50 135.999c17.333 -29.333 30.333 -69 39 -119c0 -0.666992 0.5 -2.83398 1.5 -6.50098s1.83301 -7.16699 2.5 -10.5l76 -5l25 69c-5.33301 5.33301 -8.66602 8.33301 -9.99902 9l-46 34c-13.333 10 -30.666 29 -51.999 57c24 6 45 9 63 9
c-0.666992 0 4.33301 -0.5 15 -1.5s27.334 -2.16699 50.001 -3.5c5.33301 -0.666992 9.33301 -1 12 -1h5l29 70l-61 44c-48.667 -42 -91.334 -68 -128.001 -78c0.666992 39.333 13.334 87.333 38.001 144z" />
    <glyph glyph-name="plus" unicode="+" horiz-adv-x="716" 
d="M702 296v73h-297v296h-71v-296h-296v-73h296v-296h71v296h297z" />
    <glyph glyph-name="comma" unicode="," horiz-adv-x="332" 
d="M96 -132c100.667 38.667 163.333 114.333 188 227l-102 99l-99 -102l10 -10c36 -37.333 54 -68.333 54 -93c0 -25.333 -21.333 -55.333 -64 -90z" />
    <glyph glyph-name="hyphen" unicode="-" horiz-adv-x="427" 
d="M371 417h-275c-7.33301 -18.667 -15.333 -37.667 -24 -57l-27 -58h275c12.667 38 29.667 76.333 51 115z" />
    <glyph glyph-name="period" unicode="." horiz-adv-x="332" 
d="M193 187l-103 -104l103 -100l103 100z" />
    <glyph glyph-name="slash" unicode="/" horiz-adv-x="694" 
d="M625 1027l-625 -1210l61 -31l625 1210z" />
    <glyph glyph-name="zero" unicode="0" 
d="M38 414c0 -97.333 26.833 -183.332 80.5 -257.999s130.167 -132.334 229.5 -173.001c94.667 52.667 170 123 226 211c56.667 88.667 85 181.334 85 278.001c0 101.333 -26.667 189.166 -80 263.499s-130.333 132.5 -231 174.5c-206.667 -142 -310 -307.333 -310 -496z
M553 365.001c0 -100 -32.667 -184.334 -98 -253.001c-100 38 -177.333 90.5 -232 157.5s-82 145.167 -82 234.5c0 98.667 30.667 189.334 92 272.001c98 -24 175.667 -73.333 233 -148c58 -75.333 87 -163 87 -263z" />
    <glyph glyph-name="one" unicode="1" 
d="M319 910l-154 -134l23 -26l43 35c26 -17.333 42 -37.333 48 -60c4 -13.333 6 -39 6 -77v-501l-46 -54l157 -110l171 138l-24 26l-64 -49c-5.33301 2.66699 -8 4.33398 -8 5.00098c-6.66699 3.33301 -12 6.66602 -16 9.99902s-7 6.33301 -9 9
c-8 6.66699 -13 14.667 -15 24c-2 8.66699 -3 29 -3 61v484c0 64 -6.66699 109.333 -20 136c-13.333 27.333 -43 55 -89 83z" />
    <glyph glyph-name="two" unicode="2" 
d="M329 910l-260.998 -214l96 -93l257 210c40.667 -38.667 61 -86 61 -142c0 -60 -14.667 -115.667 -44 -167c-29.333 -50 -83.333 -112 -162 -186c-79.333 -73.333 -134.333 -132.333 -165 -177c-31.333 -44 -53.333 -93.333 -66 -148l17 -10c82.667 36 164.667 54 246 54
c77.333 0 153.666 -18 228.999 -54l121 136c-96 32.667 -183 49 -261 49c-75.333 0 -161 -18.667 -257 -56c27.333 31.333 52.666 56.666 75.999 75.999c11.333 10 28 22.5 50 37.5l82 53.5c108.667 68.667 183.667 131.334 225 188.001c42 56.667 63 123 63 199v26
c0 8.66699 -0.333008 17.667 -1 27z" />
    <glyph glyph-name="three" unicode="3" 
d="M125 294l-104.003 -97.998l257 -213l13 3c122.667 34 210.334 71.667 263.001 113c52.667 42 79 94.667 79 158c0 54 -19.5 101.167 -58.5 141.5s-93.5 69.166 -163.5 86.499c124 46 186 131.333 186 256v28l-312 141l-202 -153l83 -91l135 100l22 16.5l22 16.5
c20.667 14 37.334 21 50.001 21c26 0 39 -21.667 39 -65c0 -81.333 -19.167 -141.833 -57.5 -181.5s-100.166 -62.834 -185.499 -69.501c-4.66699 -0.666992 -8 -1 -10 -1h-4v-45l17 1c11.333 0.666992 21.666 1.16699 30.999 1.5s18.333 0.5 27 0.5
c32.667 0 62.334 -5.66699 89.001 -17s49.5 -27.833 68.5 -49.5s33.5 -47.667 43.5 -78s15 -64.5 15 -102.5c0 -76.667 -21.667 -125.667 -65 -147z" />
    <glyph glyph-name="four" unicode="4" 
d="M59 279h307v-129l-47 -67l152 -100l165 130l-18 24c-6.66699 -3.33301 -11 -5.66602 -13 -6.99902c-16.667 -12.667 -29.667 -19 -39 -19s-25.333 6.33301 -48 19c-1.33301 1.33301 -6.33301 3.66602 -15 6.99902v142h157l-24 123h-133v314
c0 64.667 -6.66699 108.667 -20 132s-42.333 44 -87 62l-364 -499zM366 660l0.000976562 -258.001h-305l268 367c17.333 -12 28.666 -28 33.999 -48c2 -11.333 3 -31.666 3 -60.999z" />
    <glyph glyph-name="five" unicode="5" 
d="M125 244l-98.001 -110.999l262 -150c112.667 37.333 195 84.333 247 141s78 128 78 214c0 32.667 -4.16699 62.667 -12.5 90s-21.166 53 -38.499 77s-39.833 46.333 -67.5 67s-60.5 41 -98.5 61l-270 -180l54 301h333l53 137h-395l-90 -509l186 125
c151.333 -47.333 227 -136 227 -266c0 -68.667 -27 -123.334 -81 -164.001z" />
    <glyph glyph-name="six" unicode="6" 
d="M517 667l98 115l-229 128c-118.667 -88 -205 -174.667 -259 -260c-52.667 -83.333 -79 -175.666 -79 -276.999c0 -92.667 26.167 -172.834 78.5 -240.501s126.833 -117.5 223.5 -149.5l17 10c188.667 100 283 221.667 283 365c0 104.667 -59 183 -177 235l-295 -177v26
c0 124.667 35.333 241.667 106 351zM464 98c-76 20 -140 56.0029 -192 108.003s-82 110 -90 174l170 105c28.667 -11.333 54.5 -24.833 77.5 -40.5s42.667 -32.834 59 -51.501s28.833 -38.334 37.5 -59.001s13 -41.334 13 -62.001c0 -64 -25 -122 -75 -174z" />
    <glyph glyph-name="seven" unicode="7" 
d="M147 891l-124 -249.001h36c24.667 50 51 81.333 79 94c28.667 13.333 82.667 20 162 20h198l-22 -26c-122 -141.333 -211.333 -270 -268 -386c-58.667 -120.667 -88.667 -241 -90 -361l188 67c7.33301 316.667 114.333 584.334 321 803.001l2 38h-482z" />
    <glyph glyph-name="eight" unicode="8" 
d="M344 -17l18.001 0.00390625c6 0 11.667 0.333008 17 1l18 15c103.333 81.333 170.333 141.666 201 180.999c34.667 43.333 52 93 52 149c0 24 -3.83301 47.167 -11.5 69.5s-18.5 42.666 -32.5 60.999s-31 34.5 -51 48.5s-42 25 -66 33c22.667 17.333 42 33.666 58 48.999
s29 30.5 39 45.5s17.167 30 21.5 45s6.5 30.833 6.5 47.5c0 55.333 -25.667 99.666 -77 132.999s-119.666 50 -204.999 50c-4.66699 0 -10.834 -0.333008 -18.501 -1s-17.167 -1.66699 -28.5 -3c-140 -139.333 -210 -251.666 -210 -336.999
c0 -72.667 38.667 -122.667 116 -150c-86.667 -74 -130 -147.333 -130 -220c0 -62.667 27 -114.334 81 -155.001c55.333 -41.333 122.666 -62 201.999 -62zM170.001 672.004c0 33.333 12.667 66.668 38 100.001c120.667 -2 202 -10.667 244 -26
c41.333 -15.333 62 -44.333 62 -87c0 -36.667 -24.333 -72.334 -73 -107.001c-34 6.66699 -86 13.667 -156 21c-76.667 8 -115 41 -115 99zM159.001 285.006c0 38.667 24.001 80.667 72.001 126c122 -17.333 201 -30.333 237 -39c26.667 -6.66699 53 -21 79 -43
c25.333 -21.333 38 -47 38 -77c0 -36.667 -15.833 -66.167 -47.5 -88.5s-72.834 -33.5 -123.501 -33.5c-72.667 0 -133.667 14.667 -183 44c-48 30 -72 67 -72 111z" />
    <glyph glyph-name="nine" unicode="9" 
d="M185 229l-95.999 -120.002l240 -126c110.667 80.667 190.667 161.667 240 243s74 171.333 74 270s-24.167 181.167 -72.5 247.5s-124.5 121.833 -228.5 166.5c-106.667 -63.333 -182.334 -123.333 -227.001 -180c-44.667 -55.333 -67 -117.666 -67 -186.999
c0 -108.667 57.333 -192 172 -250l291 178c1.33301 -6.66699 2.33301 -13.667 3 -21s1 -14.666 1 -21.999c0 -116 -33.667 -223.667 -101 -323zM225.001 783.998c70.667 -15.333 131.667 -48.333 183 -99c52 -51.333 84 -110 96 -176l-165 -100
c-56 24.667 -100.167 57 -132.5 97s-48.5 83 -48.5 129c0 57.333 22.333 107 67 149z" />
    <glyph glyph-name="colon" unicode=":" horiz-adv-x="320" 
d="M174 187l-101 -104l101 -100l103 100zM174 606l-101 -103l101 -101l103 101z" />
    <glyph glyph-name="semicolon" unicode=";" horiz-adv-x="332" 
d="M165 606l-100 -103l100 -101l104 101zM77 -132c100.667 39.333 164.333 115 191 227l-103 99l-100 -102l10 -10c35.333 -35.333 53 -66.333 53 -93c0 -26 -21 -56 -63 -90z" />
    <glyph glyph-name="less" unicode="&#x3c;" horiz-adv-x="379" 
d="M245 82l82 81l-177 247l181 219l-40 36l-243 -306z" />
    <glyph glyph-name="equal" unicode="=" horiz-adv-x="465" 
d="M409 302h-332c-6.66699 -17.333 -14.167 -35.5 -22.5 -54.5s-17.5 -38.833 -27.5 -59.5h331c12.667 38.667 29.667 76.667 51 114zM451 532l-331 -0.000976562c-16.667 -41.333 -33.667 -79.666 -51 -114.999h332c6 18 13.167 36.5 21.5 55.5s17.833 38.833 28.5 59.5z
" />
    <glyph glyph-name="greater" unicode="&#x3e;" horiz-adv-x="379" 
d="M157 665l-81 -81l176 -247l-179 -219l38 -36l243 306z" />
    <glyph glyph-name="question" unicode="?" horiz-adv-x="454" 
d="M149 881l-100.999 -172l16 -12c32.667 32.667 64 49 94 49c29.333 0 54.666 -11 75.999 -33c21.333 -22.667 32 -48.334 32 -77.001c0 -26.667 -6.66699 -57 -20 -91l-37 -91c-22.667 -55.333 -34 -119 -34 -191v-30h28l2 21c3.33301 55.333 11.333 98 24 128
c5.33301 12.667 14.5 27.834 27.5 45.501s29.5 38.167 49.5 61.5s36.667 44 50 62s23.333 33.667 30 47c14 26 21 54.333 21 85c0 62.667 -22.5 111.167 -67.5 145.5s-108.5 51.833 -190.5 52.5zM187.001 182l-99 -100l99 -99l100 99z" />
    <glyph glyph-name="at" unicode="@" horiz-adv-x="1289" 
d="M761 233c10.667 -82.667 60.667 -123.997 150 -123.997c91.333 0 167.666 41 228.999 123c59.333 79.333 89 176.333 89 291c0 149.333 -52.667 263 -158 341c-89.333 68 -204.666 102 -345.999 102c-190 0 -347.333 -57 -472 -171
c-125.333 -113.333 -188 -253.333 -188 -420c0 -150 46 -277.333 138 -382c104.667 -120.667 246.667 -181 426 -181s344.666 48.333 495.999 145l-33 55c-134.667 -83.333 -284 -125 -448 -125c-124.667 0 -230.334 41.333 -317.001 124c-92 88.667 -138 204.667 -138 348
c0 167.333 56.667 301.666 170 402.999c102 90 224 135 366 135c123.333 0 223.333 -28.333 300 -85c89.333 -65.333 134 -162 134 -290c0 -98 -24.333 -179.333 -73 -244c-43.333 -55.333 -88.666 -83 -135.999 -83c-33.333 0 -50 20.667 -50 62
c0 19.333 9 61.666 27 126.999l84 297h-160l-23 -81c-19.333 42 -45.666 71 -78.999 87c-24.667 11.333 -57.667 17 -99 17c-75.333 0 -144 -38.667 -206 -116c-62 -76.667 -93.333 -161.334 -94 -254.001c-1.33301 -67.333 17.334 -122 56.001 -164s87.667 -63 147 -63
c85.333 0 154.666 42 207.999 126zM518 279.003c0 49.333 14.667 112.334 44 189.001c39.333 101.333 87 152 143 152c30.667 0 53 -12.333 67 -37c12 -19.333 16.333 -44.333 13 -75c-7.33301 -62.667 -23.333 -123.334 -48 -182.001c-38 -91.333 -85 -137 -141 -137
c-27.333 0 -47.333 10 -60 30c-12 16 -18 36 -18 60z" />
    <glyph glyph-name="A" unicode="A" horiz-adv-x="930" 
d="M768 -23l161.999 136.001l-24 26c-25.333 -21.333 -42.666 -32 -51.999 -32c-14.667 0 -24.667 7.66699 -30 23c-2.66699 7.33301 -4.83398 19.166 -6.50098 35.499s-3.16699 36.833 -4.5 61.5l-22 482c-2 10.667 -3 28 -3 52c0 48.667 7 84.667 21 108
c7.33301 11.333 18.333 23.166 33 35.499s33.334 24.833 56.001 37.5l-16 24c-14.667 -6.66699 -27.667 -13.167 -39 -19.5s-21 -12.166 -29 -17.499c-7.33301 -5.33301 -16.666 -13 -27.999 -23l-40 -37c-3.33301 -3.33301 -6 -5.66602 -8 -6.99902
s-3.33301 -2.33301 -4 -3c-104.667 74.667 -206.334 112 -305.001 112c-96 0 -180 -34 -252 -102c-72 -67.333 -108 -146 -108 -236c0 -56.667 15.667 -109.834 47 -159.501s76 -93.5 134 -131.5l-103 -148c-31.333 -45.333 -51.333 -77.333 -60 -96
c-8.66699 -18 -13 -37.333 -13 -58c0 -15.333 4.83301 -29 14.5 -41s20.834 -18 33.501 -18c24 0 36 11 36 33c0 10.667 -4.66699 23.667 -14 39s-14 26.666 -14 33.999c0 8 3.16699 15.167 9.5 21.5s13.833 9.5 22.5 9.5c49.333 0 141.666 -47 276.999 -141l236 188l3 -37
c2 -39.333 8.66699 -68.666 20 -87.999c10.667 -18 34 -39 70 -63zM267.999 315.001h403l3 -110l-138 -107l-326 136zM599.999 792.001c8 -5.33301 16 -11.167 24 -17.5l25 -20.5l14 -340h-326zM382.999 679c25.333 0 52.3359 -9.66699 81.0029 -29l-194 -277
c-98.667 68.667 -148 149 -148 241c0 67.333 27 124 81 170c53.333 46.667 119.666 70 198.999 70c63.333 0 120.666 -15 171.999 -45l-40 -59c-40 10.667 -75.667 16 -107 16c-76.667 0 -132.334 -44.333 -167.001 -133l24 -11c30.667 38 63.667 57 99 57z" />
    <glyph glyph-name="B" unicode="B" horiz-adv-x="1139" 
d="M1049 705l-194.002 261.003c-56.667 -20 -104.5 -38 -143.5 -54s-69.167 -30.333 -90.5 -43c-50 -28.667 -83.333 -63 -100 -103c-13.333 -34.667 -20 -91 -20 -169v-207c0 -74.667 -13.333 -131.334 -40 -170.001c-26.667 -38 -74 -70.667 -142 -98
c41.333 40.667 68.666 76.667 81.999 108c12.667 30 19 77 19 141v250c0 81.333 16 143 48 185c31.333 42 93 83.333 185 124l-23 33c-54.667 -25.333 -104.667 -38 -150 -38c-11.333 0 -22.5 0.5 -33.5 1.5s-22.167 2.16699 -33.5 3.5l-82 20
c-24 6.66699 -52.333 10 -85 10c-50 0 -90.167 -16.833 -120.5 -50.5s-49.166 -80.834 -56.499 -141.501h33c9.33301 57.333 35.333 86 78 86c15.333 0 33 -3.33301 53 -10c32.667 -10 63.334 -15 92.001 -15c26.667 0 70.667 8 132 24c-68 -44.667 -114 -86 -138 -124
s-37.333 -91.667 -40 -161c-27.333 6 -49 9 -65 9c-77.333 0 -123.666 -47.667 -138.999 -143l27 -7c16 39.333 44.667 59 86 59c32.667 0 57.834 -11.167 75.501 -33.5s26.5 -53.833 26.5 -94.5v-6c-100 -3.33301 -151 -52.333 -153 -147h25c10 42.667 33 64 69 64
c16.667 0 31.334 -6.16699 44.001 -18.5s19 -26.5 19 -42.5c0 -34.667 -31 -81.334 -93 -140.001c-19.333 -18.667 -35.333 -34.834 -48 -48.501s-22 -25.167 -28 -34.5c-12 -19.333 -18 -40.666 -18 -63.999c0 -18 4.5 -33 13.5 -45s20.5 -18 34.5 -18
c26 0 39 12.667 39 38c0 10 -2 18 -6 24l-11 17c-6 8.66699 -9 17.334 -9 26.001c0 28.667 22 53 66 73c43.333 20.667 96.666 31 159.999 31c49.333 0 93 -6.33301 131 -19c19.333 -6.66699 40.166 -15.334 62.499 -26.001s45.833 -23.667 70.5 -39
c105.333 89.333 234 143.333 386 162v271c0 14 0.166992 25.167 0.5 33.5s1.33301 15 3 20s4.16699 9 7.5 12s8 6.16699 14 9.5v19l-172 82zM784.998 106.003l-30 14.5l-28 13.5v113c30 10.667 60.333 16 91 16c30 0 58 -5.33301 84 -16v-96
c-15.333 -4 -31.5 -9.16699 -48.5 -15.5s-34.833 -13.833 -53.5 -22.5zM817.998 294.003c-28.667 0 -58.999 -4 -90.999 -12v98c31.333 -9.33301 59.666 -14 84.999 -14c24.667 0 54.667 4.66699 90 14v-98c-27.333 8 -55.333 12 -84 12zM814.999 397.003
c-28.667 0 -58 5.33301 -88 16v53l51 38l124 -62v-26c-27.333 -12.667 -56.333 -19 -87 -19zM726.999 673.003l-31 -0.000976562v-529c-48 14 -93.333 21 -136 21c-19.333 0 -39.333 -1.33301 -60 -4s-42.334 -6.66699 -65.001 -12c28.667 15.333 52.667 28.833 72 40.5
s34.333 21.5 45 29.5c20.667 16 38.834 37 54.501 63s25.834 54 30.501 84c1.33301 8.66699 2.33301 20.334 3 35.001s1 32.667 1 54v261c0 55.333 7.33301 94.333 22 117c15.333 24 45.666 43.667 90.999 59l173 -239l-200 -150v170z" />
    <glyph glyph-name="C" unicode="C" horiz-adv-x="898" 
d="M912 239l-15 18.001c-48.667 -40.667 -102.334 -72.334 -161.001 -95.001c-60 -23.333 -115 -35 -165 -35h-19v712c74.667 -35.333 144.334 -58.666 209.001 -69.999l128 122h-6c-97.333 0 -195.333 25 -294 75l-276 -235v-303c0 -41.333 -2 -68.333 -6 -81
c-7.33301 -26 -23.333 -47.333 -48 -64c-51.333 76.667 -77 156.334 -77 239.001c0 71.333 14.333 132.666 43 183.999c29.333 52.667 80 109 152 169l-11 16c-94 -49.333 -167 -113.333 -219 -192c-52 -79.333 -78 -166 -78 -260c0 -128.667 41 -236.334 123 -323.001
c82.667 -86 185 -129 307 -129c168 0 305.667 84 413 252zM451 792.001l71.002 63.0039v-725c-98 10 -179.333 52 -244 126l57 48c23.333 19.333 42.5 37.166 57.5 53.499s26.167 30.833 33.5 43.5c5.33301 9.33301 9.66602 18.666 12.999 27.999
s5.66602 18.666 6.99902 27.999s2.5 23.666 3.5 42.999s1.5 44 1.5 74v218z" />
    <glyph glyph-name="D" unicode="D" horiz-adv-x="1096" 
d="M812 -17l207.001 142.999v36c0 203.333 -11.333 354.333 -34 453c-25.333 106.667 -68 180.667 -128 222c-56.667 38.667 -142.334 58 -257.001 58c-36 0 -76.5 -0.666992 -121.5 -2s-95.167 -3.33301 -150.5 -6c-23.333 -1.33301 -43 -2.33301 -59 -3s-28.333 -1 -37 -1
c-44.667 0 -74 2 -88 6c-28.667 9.33301 -49.334 29 -62.001 59h-17v-15c0 -66.667 16 -113.334 48 -140.001c31.333 -26.667 86.666 -40 165.999 -40c34.667 0 80.667 1 138 3l29 1c-76.667 -42.667 -127 -84.667 -151 -126c-23.333 -41.333 -36 -108.666 -38 -201.999v-22
c-24.667 9.33301 -45.667 14 -63 14c-62 0 -110 -33.667 -144 -101l19 -16c22 22.667 44.667 34 68 34c28 0 51.333 -11.333 70 -34c20 -22 30 -48.333 30 -79c0 -34 -11.333 -66.333 -34 -97c-11.333 -15.333 -26.833 -31.833 -46.5 -49.5s-43.834 -36.834 -72.501 -57.501
c-1.33301 -0.666992 -3.16602 -1.83398 -5.49902 -3.50098s-5.5 -4.16699 -9.5 -7.5l18 -24l72.5 49.5l66.5 47.5c70.667 54.667 116.334 101.334 137.001 140.001s31 98 31 178v97c0 40 0.5 72.167 1.5 96.5s2.16699 41.5 3.5 51.5c2 10 5.83301 20.833 11.5 32.5
s13.667 22.667 24 33s22.666 19.833 36.999 28.5s31.166 15.667 50.499 21c-10.667 -16.667 -19 -32.667 -25 -48s-10.333 -29.666 -13 -42.999c-4.66699 -25.333 -7 -79.333 -7 -162v-101c0 -28.667 -0.5 -52.667 -1.5 -72s-2.16699 -34.333 -3.5 -45
c-1.33301 -10 -3.66602 -20 -6.99902 -30s-7.66602 -19.667 -12.999 -29c-31.333 -57.333 -92.666 -113.666 -183.999 -168.999l-141 -84c-4 -2.66699 -7.66699 -5 -11 -7l-10 -6l19 -26c62 34 120 58 174 72s115 21 183 21c104 0 214 -16.333 330 -49zM635.001 155.999
l-19.001 1v114c42.667 30 86.667 45 132 45c38 0 80.667 -15.667 128 -47c1.33301 -23.333 2.33301 -48 3 -74s1 -54 1 -84c-16 3.33301 -24.333 5.33301 -25 6c-59.333 14.667 -95.333 23.667 -108 27c-27.333 5.33301 -64.666 9.33301 -111.999 12zM749 347.999
c-40 0 -84.333 -14 -133 -42v171c42.667 -27.333 84 -41 124 -41c34.667 0 76.667 13.667 126 41c2.66699 -44 4.66699 -80 6 -108s2.33301 -48.333 3 -61c-46.667 26.667 -88.667 40 -126 40zM738 470.999c-34 0 -74.668 14.667 -122.001 44v250
c12.667 -2 19.334 -3 20.001 -3c81.333 -8 137.333 -29.333 168 -64c30.667 -34 49.667 -95 57 -183c-41.333 -29.333 -82.333 -44 -123 -44zM561.999 764.999l23 0.000976562v-607c-62 -1.33301 -117.333 -8.33301 -166 -21c36 32.667 60 66.334 72 101.001
c12.667 33.333 19 82.666 19 147.999v118c0 43.333 0.666992 79.166 2 107.499s3.33301 49.5 6 63.5c6 27.333 20.667 57.333 44 90z" />
    <glyph glyph-name="E" unicode="E" horiz-adv-x="918" 
d="M554 122l-0.000976562 418.999l231 -8l75 132l-164 3l199 202l-8 21c-5.33301 -0.666992 -11 -1.16699 -17 -1.5s-11.667 -0.5 -17 -0.5c-69.333 0 -156 25.667 -260 77l-279 -223v-327c0 -37.333 -3 -62.333 -9 -75c-5.33301 -14 -19.333 -31.333 -42 -52
c-52.667 74.667 -79 158.667 -79 252c0 134.667 68 247.667 204 339l-13 22c-204 -107.333 -306 -254.333 -306 -441c0 -132.667 43 -245 129 -337c87.333 -91.333 193.333 -137 318 -137c82.667 0 158.167 20.833 226.5 62.5s126.833 102.834 175.5 183.501l-11 14
c-111.333 -83.333 -223.666 -125 -336.999 -125h-16zM754.999 770.999l-201 -203v276c58 -34.667 125 -59 201 -73zM448.999 798.999l73.999 60v-733c-101.333 16 -182.666 62.667 -243.999 140l79 65c42 34 67.667 60.667 77 80c9.33301 20 14 52.333 14 97v291z" />
    <glyph glyph-name="F" unicode="F" horiz-adv-x="868" 
d="M823 576l38 99.001h-180v147c46 -20.667 87.667 -31 125 -31c44.667 0 81.5 15.167 110.5 45.5s45.5 72.5 49.5 126.5l-21 3c-30 -46 -64.667 -69 -104 -69s-91 23 -155 69c-59.333 -99.333 -175.333 -159.333 -348 -180v-111c-79.333 -1.33301 -136 -13.333 -170 -36
c-34 -22 -66.667 -67.667 -98 -137l20 -16c29.333 33.333 61.666 56.666 96.999 69.999c36.667 13.333 87 20 151 20v-449c0 -69.333 -2 -114 -6 -134c-2.66699 -20 -12 -35.667 -28 -47l-19 10c-86 42.667 -144.667 64 -176 64c-32 0 -60 -13.833 -84 -41.5
s-40 -65.5 -48 -113.5l28 -8c12.667 40 32.667 60 60 60c16.667 0 57.334 -16.333 122.001 -49c9.33301 -4 17 -7.66699 23 -11l210 93c114.667 50 186.667 93 216 129c30 36.667 45 100 45 190v307h142zM470 765.001l49.999 16.999c14 4.66699 24.667 8.33398 32 11.001
v-534c0 -62.667 -6.33301 -108.667 -19 -138c-12 -30 -38 -62 -78 -96c-24 -19.333 -55.333 -40.333 -94 -63c50.667 55.333 81.334 99.333 92.001 132c11.333 34 17 95.333 17 184v487z" />
    <glyph glyph-name="G" unicode="G" horiz-adv-x="1039" 
d="M718 691l213.999 170.998l-9 18c-19.333 -4.66699 -39.666 -7 -60.999 -7c-84 0 -183.333 31 -298 93l-28 -22c-195.333 -152.667 -322.333 -268 -381 -346c-26 -35.333 -46.667 -75.666 -62 -120.999c-16 -46 -24 -90.333 -24 -133
c0 -103.333 36.667 -188.666 110 -255.999s166 -101 278 -101c134.667 0 256.667 45 366 135s164 191.333 164 304c0 76 -24.333 137.333 -73 184c-48 47.333 -113.333 74.333 -196 81zM742.999 756.998l-279 -221v315c44.667 -18 90.167 -34.833 136.5 -50.5
s93.833 -30.167 142.5 -43.5zM463.999 488.998c28 17.333 55.333 32.3311 82 44.998v-486c-100.667 6 -182.667 46.667 -246 122l61 49l49.5 39c13 10.667 22.5 19.334 28.5 26.001c12.667 12.667 20 25.667 22 39c2 18.667 3 38.334 3 59.001v107zM827.999 195.996
c-48.667 -92 -132.33 -140.666 -250.997 -145.999v135c13.333 8.66699 25.166 15.667 35.499 21s19.166 9.66602 26.499 12.999c18 6.66699 41.667 10 71 10c35.333 0 74.666 -11 117.999 -33zM709.003 261.997c-41.333 0 -85.334 -12 -132.001 -36v132
c55.333 -28.667 107 -43 155 -43s95.333 14.333 142 43c-1.33301 -44 -11.666 -88 -30.999 -132c-48 24 -92.667 36 -134 36zM727.002 345.997c-34 0 -59.999 3.33496 -77.999 10.002c-20 7.33301 -44 20.666 -72 39.999v151c34 12.667 64 19 90 19
c51.333 0 95.666 -16 132.999 -48c37.333 -30.667 60.666 -71.334 69.999 -122.001c-24.667 -20 -47 -33.667 -67 -41c-19.333 -6 -44.666 -9 -75.999 -9zM202.003 432.999c0 110 41 207.001 123 291.001v-366c0 -49.333 -2.66699 -83 -8 -101
c-5.33301 -16.667 -18.333 -37.334 -39 -62.001c-50.667 76.667 -76 156 -76 238z" />
    <glyph glyph-name="H" unicode="H" horiz-adv-x="1131" 
d="M678 -17l138.999 196.999l-26 17c-30 -42 -62.333 -63 -97 -63c-5.33301 0 -10.666 0.166992 -15.999 0.5s-10.333 0.833008 -15 1.5l-104 8c-5.33301 0.666992 -14.666 1 -27.999 1h-52h-25c3.33301 3.33301 6.66602 6.5 9.99902 9.5s6.33301 5.83301 9 8.5l57.5 48
l36.5 29c29.333 21.333 64.666 39 105.999 53c40.667 14 78 21 112 21c40 0 87 -10 141 -30v-5c0 -57.333 -33.667 -128.666 -101 -213.999l-41 -52c-36 -45.333 -54 -85.666 -54 -120.999c0 -21.333 7.33301 -39.666 22 -54.999s33 -23 55 -23
c16.667 0 30.667 4.66699 42 14s17 20.666 17 33.999c0 24 -11.667 36 -35 36c-4.66699 0 -7.66699 -0.666992 -9 -2l-16 -6c-1.33301 -0.666992 -5 -1 -11 -1c-17.333 0 -26 7.66699 -26 23c0 14 21 39.667 63 77l135 114c22 18.667 41.667 43.667 59 75
c23.333 42.667 35 115.667 35 219c0 104 -12 180.667 -36 230c-24 48.667 -74.333 98.334 -151 149.001l-237 -198v165c0 50.667 10.667 87.667 32 111c22.667 24 72 51.667 148 83l-10 29c-46 -14.667 -85.167 -28.667 -117.5 -42s-58.166 -25.666 -77.499 -36.999
c-42 -24 -70.667 -56.333 -86 -97c-12.667 -34 -19 -89 -19 -165v-252c0 -60.667 -11.333 -108.667 -34 -144c-22 -36 -62.333 -72 -121 -108c8 12 12.667 19.667 14 23c24 38.667 39 72.667 45 102c6 22.667 9 58.667 9 108v324c0 67.333 11 117 33 149s69.667 66 143 102
c3.33301 1.33301 6.16602 2.66602 8.49902 3.99902s4.83301 2.66602 7.5 3.99902l-12 29l-17 -9c-52 -23.333 -98.333 -35 -139 -35c-27.333 0 -60.333 5 -99 15c-13.333 3.33301 -23.5 6 -30.5 8l-10.5 3c-21.333 4.66699 -37.333 7 -48 7c-46 0 -85.667 -16.333 -119 -49
s-55.666 -77 -66.999 -133l28 -8c16 58.667 47 88 93 88c11.333 0 35.666 -5 72.999 -15c24.667 -6 47.334 -9 68.001 -9c18.667 0 46.667 4 84 12c-50 -36.667 -84.333 -75.334 -103 -116.001c-9.33301 -20.667 -16.333 -45.167 -21 -73.5s-7.33398 -60.5 -8.00098 -96.5
l-21 -1c-53.333 -3.33301 -92 -13.333 -116 -30s-43.333 -47 -58 -91l20 -9c26.667 34.667 57.334 52 92.001 52c64 0 98.333 -47.333 103 -142c-73.333 -2.66699 -115.666 -46.334 -126.999 -131.001l23 -6c16 36.667 34.667 55 56 55c14 0 25.833 -5.16699 35.5 -15.5
s14.5 -23.5 14.5 -39.5c0 -40 -30 -89 -90 -147l-38 -37c-34 -33.333 -51 -68.333 -51 -105c0 -18 4.16699 -33 12.5 -45s19.166 -18 32.499 -18c24 0 36 12.667 36 38c0 6 -2.66699 16 -8 30l-11 15c-3.33301 8 -5 15.667 -5 23c0 28.667 21.333 52.334 64 71.001
c42.667 20 94 30 154 30c80.667 0 172.667 -23 276 -69zM792.999 341.999c-34 0 -86.001 -9.33301 -156.001 -28v157c54 -19.333 104 -29 150 -29c16 0 30 0.5 42 1.5s22 2.16699 30 3.5c18.667 2.66699 41 10.667 67 24v-157c-53.333 18.667 -97.666 28 -132.999 28z
M783.998 472.999c-54 0 -103.001 10.332 -147.001 30.999v36l164 134c42.667 -26 74 -51.667 94 -77c18.667 -23.333 30 -52.666 34 -87.999c-27.333 -15.333 -50.333 -25.333 -69 -30c-19.333 -4 -44.666 -6 -75.999 -6z" />
    <glyph glyph-name="I" unicode="I" horiz-adv-x="845" 
d="M70 -4l18.0039 -6.99805c28.667 50.667 64 76 106 76c26 0 71 -11.667 135 -35c77.333 -28.667 135.666 -43 174.999 -43c75.333 0 135.666 27.667 180.999 83s68 130 68 224c0 30 -2.5 69 -7.5 117s-12.167 105.333 -21.5 172l-2 17
c-6.66699 44.667 -11.5 82.667 -14.5 114s-4.5 55.666 -4.5 72.999c0 40.667 8 71.667 24 93s43.667 38 83 50c8.66699 2 15.667 4 21 6l-14 24c-150.667 -20 -226 -124.667 -226 -314c0 -17.333 2 -43.666 6 -78.999s9.66699 -80.333 17 -135
c8.66699 -60.667 15 -112.5 19 -155.5s6 -78.5 6 -106.5c0 -90.667 -35.667 -136 -107 -136c-19.333 0 -37 3.66699 -53 11c-5.33301 3.33301 -11.5 7.83301 -18.5 13.5s-15.167 12.834 -24.5 21.501c-29.333 26.667 -55.333 47.667 -78 63c64.667 6 109.667 21 135 45
c26 24 39 63.667 39 119c0 15.333 -0.333008 29.5 -1 42.5s-1.66699 24.167 -3 33.5l-13 106c-4.66699 38.667 -8.16699 74 -10.5 106s-3.5 60.667 -3.5 86c0 60.667 9 110.667 27 150c18.667 40 51 79.333 97 118l-13 15c-32 -15.333 -64.667 -23 -98 -23
c-32 0 -69 5.33301 -111 16c-32.667 8.66699 -60.667 13 -84 13s-44.833 -3.83301 -64.5 -11.5s-37 -18.334 -52 -32.001s-27.333 -30.167 -37 -49.5s-15.834 -41 -18.501 -65l17 -3c12 26.667 25.167 45.334 39.5 56.001s34.166 16 59.499 16c3.33301 0 8 -0.5 14 -1.5
s13.667 -2.16699 23 -3.5l52 -9c8.66699 -2 19.334 -3 32.001 -3c31.333 0 74.666 11 129.999 33c-50.667 -50 -86.334 -98.333 -107.001 -145c-10.667 -23.333 -18.5 -49.5 -23.5 -78.5s-7.83301 -60.833 -8.5 -95.5c-13.333 3.33301 -26.666 5 -39.999 5
c-65.333 0 -118.666 -37.667 -159.999 -113l13 -9c8.66699 8 16.667 14.667 24 20s14.666 9.5 21.999 12.5s15 5.16699 23 6.5s17.333 2 28 2c20 0 38.167 -5 54.5 -15s30.166 -24.333 41.499 -43s20.166 -40.834 26.499 -66.501s9.5 -53.834 9.5 -84.501
c0 -22.667 -1.83301 -41.667 -5.5 -57s-9.66699 -27.833 -18 -37.5s-19.666 -16.667 -33.999 -21s-31.833 -6.83301 -52.5 -7.5c-69.333 -2.66699 -122 -17 -158 -43c-33.333 -24.667 -59.666 -68.334 -78.999 -131.001z" />
    <glyph glyph-name="J" unicode="J" horiz-adv-x="832" 
d="M25 -155l20.999 -10.001c24.667 32.667 51.667 49 81 49c14.667 0 35 -3.66699 61 -11c44 -14.667 82 -22 114 -22c118 0 220.667 52 308 156c87.333 104.667 131 227.334 131 368.001c0 17.333 -0.333008 35.666 -1 54.999s-1.66699 40 -3 62l-5 88
c-0.666992 7.33301 -1 15 -1 23v27c0 74.667 9.33301 132.667 28 174c18.667 42.667 57.667 96 117 160l-17 24c-63.333 -45.333 -125 -68 -185 -68c-37.333 0 -105.333 9.66699 -204 29c-39.333 7.33301 -73.333 12.833 -102 16.5s-52.667 5.5 -72 5.5
c-59.333 0 -112.333 -19.667 -159 -59c-45.333 -39.333 -68 -85 -68 -137c0 -30 7.66699 -54.667 23 -74s34.666 -29 57.999 -29c20.667 0 37.834 6.5 51.501 19.5s20.5 29.5 20.5 49.5c0 16 -5.5 29.5 -16.5 40.5s-24.167 16.5 -39.5 16.5c-7.33301 0 -17.333 -4 -30 -12
c-5.33301 -4 -10.333 -6 -15 -6c-8 0 -12 5 -12 15c0 20.667 11.167 37.834 33.5 51.501s49.833 20.5 82.5 20.5c21.333 0 54 -6.33301 98 -19c58.667 -16.667 108 -25 148 -25c32.667 0 78.667 7 138 21c-74.667 -46.667 -127 -93 -157 -139s-46 -103 -48 -171
c-35.333 26 -71.333 39 -108 39c-46.667 0 -91 -21 -133 -63l12 -21c32.667 14 56.667 21 72 21c38 0 70.167 -14.667 96.5 -44s43.5 -69.333 51.5 -120c-40.667 22.667 -76.667 34 -108 34c-46 0 -87.333 -16 -124 -48l12 -19c22.667 5.33301 41.334 8 56.001 8
c30 0 60.167 -8.66699 90.5 -26s56.833 -41 79.5 -71c34 -46 51 -93.333 51 -142c0 -30.667 -10.333 -56.667 -31 -78c-21.333 -22 -46.333 -33 -75 -33c-14 0 -37.333 4 -70 12c-34.667 8.66699 -62 13 -82 13c-86 0 -142.333 -50.333 -169 -151zM599.999 237.999
c0 -95.333 -16.5 -168.332 -49.5 -218.999s-84.833 -83.667 -155.5 -99c48.667 30 81 63 97 99c16.667 35.333 25 92.666 25 171.999v62c0 18.667 -0.333008 35.667 -1 51l-2 90v34c0 128 19 227.667 57 299c38 72 102.667 129.667 194 173
c-72.667 -72 -118.667 -136.667 -138 -194c-19.333 -58 -29 -154.333 -29 -289v-48l2 -84v-47z" />
    <glyph glyph-name="K" unicode="K" horiz-adv-x="1068" 
d="M951 -12l143.002 138.996l-19 23l-12 -11c-17.333 -16.667 -30.333 -25 -39 -25c-12.667 0 -30.334 19.333 -53.001 58c-23.333 42 -45.5 78.333 -66.5 109s-40.167 56.667 -57.5 78c-35.333 42.667 -74.333 77.667 -117 105l251 172l-145 181l-244 -194
c4.66699 66.667 15.667 125 33 175c17.333 50.667 43.666 101.667 78.999 153l-24 20c-21.333 -26 -39.666 -54.167 -54.999 -84.5s-27.833 -64 -37.5 -101s-16.834 -77.5 -21.501 -121.5s-7 -93 -7 -147v-22l1 -62v-22c0 -73.333 -12.667 -127.666 -38 -162.999
c-26 -36 -77 -72.333 -153 -109l-137 -65l143 120c53.333 45.333 87 81.333 101 108c14.667 26.667 22 68.667 22 126v50c-0.666992 16.667 -1.16699 30 -1.5 40s-0.5 17.333 -0.5 22c0 43.333 1.83301 83.333 5.5 120s9.16699 70.334 16.5 101.001
s17.666 62.834 30.999 96.501s29.666 68.834 48.999 105.501l-13 11c-22 -16.667 -40 -27.334 -54 -32.001s-34.333 -7 -61 -7c-16 0 -33 2.33301 -51 7c-9.33301 0.666992 -22.666 3.66699 -39.999 9c-32.667 10.667 -66 16 -100 16c-26 0 -50.5 -4.83301 -73.5 -14.5
s-43.5 -23.334 -61.5 -41.001s-33.5 -39.167 -46.5 -64.5s-22.5 -53.333 -28.5 -84l30 -7c22.667 66 67.667 99 135 99c17.333 0 33.666 -1.33301 48.999 -4c16.667 -2.66699 30.334 -4.5 41.001 -5.5s18.667 -1.5 24 -1.5c34.667 0 90.334 17.667 167.001 53
c-32 -30 -58.5 -56.667 -79.5 -80s-36.833 -44 -47.5 -62c-20.667 -34.667 -31 -77.334 -31 -128.001v-15c0 -4 0.333008 -8.33301 1 -13c-37.333 24.667 -68.666 37 -93.999 37c-54 0 -93 -30.333 -117 -91l23 -6c20.667 18 41.334 27 62.001 27
c37.333 0 68.666 -15 93.999 -45c25.333 -29.333 38 -66.666 38 -111.999v-32c-31.333 26.667 -60.666 40 -87.999 40c-52 0 -87.333 -28.333 -106 -85l21 -9c15.333 15.333 31.666 23 48.999 23c10 0 19.5 -2.16699 28.5 -6.5s16.833 -10.166 23.5 -17.499
s12 -15.666 16 -24.999s6 -19 6 -29c0 -61.333 -70.667 -144.666 -212 -249.999l23 -30c94 44 184 66 270 66c89.333 0 178.666 -22 267.999 -66l157 175l9 -14c22 -38.667 43.167 -71.334 63.5 -98.001s39.833 -47.667 58.5 -63zM592.002 376.996
c22 -6 42.5 -13.998 61.5 -23.998s37 -22.5 54 -37.5s33.5 -32.833 49.5 -53.5s32 -44.334 48 -71.001l-81 -89c-20.667 10.667 -40.5 19.667 -59.5 27s-37.167 12.666 -54.5 15.999c-34 8 -80.333 12 -139 12c42.667 30 72.667 60.667 90 92c18 32 28.333 74.667 31 128z
M853.002 584.998l-261 -178v174l161 128z" />
    <glyph glyph-name="L" unicode="L" horiz-adv-x="905" 
d="M779 -14l157.999 146.997l-24 26l-63 -59c-74.667 60.667 -158.667 91 -252 91c-46.667 0 -105 -10.667 -175 -32l24 21c82.667 70 138.667 129 168 177c28.667 47.333 43 106.333 43 177c0 26.667 -5 88 -15 184c-4 40 -6 63.333 -6 70c0 44 11.667 76.667 35 98
s62 35 116 41l-15 33h-16c-78 0 -138.833 -20.667 -182.5 -62s-65.5 -99.333 -65.5 -174c0 -9.33301 0.166992 -18.166 0.5 -26.499s0.833008 -16.833 1.5 -25.5l7 -75c3.33301 -34 5.83301 -60.333 7.5 -79s2.5 -30.667 2.5 -36c0 -142 -65.333 -257.333 -196 -346
c43.333 60 74.333 114.333 93 163c18 46.667 27 98.667 27 156c0 26 -1 53.5 -3 82.5s-4.66699 59.5 -8 91.5c-6 56.667 -9 91 -9 103c0 44.667 8.33301 81.334 25 110.001c18 30 50 62.333 96 97l-13 21c-52.667 -26.667 -94.667 -40 -126 -40
c-18.667 0 -47.334 7 -86.001 21c-47.333 15.333 -81.666 23 -102.999 23c-42 0 -78.333 -15.333 -109 -46c-31.333 -30 -47 -65.333 -47 -106c0 -14 4 -33 12 -57l25 11c-2 16.667 -3 25.667 -3 27c0 20 5.83301 36.167 17.5 48.5s27.5 18.5 47.5 18.5
c16.667 0 37 -4.33301 61 -13c30 -10.667 55 -16 75 -16c30 0 69.667 6.66699 119 20c-44 -42 -74 -80.333 -90 -115c-16 -35.333 -24 -80.666 -24 -135.999v-10c0 -3.33301 0.333008 -7 1 -11c2 -11.333 3 -20 3 -26c-18 4.66699 -34.333 7 -49 7
c-43.333 0 -83 -21.667 -119 -65l18 -15c18 14 38.667 21 62 21c67.333 0 101.666 -42.667 102.999 -128c-25.333 16 -48.333 24 -69 24c-26 0 -52 -14.667 -78 -44l13 -15c14 5.33301 26.667 8 38 8c12 0 23.333 -2.5 34 -7.5s20 -12 28 -21s14.333 -19.333 19 -31
s7 -24.167 7 -37.5c0 -77.333 -64 -156 -192 -236l17 -27c124.667 68.667 239.334 103 344.001 103c102.667 0 199.334 -34.333 290.001 -103z" />
    <glyph glyph-name="M" unicode="M" horiz-adv-x="1329" 
d="M1151 -17l157.001 123.999l-24 26l-41 -33c-20 10.667 -32 21.334 -36 32.001c-4 10 -6 35.333 -6 76v458c0 63.333 3.66699 108 11 134c8 24.667 27 53.667 57 87l-26 19l-36.5 -34l-22.5 -22l-145 116l-240 -173c-3.33301 48.667 -11 83 -23 103
c-13.333 22 -39.333 44 -78 66l-19 -11l-135.5 -76.5c-33.667 -19 -55.834 -31.833 -66.501 -38.5c-19.333 -11.333 -37.166 -23.166 -53.499 -35.499s-31.833 -24.833 -46.5 -37.5c-38 -34 -65.667 -73 -83 -117c-16.667 -44 -25.334 -101.667 -26.001 -173
c-24 -2.66699 -44.833 -6.83398 -62.5 -12.501s-33.334 -13 -47.001 -22s-25.667 -20 -36 -33s-19.5 -28.5 -27.5 -46.5l24 -17c22.667 28 47.334 42 74.001 42c36 0 68 -20 96 -60c28.667 -39.333 43 -86 43 -140c0 -46 -10.333 -80.5 -31 -103.5s-54 -37.167 -100 -42.5
c-48.667 -5.33301 -82.834 -19.166 -102.501 -41.499s-29.5 -58.166 -29.5 -107.499v-18h29c6.66699 40.667 30.667 61 72 61c14 0 26.667 -1.33301 38 -4c42 -2 67 -3 75 -3c134.667 0 202 79.667 202 239v270h178v-194c0 -42.667 -6.33301 -70.334 -19 -83.001
c-6 -5.33301 -11.167 -9.5 -15.5 -12.5l-10.5 -7.5v-17c28 -20.667 54.333 -42.334 79 -65.001s47.667 -46.667 69 -72l229 201l-21 23l-48 -43v268l78 102h-78v316l32 23l97 -75v-604c0 -64 5.33301 -108 16 -132s37.334 -50.333 80.001 -79zM803.001 433.999
l94 0.000976562v-290c-12.667 -12.667 -26 -19 -40 -19c-22 0 -36.667 9.66699 -44 29c-6.66699 19.333 -10 58.666 -10 117.999v162zM897.001 534h-94v226l94 68v-294zM663.001 700v-166.001h-118l-60 -80v181c0 72.667 6.33301 122 19 148c13.333 27.333 45 56 95 86
c29.333 -19.333 47.333 -37.666 54 -54.999c6.66699 -16 10 -54 10 -114zM341.001 35.999c0.666992 0 -2.33398 0.167969 -9.00098 0.500977l-30 1.5c40.667 16 67.667 38.667 81 68c12.667 28 19 81.333 19 160v274c0 87.333 4 144.666 12 171.999
c8 26.667 29 53.667 63 81c-14.667 -33.333 -22 -86.333 -22 -159v-420c0 -72 -7.66699 -119.667 -23 -143s-45.666 -35 -90.999 -35z" />
    <glyph glyph-name="N" unicode="N" horiz-adv-x="1312" 
d="M1196 -14l118.004 205l-33 11l-47 -77c-14.667 1.33301 -28.334 2.5 -41.001 3.5s-24.667 1.5 -36 1.5c-64 0 -120 -8 -168 -24c6.66699 10.667 11.667 17.667 15 21l98 136c94 128 141 243 141 345c0 86.667 -30.667 161.667 -92 225
c-60.667 63.333 -145.334 107.666 -254.001 132.999l-427 -210v-135c-50 23.333 -89.333 35 -118 35c-49.333 0 -90.333 -21 -123 -63l15 -16c26.667 14.667 52.334 22 77.001 22c88 0 137.667 -55 149 -165c-41.333 33.333 -81 50 -119 50
c-44.667 0 -85.334 -20.333 -122.001 -61l15 -19c24.667 12.667 50.334 19 77.001 19c86 0 140.333 -46.333 163 -139c-34.667 18.667 -66 28 -94 28c-42 0 -79.333 -22.333 -112 -67l18 -18c29.333 19.333 56 29 80 29c33.333 0 63.666 -13.667 90.999 -41
s41 -58.666 41 -93.999c0 -64 -29.667 -96 -89 -96c-5.33301 0 -13.333 1.33301 -24 4l-43 8c-43.333 8.66699 -76.333 13 -99 13c-72.667 0 -134 -38 -184 -114l18 -17c39.333 22.667 77.666 34 114.999 34c22 0 50.333 -5.33301 85 -16
c61.333 -19.333 109.666 -29 144.999 -29c86.667 0 153 27 199 81s69 132.333 69 235v135c56.667 36.667 120.667 55 192 55c53.333 0 112.666 -20.333 177.999 -61c-1.33301 -4 -2.66602 -7.33301 -3.99902 -10l-3 -6c-6 -13.333 -13.333 -28.833 -22 -46.5l-30 -58.5
l-27 -47.5l-26 -43.5c-60 -105.333 -98 -181.333 -114 -228l32 -11c38.667 76.667 101 115 187 115c42.667 0 87 -10.333 133 -31zM882.004 446c-53.333 0 -114 -16.3359 -182 -49.0029v176c66.667 -34 129 -51 187 -51c73.333 0 147.333 24.667 222 74
c1.33301 -7.33301 2.5 -14.666 3.5 -21.999s1.5 -14.666 1.5 -21.999c0 -51.333 -11.333 -107.666 -34 -168.999c-61.333 42 -127.333 63 -198 63zM889.004 554.997c-63.333 0 -126.335 19.667 -189.002 59v203c52 10 91 15 117 15c65.333 0 123.666 -18.333 174.999 -55
c52.667 -36 89.334 -85 110.001 -147c-21.333 -13.333 -41.166 -25 -59.499 -35s-35.166 -17.667 -50.499 -23c-32 -11.333 -66.333 -17 -103 -17zM606.002 778.997c15.333 7.33301 28.5 13.167 39.5 17.5l26.5 10.5v-517c0 -110.667 -10.333 -184.667 -31 -222
c-21.333 -38 -63.333 -60 -126 -66c36.667 22.667 61 50 73 82s18 85.333 18 160v535z" />
    <glyph glyph-name="O" unicode="O" horiz-adv-x="1075" 
d="M593 966l-461.001 -277.998c-42 -99.333 -63 -193 -63 -281c0 -118.667 39 -218.334 117 -299.001s174.667 -121 290 -121c68.667 0 141.334 22.333 218.001 67c79.333 45.333 152.333 107 219 185c84.667 97.333 127 196.666 127 297.999c0 108 -41 201.667 -123 281
c-81.333 78.667 -189.333 128 -324 148zM177.999 486.002c0 116.667 45.667 208.667 137 276v-372c0 -20.667 -0.5 -38.167 -1.5 -52.5s-2.16699 -25.5 -3.5 -33.5c-6 -27.333 -20 -51.333 -42 -72c-60 84 -90 168.667 -90 254zM447.999 844.002
c13.333 0 26 -0.499023 38 -1.49902s23.667 -2.16699 35 -3.5v-746c-91.333 11.333 -168.333 49.666 -231 114.999c70 54.667 113.667 97 131 127c18 30.667 27 78 27 142v367zM712.999 577.003c-54.667 0 -108.336 22.001 -161.003 66.001v194
c36.667 -5.33301 71.334 -13.666 104.001 -24.999s62.834 -25.333 90.501 -42s52.167 -35.834 73.5 -57.501s39 -44.834 53 -69.501c-49.333 -44 -102.666 -66 -159.999 -66zM706.997 458.004c-56 0 -107.667 -20.667 -155 -62v215c52.667 -42 108 -63 166 -63
c54 0 109.667 21 167 63c13.333 -41.333 20 -79 20 -113c0 -30.667 -6 -71 -18 -121c-59.333 54 -119.333 81 -180 81zM563.997 93.0039h-12v260c42.667 50 95 75 157 75c65.333 0 121 -28 167 -84c-25.333 -74 -67.333 -134.333 -126 -181s-120.667 -70 -186 -70z" />
    <glyph glyph-name="P" unicode="P" horiz-adv-x="1089" 
d="M371 70v-257.002h237v246c14.667 -1.33301 31.5 -4.16602 50.5 -8.49902s40.167 -10.166 63.5 -17.499c48 -15.333 88.333 -30.666 121 -45.999l203 181v438c0 77.333 -18 139.666 -54 186.999c-36 48 -107 104.333 -213 169l-171 -117v103h-31v-123l-68 -47
c0 28 -4.5 53.333 -13.5 76s-21.333 42 -37 58s-34.667 28.333 -57 37s-46.833 13 -73.5 13c-71.333 0 -134.333 -31.333 -189 -94l19 -23c38.667 23.333 70.334 35 95.001 35c78.667 0 118 -54 118 -162v-37l-239 -165l7 -21c68.667 -13.333 124.667 -45.333 168 -96
c42.667 -50.667 64 -111 64 -181v-30c-106.667 -16.667 -207.334 -79 -302.001 -187l14 -17c84 52 180 80.667 288 86zM577 -156.002h-68v898l68 49v-947zM905 112.998c-95.333 46 -194.334 74 -297.001 84v130c58.667 34.667 109.334 52 152.001 52
c42 0 90.333 -17.333 145 -52v-214zM762.999 408.998c-52.667 0 -104.333 -16.333 -155 -49v195c50.667 -30.667 97.667 -46 141 -46c44 0 96 17 156 51v-194c-54.667 28.667 -102 43 -142 43zM749 539.998c-46.667 0 -93.665 17.667 -140.998 53v216l72 50
c40 -20 74.167 -39.5 102.5 -58.5s51.666 -38.167 69.999 -57.5s31.666 -39.5 39.999 -60.5s12.5 -43.5 12.5 -67.5v-17c-48.667 -38.667 -100.667 -58 -156 -58zM371.002 458.998c-35.333 37.333 -78.667 69.333 -130 96l130 88v-184z" />
    <glyph glyph-name="Q" unicode="Q" horiz-adv-x="1124" 
d="M605 966l-457.999 -273.001c-52 -105.333 -78 -204.666 -78 -297.999c0 -116 39 -213 117 -291c78.667 -78 175.667 -117 291 -117c46.667 0 90.667 7.33301 132 22c42 14.667 93 41.667 153 81l201 -146l133 126l-26 25l-40 -37l-156 117l14 16
c71.333 82.667 119.666 146.667 144.999 192c28.667 50.667 43 104.667 43 162c0 110 -43.333 203.333 -130 280c-86 76.667 -199.667 123.667 -341 141zM188.001 476.999c0 117.333 46.333 209.333 139 276v-384c0 -35.333 -2 -60.333 -6 -75
c-4.66699 -20.667 -17 -43 -37 -67c-64 80 -96 163.333 -96 250zM478.001 830.999c10.667 0 21.168 -0.166992 31.501 -0.5s20.5 -0.833008 30.5 -1.5v-724c-52 6.66699 -93.667 16.667 -125 30c-30.667 14 -66.334 37.333 -107.001 70c34 28 61.833 53.5 83.5 76.5
s38.167 43.833 49.5 62.5c16 26 24 72.667 24 140v347h13zM589.002 104.999l-16.001 0.000976562v252c40.667 50 93.667 75 159 75c68.667 0 126.667 -27 174 -81c-30 -70.667 -75.333 -129.334 -136 -176.001c-59.333 -46.667 -119.666 -70 -180.999 -70zM734.001 464
c-56.667 0 -110.333 -20.668 -161 -62.001v204c60.667 -36 116.334 -54 167.001 -54c55.333 0 112.666 22.667 171.999 68c16 -37.333 24 -77.666 24 -120.999c0 -40.667 -6.33301 -79 -19 -115c-58.667 53.333 -119.667 80 -183 80zM738.002 582.999
c-52.667 0 -107.668 20.333 -165.001 61v181c69.333 -6 135.333 -25.667 198 -59s105.334 -72.333 128.001 -117c-49.333 -44 -103 -66 -161 -66z" />
    <glyph glyph-name="R" unicode="R" horiz-adv-x="1082" 
d="M635 -13l158.997 152l-21 23l-64 -62c-23.333 17.333 -60 36 -110 56v268l26 18c58.667 -13.333 105.334 -40.333 140.001 -81c36 -42 65.333 -104 88 -186c15.333 -57.333 29.333 -97 42 -119c13.333 -22 36 -45 68 -69l146 135l-20 25l-52 -47
c-26 20.667 -48.333 60 -67 118l-22 72c-35.333 111.333 -100 191 -194 239l209 142l-215 293l-253 -172c-3.33301 56 -21.166 99 -53.499 129s-76.833 45 -133.5 45c-74.667 0 -137.667 -30.667 -189 -92l14 -15c32.667 19.333 64.667 29 96 29c46 0 79.167 -13 99.5 -39
s30.5 -69.333 30.5 -130v-21l-247 -172v-18c82 -28.667 144.5 -69.5 187.5 -122.5s64.5 -115.833 64.5 -188.5v-9c-113.333 -14.667 -211.666 -73 -294.999 -175l11 -13c83.333 46.667 174.666 70 273.999 70c104.667 0 198.334 -27.667 281.001 -83zM215.997 556
l143.001 102v-207c-36.667 40.667 -84.334 75.667 -143.001 105zM566.998 165l-44 10.5c-12 3 -21.333 5.16699 -28 6.5v571l72 50v-638zM828.998 620l-230 -159v363l57 40z" />
    <glyph glyph-name="S" unicode="S" horiz-adv-x="1102" 
d="M740 870l-276.999 99c-166 -125.333 -249 -234.333 -249 -327v-6c0.666992 -2 1 -4.66699 1 -8c-79.333 -31.333 -119 -81.333 -119 -150c0 -50.667 21.333 -89.667 64 -117s104.334 -41 185.001 -41h30c13.333 0.666992 23.333 1 30 1
c7.33301 0 12.666 0.333008 15.999 1l-49 -88c-21.333 3.33301 -39.833 5.83301 -55.5 7.5s-28.834 2.5 -39.501 2.5c-62 0 -112.333 -12.333 -151 -37c-38 -25.333 -57 -57.333 -57 -96c0 -38 15.333 -68.167 46 -90.5s72 -33.5 124 -33.5c71.333 0 167 29 287 87
c8 -4.66699 14.333 -7.66699 19 -9l59 -22l59 -26l18 -9c257.333 127.333 386 262.333 386 405c0 78 -31.167 138.333 -93.5 181s-150.5 64 -264.5 64c-9.33301 0 -18.833 -0.166992 -28.5 -0.5s-19.167 -0.833008 -28.5 -1.5l157 273l-25 16zM435.001 848
c61.333 0 142.666 -27.667 243.999 -83l-65 -112c-5.33301 -0.666992 -9.66602 -1 -12.999 -1h-8c-38 -3.33301 -69.5 -5.83301 -94.5 -7.5s-43.167 -2.5 -54.5 -2.5c-94.667 0 -142 31 -142 93c0 16 3.33301 31 10 45s16 26 28 36s26 17.833 42 23.5s33.667 8.5 53 8.5z
M517.001 530l29.002 3.00098l-53 -89c-34.667 -2.66699 -63 -4.66699 -85 -6s-38.333 -2 -49 -2c-118.667 0 -178 32.333 -178 97c0 26.667 12.667 49 38 67c11.333 -30.667 28.333 -51.334 51 -62.001c23.333 -10.667 62.666 -16 117.999 -16
c9.33301 0 24.666 0.666992 45.999 2s49 3.33301 83 6zM554.003 449.001c-0.666992 0 -3.00098 -0.164062 -7.00098 -0.49707s-9.66699 -0.833008 -17 -1.5l53 90c37.333 2.66699 66.333 4.66699 87 6s33.667 2 39 2c40 0 76 -4.5 108 -13.5s59.333 -21.833 82 -38.5
s40 -36.834 52 -60.501s18 -49.834 18 -78.501c0 -86.667 -57 -169 -171 -247c-34 15.333 -68.667 28.666 -104 39.999c4.66699 2.66699 8.33398 4.83398 11.001 6.50098s4.66699 2.83398 6 3.50098c34.667 19.333 63.834 37.166 87.501 53.499s42.167 31.166 55.5 44.499
c26 26.667 39 55.667 39 87c0 38 -16.333 67.833 -49 89.5s-77.334 32.5 -134.001 32.5c-26 0 -45.333 -1 -58 -3zM424.002 225.004l-19 3.99902l53 93c12.667 2 20.667 3 24 3l147 17c10 1.33301 20.5 2.33301 31.5 3s22.167 1 33.5 1c24 0 43.667 -5 59 -15
s23 -22.667 23 -38c0 -33.333 -39.333 -74 -118 -122l-12 -7c-43.333 14 -81.333 25 -114 33c-4 2.66699 -17 6.33398 -39 11.001zM229.002 136.003c80 0 164.999 -16.333 254.999 -49c-97.333 -48 -181.666 -72 -252.999 -72c-66 0 -99 20 -99 60c0 40.667 32.333 61 97 61
z" />
    <glyph glyph-name="T" unicode="T" horiz-adv-x="1018" 
d="M741 119l0.00195312 666.001c16.667 -1.33301 29.167 -2.5 37.5 -3.5s12.833 -1.5 13.5 -1.5c68.667 0 123.667 17.667 165 53s64.333 83.333 69 144l-21 8c-32 -52.667 -80 -79 -144 -79c-29.333 0 -89.333 7 -180 21l-97 16c-65.333 10 -120 15 -164 15
c-90.667 0 -166.334 -25.333 -227.001 -76s-102 -123 -124 -217l21 -9c56.667 120.667 144.334 181 263.001 181c11.333 0 22.166 -0.5 32.499 -1.5s20.833 -2.16699 31.5 -3.5c-176.667 -116 -265 -261 -265 -435c0 -116 42.333 -213.333 127 -292s188.667 -118 312 -118
c101.333 0 193.666 32 276.999 96c83.333 65.333 136 147 158 245l-21 6c-63.333 -114.667 -151.333 -186.334 -264 -215.001zM615.002 806.001l59.001 -11.5c16 -3 28 -5.16699 36 -6.5v-675c-36 -4 -58.667 -6 -68 -6c-69.333 0 -136.333 21 -201 63
c7.33301 5.33301 12 9.33301 14 12c75.333 61.333 120.666 105 135.999 131c16 26.667 24 72 24 136v357zM279.003 478.001c0 77.333 17.667 148.669 53 214.002s82 112 140 140v-431c0 -76.667 -3 -125.334 -9 -146.001s-23.333 -41.334 -52 -62.001
c-88 78 -132 173 -132 285z" />
    <glyph glyph-name="U" unicode="U" horiz-adv-x="1117" 
d="M967 -30l142.002 117.998l-17 26c-15.333 -8 -27.666 -12 -36.999 -12c-30 0 -45 29.667 -45 89v464c0 74.667 3.33301 122.334 10 143.001c6.66699 22 27.667 53.667 63 95c1.33301 2.66699 3.33301 5.33398 6 8.00098l9 9l-27 20l-66 -70l-135 100l-157 -165l21 -22
l75 75l61 -49v-200c-28.667 -18.667 -62.334 -28 -101.001 -28c-43.333 0 -83.666 14.667 -120.999 44v366h-20c-26 -34 -71 -51 -135 -51c-30 0 -70.333 9 -121 27c-60 21.333 -102.667 32 -128 32c-56 0 -99.167 -21.167 -129.5 -63.5s-45.5 -101.833 -45.5 -178.5v-17
c0 -6 0.333008 -12.667 1 -20h30c-0.666992 0.666992 -1 3.66699 -1 9c0 99.333 39.667 149 119 149c11.333 0 21.666 -0.333008 30.999 -1s18 -1.66699 26 -3c13.333 -1.33301 24.666 -2.66602 33.999 -3.99902l21 -3c4.66699 -0.666992 10.167 -1.16699 16.5 -1.5
s13.166 -0.5 20.499 -0.5c-4.66699 0 -2 0.333008 8 1s27 1.66699 51 3c6.66699 0.666992 11.667 1 15 1h8l-25 -16c-54 -34 -100.5 -68.5 -139.5 -103.5s-70.833 -70.833 -95.5 -107.5c-46.667 -70.667 -70 -152 -70 -244c0 -118.667 35 -215.334 105 -290.001
s160.667 -112 272 -112c63.333 0 123 11.667 179 35c54 24 118.333 67 193 129c1.33301 -49.333 8.66602 -86.333 21.999 -111c14.667 -26 40.334 -49.333 77.001 -70zM870.002 202.998c-75.333 -61.333 -149.333 -96.333 -222 -105v286c34 22 69 33 105 33
c34.667 0 73.667 -11.667 117 -35v-179zM754.002 447.998c-33.333 0 -68.666 -8.33301 -105.999 -25v153c38.667 -24 78.667 -36 120 -36c36 0 70 8 102 24v-147c-40.667 20.667 -79.334 31 -116.001 31zM559.002 697.998c0 34 0.666992 61.666 2 82.999
s3.33301 37.333 6 48c6 21.333 22.333 46.333 49 75v-811c-6 -0.666992 -12.333 -1 -19 -1h-19c-74.667 0 -139.667 19.667 -195 59c36 21.333 66.833 43.5 92.5 66.5s46.167 46.167 61.5 69.5c14.667 20.667 22 57.334 22 110.001v301zM421.002 366.997
c0 -26 -1.16699 -48.5 -3.5 -67.5s-6.16602 -35.833 -11.499 -50.5s-12.333 -27.5 -21 -38.5s-19.334 -21.167 -32.001 -30.5c-66 70 -99 159.333 -99 268c0 188 99.333 332.333 298 433c-9.33301 -10 -15.333 -17 -18 -21l-52 -66c-24.667 -30.667 -41 -57.334 -49 -80.001
c-8 -23.333 -12 -54.666 -12 -93.999v-253z" />
    <glyph glyph-name="V" unicode="V" horiz-adv-x="987" 
d="M839 966l-392 -202.999c-21.333 66 -51.666 118.667 -90.999 158c-40 40 -83.667 60 -131 60c-42 0 -76.5 -18.667 -103.5 -56s-44.5 -91.333 -52.5 -162l24 -6l3 14c16 59.333 42 89 78 89c48.667 0 90 -39 124 -117c34.667 -76 52 -171.333 52 -286v-24
c-30.667 36.667 -65.667 55 -105 55c-48.667 0 -85 -27 -109 -81l15 -13c20.667 15.333 41 23 61 23c31.333 0 59.666 -15 84.999 -45c25.333 -30.667 38 -65 38 -103c0 -66.667 -32 -154 -96 -262l23 -24c48 34 94.667 51 140 51c46 0 96 -17 150 -51l14 12
c126 104.667 222 214 288 328c60 104.667 90 206.667 90 306c0 101.333 -35 213.666 -105 336.999zM480 581.001c-4 38 -8 69.501 -12 94.501s-8.33301 43.833 -13 56.5l269 138c50.667 -78.667 79 -169.667 85 -273c-38 -16.667 -67.333 -27.334 -88 -32.001
c-24 -6.66699 -54.667 -10 -92 -10c-41.333 0 -91 8.66699 -149 26zM463 375.002c12.667 53.333 19 110.667 19 172c52 -15.333 101 -23 147 -23c60.667 0 120 12.667 178 38c-2 -72.667 -17.667 -145 -47 -217c-64 30.667 -126.333 46 -187 46
c-37.333 0 -74 -5.33301 -110 -16zM386 187.003c10.667 17.333 21.332 38.332 31.999 62.999s21.667 53.667 33 87c44 14.667 85.667 22 125 22c60 0 116.667 -15.333 170 -46c-39.333 -81.333 -78.333 -146.666 -117 -195.999c-38 12.667 -74 19 -108 19
c-35.333 0 -69.333 -6.66699 -102 -20c-31.333 -12.667 -71.666 -36.667 -120.999 -72c7.33301 9.33301 12 16 14 20z" />
    <glyph glyph-name="W" unicode="W" horiz-adv-x="1310" 
d="M731 974l-307 -218.997c-18 68 -45.167 120.667 -81.5 158s-77.833 56 -124.5 56c-86 0 -135.667 -65.667 -149 -197l31 -4c6 65.333 27.667 98 65 98c44.667 0 80.334 -35.333 107.001 -106s42.667 -171.667 48 -303c-33.333 33.333 -66 50 -98 50
c-45.333 0 -80.333 -26 -105 -78l17 -18c18.667 14 36.334 21 53.001 21c30.667 0 57 -14.333 79 -43c22.667 -28.667 34 -62.667 34 -102c0 -76.667 -33 -166.334 -99 -269.001c-1.33301 -4 -4 -8.33301 -8 -13l15 -22c77.333 47.333 144.666 71 201.999 71
c27.333 0 51.5 -5.16699 72.5 -15.5s44.5 -28.833 70.5 -55.5l9 5c68.667 42.667 129 64 181 64c28 0 52 -5 72 -15c19.333 -8.66699 42.666 -26.667 69.999 -54c136 115.333 236.167 223.166 300.5 323.499s96.5 199.166 96.5 296.499c0 114 -43.667 236.667 -131 368
l-306 -211c-30.667 80 -68.667 151.333 -114 214zM452 589.003c-1.33301 26.667 -3.66602 50.6689 -6.99902 72.002s-7.33301 40.666 -12 57.999l194 142c22 -28.667 43 -68.334 63 -119.001c20.667 -50 34.667 -97.667 42 -143c-48.667 -31.333 -98.334 -47 -149.001 -47
c-42 0 -85.667 12.333 -131 37zM452 537.005l0.000976562 16.998c36.667 -24.667 80.667 -37 132 -37c47.333 0 97.666 15 150.999 45c0.666992 -5.33301 1.16699 -11.166 1.5 -17.499s0.5 -13.166 0.5 -20.499c0 -52.667 -12.333 -117 -37 -193
c-61.333 35.333 -116 53 -164 53c-28 0 -62 -6.33301 -102 -19l-11 -5c19.333 64 29 123 29 177zM398.001 298.003l8.99902 18.001c47.333 24.667 92 37 134 37c48 0 96.667 -17.333 146 -52c-11.333 -30 -23.666 -58 -36.999 -84s-27.333 -50.667 -42 -74
c-16.667 2.66699 -31.5 4.66699 -44.5 6s-24.833 2 -35.5 2c-32 0 -68 -6.66699 -108 -20c-28 -9.33301 -71.667 -28.333 -131 -57l-20 -10c6 8 9.33301 13.333 10 16c26.667 37.333 48.667 73 66 107c4 7.33301 10.5 20.166 19.5 38.499s20.167 42.5 33.5 72.5z
M878 589.004c-2.66699 56.667 -10.6689 104 -24.002 142l188 128c50.667 -72.667 81.334 -162.667 92.001 -270l-6 -3c-47.333 -18 -89.666 -27 -126.999 -27c-40 0 -81 10 -123 30zM830.998 369.004c28 54 43.668 115.667 47.001 185c44 -16.667 82.333 -25 115 -25
c33.333 0 76 7.66699 128 23c0.666992 0 2 0.166992 4 0.5l9 1.5v-17c0 -19.333 -4 -49.333 -12 -90c-8.66699 -48 -18.334 -84.667 -29.001 -110c-61.333 31.333 -117 47 -167 47c-18.667 0 -45 -4 -79 -12c-4 0 -9.33301 -1 -16 -3zM621.999 87.0039
c54.667 54.667 92.667 95.667 114 123c10.667 13.333 22.167 29.5 34.5 48.5s25.5 41.167 39.5 66.5c40 19.333 79.667 29 119 29c50 0 100.333 -15.667 151 -47c-34.667 -72 -67.334 -126 -98.001 -162c-39.333 12 -71 18 -95 18c-29.333 0 -65.333 -6 -108 -18
c-42.667 -10.667 -78 -23.667 -106 -39l-48 -26l-10 -6c-3.33301 -2 -6.66602 -3.66699 -9.99902 -5c9.33301 9.33301 15 15.333 17 18z" />
    <glyph glyph-name="X" unicode="X" horiz-adv-x="881" 
d="M719 -17l161.002 143.002l-27 30l-30 -29c-16.667 -16.667 -32.334 -25 -47.001 -25c-15.333 0 -30.333 16 -45 48l-128 297h166l51 107h-275l118 269c45.333 -23.333 95 -44 149 -62l13 -6l55 114c-74 34 -137 69 -189 105l-159 -358l-75 178
c-28 66.667 -56 112.667 -84 138c-27.333 26 -63 39 -107 39c-82.667 0 -148.334 -47.333 -197.001 -142l20 -17c40.667 36.667 78.667 55 114 55c32 0 56 -8.66699 72 -26c8.66699 -8.66699 18 -22.334 28 -41.001s21.333 -42.667 34 -72l72 -174h-165l-49 -107h262
l-136 -306l-13 4c-37.333 18 -60.333 28 -69 30c-13.333 6 -27.833 12 -43.5 18s-32.5 11.667 -50.5 17l-56 -123c68.667 -20.667 135.334 -55.334 200.001 -104.001l183 408l99 -235c24.667 -61.333 45.667 -101.333 63 -120c17.333 -20 45.666 -37.667 84.999 -53z" />
    <glyph glyph-name="Y" unicode="Y" horiz-adv-x="1023" 
d="M100 912l14.0029 -23.999c20.667 10.667 38.667 16 54 16c46.667 0 80 -17.333 100 -52s30 -92 30 -172v-51c-46.667 29.333 -86 44 -118 44c-24.667 0 -50.334 -7 -77.001 -21l4 -23c3.33301 0.666992 6.66602 1 9.99902 1h11c49.333 0 90 -17.667 122 -53
s48 -80.666 48 -135.999v-28c-47.333 35.333 -94.666 53 -141.999 53c-16 0 -32.333 -2.33301 -49 -7v-18c29.333 -2 55.833 -9 79.5 -21s43.667 -28 60 -48s29 -43.833 38 -71.5s13.5 -57.834 13.5 -90.501v-25c-66.667 0 -121.334 -17.333 -164.001 -52
c-43.333 -35.333 -65 -79.333 -65 -132c0 -54.667 20.667 -100.667 62 -138c40.667 -38 91.334 -57 152.001 -57s147.334 30.667 260.001 92c52.667 28 89 42 109 42c20.667 0 31 -6.66699 31 -20c0 -0.666992 -1.66699 -5.33398 -5 -14.001
c-13.333 -18.667 -20 -35.334 -20 -50.001c0 -18 5.66699 -33.167 17 -45.5s25.666 -18.5 42.999 -18.5c42.667 0 64 23 64 69c0 35.333 -17.333 65.333 -52 90c-34 24 -76 36 -126 36c-35.333 0 -74 -6.33301 -116 -19l-40.5 -15l-71.5 -26
c-64 -23.333 -111.333 -35 -142 -35c-18 0 -34.833 3.16699 -50.5 9.5s-29.167 14.833 -40.5 25.5s-20.333 23.334 -27 38.001s-10 30.667 -10 48c0 44.667 20 79.5 60 104.5s96.333 37.5 169 37.5c23.333 0 58.666 -1 105.999 -3c46.667 -2 82 -3 106 -3
c152 0 264.5 35 337.5 105s109.5 178.667 109.5 326c0 100 -26 182 -78 246c-50.667 64.667 -116.667 97 -198 97c-64.667 0 -154.334 -33.667 -269.001 -101c-7.33301 -6.66699 -13 -10.667 -17 -12c-20 104 -82.333 156 -187 156c-54 0 -102.333 -18 -145 -54z
M495.003 185.001h-63v581c28.667 18.667 49.667 31.667 63 39v-620zM546.003 185.001h-20.001v201c46.667 38.667 96.334 58 149.001 58c56.667 0 110.667 -22.333 162 -67c-42 -128 -139 -192 -291 -192zM674.002 477.001c-50 0 -99.333 -17.666 -148 -52.999v194
c46.667 -38 98.334 -57 155.001 -57c30 0 57 4.66699 81 14c11.333 5.33301 24 12.166 38 20.499s28.667 18.833 44 31.5c6.66699 -30.667 10 -65 10 -103c0 -43.333 -3.33301 -80.333 -10 -111c-54.667 42.667 -111.334 64 -170.001 64zM678.002 591.002
c-14 0 -27.001 1.16699 -39.001 3.5s-24 6.16602 -36 11.499s-24.167 12.333 -36.5 21s-25.833 19.667 -40.5 33v162c40 17.333 74 26 102 26c48.667 0 91.667 -17.333 129 -52c39.333 -35.333 65.333 -80.666 78 -135.999c-45.333 -46 -97.666 -69 -156.999 -69z" />
    <glyph glyph-name="Z" unicode="Z" horiz-adv-x="805" 
d="M661 -17l143.996 179.999l-25 22l-68 -85c-70 34.667 -135.333 52 -196 52c-90.667 0 -198.334 -26 -323.001 -78l21 19c51.333 46 98.833 94.667 142.5 146s83.834 106.333 120.501 165h220l21 49h-211l30.5 56.5l10.5 18.5h202l23 49h-202l19 35
c40.667 76.667 77.334 142.667 110.001 198s61.667 100.333 87 135l-18 21c-80.667 -41.333 -170.667 -62 -270 -62c-66.667 0 -145.334 19.667 -236.001 59l-158 -185l25 -22l80 92c56.667 -26 118.334 -39 185.001 -39c68.667 0 159.667 23 273 69
c5.33301 2.66699 10 4.83398 14 6.50098l11 4.5l-22 -23l-100 -106c-24.667 -26.667 -41 -44.667 -49 -54c-16 -17.333 -32.5 -36.833 -49.5 -58.5l-53.5 -70.5h-204l-22 -49h196l-41 -75h-189l-20 -49h183c-9.33301 -15.333 -20.666 -35.5 -33.999 -60.5l-47 -90.5
c-55.333 -106 -112.666 -188 -171.999 -246l20 -24c106 45.333 205 68 297 68c94.667 0 186.334 -22.667 275.001 -68z" />
    <glyph glyph-name="bracketleft" unicode="[" horiz-adv-x="272" 
d="M272 -196v34h-101v1097h101v36h-203v-1167h203z" />
    <glyph glyph-name="backslash" unicode="\" horiz-adv-x="388" 
d="M256 140v707l119 -30l22 110l-137 35c-32 -27.333 -60.167 -50.166 -84.5 -68.499s-44.833 -32.833 -61.5 -43.5v-177h-53v-75h53v-371c0 -17.333 -0.5 -31.833 -1.5 -43.5s-2.16699 -20.834 -3.5 -27.501c-4.66699 -23.333 -18 -41.333 -40 -54v-15
c60.667 -20 117.667 -54.667 171 -104l149 119l-18 18l-44 -33l-36 27z" />
    <glyph glyph-name="bracketright" unicode="]" horiz-adv-x="272" 
d="M272 -196v1167h-203v-36h103v-1097h-103v-34h203z" />
    <glyph glyph-name="asciicircum" unicode="^" horiz-adv-x="536" 
d="M256 1015l-204 -212l31 -16l111 112l208 -112l90 93z" />
    <glyph glyph-name="underscore" unicode="_" horiz-adv-x="644" 
d="M644 -136v60h-644v-60h644z" />
    <glyph glyph-name="grave" unicode="`" horiz-adv-x="342" 
d="M119 831l223 -45l-149 170h-124z" />
    <glyph glyph-name="a" unicode="a" horiz-adv-x="633" 
d="M468 -17l150 117.002l-14 19c-17.333 -12.667 -30.666 -19 -39.999 -19c-20 0 -32.333 13.333 -37 40c-2 10 -3 31 -3 63v246c0 57.333 3 97.666 9 120.999c6 24 20.333 53.333 43 88l-20 13c-20 -21.333 -41.333 -32 -64 -32c-46.667 0 -110.334 21 -191.001 63
c-51.333 -40 -107 -60 -167 -60h-19c-6 0 -11.667 0.333008 -17 1l122 -217l-17 -19c-77.333 -89.333 -116 -169 -116 -239c0 -68.667 36.333 -130.334 109 -185.001l188 151c2.66699 -17.333 5.83398 -33 9.50098 -47s8.16699 -25.667 13.5 -35
c11.333 -19.333 31.666 -42.333 60.999 -69zM234 404.002l150 -63v-173l-91 -73c-58.667 50 -88 102.667 -88 158c0 50.667 9.66699 101 29 151zM143 618.002l241 -81v-168l-135 58z" />
    <glyph glyph-name="b" unicode="b" horiz-adv-x="606" 
d="M76 118v-15c108.667 -18.667 196 -58.667 262 -120c54.667 48.667 125.667 88.667 213 120v389c0 58.667 -5.33301 99 -16 121c-9.33301 22 -35.333 51.667 -78 89l-203 -169v243c0 50 5 87 15 111c11.333 24 32 45.333 62 64l-4 15c-18 -3.33301 -34.167 -7 -48.5 -11
s-27.833 -9.16699 -40.5 -15.5s-24.834 -14.166 -36.501 -23.499s-23.834 -20.666 -36.501 -33.999c-19.333 15.333 -37.666 28.166 -54.999 38.499s-33.666 17.833 -48.999 22.5l-9 -18c26.667 -22 43.667 -42.667 51 -62c7.33301 -16.667 11 -42.334 11 -77.001v-534
c0 -50 -2 -82.333 -6 -97s-14.667 -27 -32 -37zM254 162v336.999l113 97c19.333 -17.333 32 -35.666 38 -54.999c4 -15.333 6 -38.333 6 -69v-377z" />
    <glyph glyph-name="c" unicode="c" horiz-adv-x="452" 
d="M289 -17l163 130l-16 19l-60 -49l-122 56v432l118 -67l70 105l-165 93c-70.667 -70.667 -143.334 -117.667 -218.001 -141v-16h14c18 0 29.333 -4.5 34 -13.5s7 -28.5 7 -58.5v-288c0 -26.667 -1.66699 -46.667 -5 -60c-5.33301 -17.333 -16.666 -33.333 -33.999 -48v-16
c78 -8 149.333 -34 214 -78z" />
    <glyph glyph-name="d" unicode="d" horiz-adv-x="620" 
d="M74 948l-0.00195312 -163.002l176 -135c-29.333 -23.333 -74.666 -42.666 -135.999 -57.999v-316c0 -63.333 -2.33301 -104 -7 -122c-4 -17.333 -15 -34.666 -33 -51.999v-15c24.667 -1.33301 47.834 -4.5 69.501 -9.5s42.167 -11.167 61.5 -18.5s40.5 -17.5 63.5 -30.5
s47.167 -28.167 72.5 -45.5c54.667 42 123.667 79.667 207 113v443c0 33.333 1.33301 55.333 4 66c4 24 13.333 43.333 28 58l-7 24c-30 -10 -53.333 -29 -70 -57zM409.998 98.998l-150 72v419l22.5 16c5.66699 4 10.167 7.33301 13.5 10l114 -84v-433z" />
    <glyph glyph-name="e" unicode="e" horiz-adv-x="528" 
d="M285 -17l206.999 137.997l-14 20l-102 -68c-20 11.333 -40.167 22 -60.5 32s-41.166 19.667 -62.499 29v130l257 215l-172 223c-42.667 -25.333 -85.667 -49.166 -129 -71.499s-87.333 -43.166 -132 -62.499l-8.5 -3.5c-2.33301 -1 -4.83301 -2.16699 -7.5 -3.5l7 -15h5
c18 0 29.333 -4.33301 34 -13s7 -31 7 -67v-252c0 -33.333 -1.66699 -57.666 -5 -72.999c-6 -24 -19.667 -42 -41 -54v-14c66.667 -10.667 139 -40.667 217 -90zM396.999 431.997l-144 -120v303z" />
    <glyph glyph-name="f" unicode="f" horiz-adv-x="388" 
d="M240 -17l149 119l-18 18l-44 -33l-36 27l-35 26v458h94v75h-94v174l119 -30l22 110l-137 35c-32 -27.333 -60.167 -50.166 -84.5 -68.499s-44.833 -32.833 -61.5 -43.5v-177h-53v-75h53v-371c0 -17.333 -0.5 -31.833 -1.5 -43.5s-2.16699 -20.834 -3.5 -27.501
c-4.66699 -23.333 -18 -41.333 -40 -54v-15c60.667 -20 117.667 -54.667 171 -104z" />
    <glyph glyph-name="g" unicode="g" horiz-adv-x="629" 
d="M237 20l-163 -191.003l13 -16c66 19.333 129.333 29 190 29c52.667 0 107 -11.667 163 -35l32 17c62 32.667 102.667 57 122 73s29 36 29 60c0 18 -6.33301 37.333 -19 58c-1.33301 2.66699 -4.83301 8.33398 -10.5 17.001l-23.5 36
c-5.33301 6.66699 -9.5 12.334 -12.5 17.001s-5.16699 8.33398 -6.5 11.001c-12 18 -20.333 34.667 -25 50c-3.33301 16.667 -5 40.667 -5 72v328c19.333 -6 38 -11.5 56 -16.5l52 -14.5v150l-111 -61l-197 98c-75.333 -49.333 -153.333 -78.333 -234 -87v-485z
M315 -54.0029c-15.333 0 -32.999 -1.16699 -52.999 -3.5s-42 -5.83301 -66 -10.5l186 219c3.33301 -42 19.666 -85.333 48.999 -130c30.667 -44 68 -81.333 112 -112l-25 -14c-71.333 34 -139 51 -203 51zM312.001 108.997l-88 65v431l158 -59v-352z" />
    <glyph glyph-name="h" unicode="h" horiz-adv-x="637" 
d="M58 80l119 -96.998l125 92l-45 52v381l108 85c20 -17.333 33 -33.333 39 -48c4 -12 6 -32.333 6 -61v-341c0 -90.667 -13 -153.334 -39 -188.001c-26 -35.333 -89 -77.333 -189 -126l-17 -9l9 -24c150.667 54 251.667 109 303 165c52 54.667 78 136.667 78 246v282
c0 58.667 -6 100.667 -18 126c-10.667 25.333 -38 54.333 -82 87l-198 -162v254c0 40.667 5.66699 71.667 17 93s34 42 68 62l-8 17c-74 -12 -129.333 -40 -166 -84c-38 35.333 -72.333 58.666 -103 69.999l-11 -19c24.667 -21.333 40.667 -41 48 -59
c8 -18 12 -45.333 12 -82v-665z" />
    <glyph glyph-name="i" unicode="i" horiz-adv-x="352" 
d="M205 -17l147 115.001l-17 23l-42 -34l-40 34v439l48 44l-119 98l-117 -94l49 -42v-348c0 -33.333 -1 -54.333 -3 -63c-6 -22.667 -20 -37.334 -42 -44.001v-13c38.667 -24 84 -62.333 136 -115zM231 986.001l-35 -163l35 -3l117 161z" />
    <glyph glyph-name="j" unicode="j" horiz-adv-x="352" 
d="M189 702l-150.999 -113.001l16 -22l46 33c12.667 -11.333 23.167 -21.166 31.5 -29.499s15.166 -14.833 20.499 -19.5c-25.333 -70 -38 -141.333 -38 -214c0 -58 10 -135.333 30 -232c4.66699 -23.333 8.16699 -43.666 10.5 -60.999s3.5 -32 3.5 -44
c0 -74 -34.667 -135 -104 -183l8 -21c79.333 40.667 135.333 83 168 127c32.667 42.667 49 96 49 160c0 12.667 -1 28.167 -3 46.5s-4.66699 39.5 -8 63.5c-10.667 61.333 -16 117.333 -16 168c0 82.667 23 156 69 220c-45.333 29.333 -89.333 69.666 -132 120.999z
M229.001 985.999l-28 -161l37 -3l114 164h-123z" />
    <glyph glyph-name="k" unicode="k" horiz-adv-x="620" 
d="M480 -17l149.999 119l-14 20l-36 -29c-18 18.667 -29.333 47.667 -34 87l-6 42c-5.33301 40.667 -15.333 73.667 -30 99c-13.333 24 -39 54 -77 90c-6.66699 4 -10.667 7.33301 -12 10l152 139l-133 142l-181 -176v261c0 46 3.33301 76.667 10 92
c8.66699 20.667 30.667 42.667 66 66l-4 21c-22 -5.33301 -41.5 -10.833 -58.5 -16.5s-31.167 -11.5 -42.5 -17.5c-22 -11.333 -44.667 -29.333 -68 -54c-26 30 -62 51.667 -108 65l-10 -17c28.667 -19.333 47.334 -39.666 56.001 -60.999
c9.33301 -22.667 14 -55.667 14 -99v-559c0 -30.667 -1 -51 -3 -61c-6.66699 -18.667 -20.667 -32 -42 -40v-19c71.333 -21.333 128 -56 170 -104l180 147l2 -18c4 -32.667 10.333 -57 19 -73c6 -12.667 19.333 -31.334 40 -56.001zM328.999 92l-70 49v135l61 53
c30 -22 51 -43.667 63 -65c12.667 -20 23 -53.667 31 -101zM457.999 491l-199 -179v179l106 99z" />
    <glyph glyph-name="l" unicode="l" horiz-adv-x="373" 
d="M239 -17l134.002 108.998l-19 22l-29 -22l-69 48v629c0 52 4.33301 88 13 108c8.66699 22 28.667 44 60 66l-8 23c-66 -16.667 -118.333 -47 -157 -91c-16.667 14.667 -34.334 27.5 -53.001 38.5s-38.334 20.833 -59.001 29.5l-7 -21
c28 -15.333 46.667 -33.666 56 -54.999c8.66699 -19.333 13 -54 13 -104v-555c0 -30 -2 -50.333 -6 -61c-6 -16.667 -19.667 -30.667 -41 -42v-22c66.667 -17.333 124 -50.666 172 -99.999z" />
    <glyph glyph-name="m" unicode="m" horiz-adv-x="941" 
d="M174 702l-146.997 -116.999l17 -24l4.5 3c1 0.666992 1.83301 1.33398 2.5 2.00098c15.333 9.33301 25.666 14 30.999 14c16 0 26 -10.333 30 -31c0.666992 -4 1.16699 -10.167 1.5 -18.5s0.5 -18.833 0.5 -31.5v-366l-49 -51l124 -99l113 94l-49 51v381l98 83l10 -11
c20.667 -19.333 33.334 -35.333 38.001 -48c5.33301 -12.667 8 -31.667 8 -57v-348l-46 -51l121 -94l115 94l-50 51v381l102 88l51 -57v-353c0 -60 5.33301 -102 16 -126c11.333 -24.667 36.666 -50.667 75.999 -78l135 112l-16 23c-17.333 -13.333 -29.666 -20 -36.999 -20
c-16.667 0 -27 12.667 -31 38c-0.666992 3.33301 -1.16699 9.83301 -1.5 19.5s-0.5 22.167 -0.5 37.5v287c0 36 4.33301 63 13 81c9.33301 19.333 26.666 41.333 51.999 66l-18 19l-56 -54l-100 110l-189 -162c-1.33301 16.667 -4 32 -8 46s-9.83301 27.333 -17.5 40
s-17.667 25.167 -30 37.5s-26.833 25.166 -43.5 38.499l-191 -162v26c0 32 -5 56 -15 72c-4.66699 8.66699 -12.334 18.167 -23.001 28.5s-24.334 22.166 -41.001 35.499z" />
    <glyph glyph-name="n" unicode="n" horiz-adv-x="646" 
d="M172 702l-140 -106.001l16 -22c18 10 29.667 15 35 15c6.66699 0 12 -1.16699 16 -3.5s7.16699 -6.66602 9.5 -12.999s3.83301 -15.5 4.5 -27.5s1 -27.333 1 -46v-363l-55 -52l121 -101l122 98l-48 52v390l98 81l55 -57v-356c0 -60 3.66699 -100.333 11 -121
s27.333 -45.334 60 -74.001c1.33301 -1.33301 3.33301 -3.16602 6 -5.49902l9 -7.5l149 119l-17 28l-6.5 -5c-1.66699 -1.33301 -3.16699 -2.66602 -4.5 -3.99902c-15.333 -10.667 -26.333 -16 -33 -16c-18 0 -29 15.333 -33 46c-0.666992 3.33301 -1 10.333 -1 21v44v241
c0 49.333 4.33301 84.666 13 105.999c8.66699 22.667 28.667 48.667 60 78l-21 22l-66 -64l-104 103l-175 -146c-0.666992 3.33301 -1 9.33301 -1 18c0 27.333 -5.33301 49.333 -16 66c-8 12 -24.667 28.667 -50 50z" />
    <glyph glyph-name="o" unicode="o" horiz-adv-x="578" 
d="M510 93l-0.000976562 505.001c-40.667 10.667 -79.5 24.5 -116.5 41.5s-72.5 37.833 -106.5 62.5c-57.333 -52.667 -124 -91.667 -200 -117v-322c0 -46.667 -1 -75.334 -3 -86.001c-5.33301 -32 -18 -55.667 -38 -71v-17c86.667 -6.66699 173.334 -42 260.001 -106
c46.667 37.333 114.667 74 204 110zM223.999 159.001v431l148 -64v-430z" />
    <glyph glyph-name="p" unicode="p" horiz-adv-x="625" 
d="M30 141l-0.000976562 -48.0039c28.667 -1.33301 56.667 -4.66602 84 -9.99902v-87c0 -41.333 -2.66699 -70.666 -8 -87.999c-8 -22 -27.333 -45.333 -58 -70l7 -18c50.667 18.667 88.334 40 113.001 64c48.667 -42 99.334 -70.667 152.001 -86l12 25
c-28 13.333 -47.5 30.833 -58.5 52.5s-16.5 53.167 -16.5 94.5v69c32 -12.667 66 -31.334 102 -56.001c44.667 48 109.667 93 195 135v348c0 60.667 -7.66699 104.334 -23 131.001c-14.667 25.333 -53 60.333 -115 105l-159 -150c-2 34 -8.66699 61.333 -20 82
c-10.667 20 -32.667 42.667 -66 68l-137 -110l14 -18c13.333 7.33301 22.666 11 27.999 11c25.333 0 38 -29 38 -87v-343c-15.333 -1.33301 -29.833 -3.16602 -43.5 -5.49902s-27.167 -5.16602 -40.5 -8.49902zM412.999 101.996c-23.333 12.667 -48 22.999 -74 30.999
s-53.333 14.333 -82 19v355l82 79c34 -20.667 54.667 -38 62 -52c8 -13.333 12 -39.666 12 -78.999v-353z" />
    <glyph glyph-name="q" unicode="q" horiz-adv-x="612" 
d="M203 -17l179.999 147.003v-128c0 -59.333 -5 -99.333 -15 -120s-33.667 -41.667 -71 -63l4 -21c77.333 13.333 133 41 167 83c42.667 -30 81 -50.667 115 -62l9 19c-32 21.333 -52.667 45.666 -62 72.999c-4.66699 16 -7 47.333 -7 94v429
c0 61.333 3.66699 97.666 11 108.999c12 10 22 17 30 21v21c-47.333 4 -91.333 14.667 -132 32c-20 8.66699 -41.167 20.167 -63.5 34.5s-46.166 31.166 -71.499 50.499c-13.333 -11.333 -28.166 -23 -44.499 -35s-34.833 -23.667 -55.5 -35
c-40.667 -22.667 -77.334 -39 -110.001 -49v-378c0 -64 5.66699 -108 17 -132c12 -22 45 -52 99 -90zM230.999 580.003l152 -75.999v-340l-92 -74c-28 21.333 -45 38.666 -51 51.999c-6 14 -9 41.667 -9 83v355z" />
    <glyph glyph-name="r" unicode="r" horiz-adv-x="473" 
d="M163 702l-142.001 -121.001l17 -20l42 35c16.667 -12.667 27 -27 31 -43c2 -9.33301 3 -26.666 3 -51.999v-286c0 -16 -0.666992 -29.833 -2 -41.5s-3.83301 -22 -7.5 -31s-8.66699 -16.833 -15 -23.5s-14.5 -13 -24.5 -19v-16c57.333 -10 115.333 -43.667 174 -101
l172 138l-20 22l-66 -51l-68 51v400l56 49l83 -104l97 89l-102 127l-128 -115c-21.333 50 -54.666 87.667 -99.999 113z" />
    <glyph glyph-name="s" unicode="s" horiz-adv-x="625" 
d="M219 253l-181 -253.996l19 -16c44.667 36 91 54 139 54c50 0 103.667 -18 161 -54c57.333 51.333 122.666 87.666 195.999 108.999v277l-146 85l121 166c38.667 52.667 58 97 58 133c0 37.333 -16.333 56 -49 56c-28 0 -42 -13.333 -42 -40
c-0.666992 -6.66699 0.5 -12.834 3.5 -18.501s6.5 -11.334 10.5 -17.001s7.83301 -11.5 11.5 -17.5s5.5 -12.667 5.5 -20c0 -30.667 -23.667 -46 -71 -46c-55.333 0 -116.333 17.333 -183 52c-11.333 -16.667 -23.5 -31.334 -36.5 -44.001s-26.167 -23.667 -39.5 -33
c-27.333 -18 -63.666 -34 -108.999 -48v-252zM327 339.004l83.001 -46v-191c-52 28 -98.667 42 -140 42c-28.667 0 -60.334 -6 -95.001 -18zM296.001 360.004l-70 41v190c44.667 -30 95 -45 151 -45c8 0 16.333 0.166992 25 0.5s17.667 0.833008 27 1.5z" />
    <glyph glyph-name="t" unicode="t" horiz-adv-x="383" 
d="M254 885l-200.001 -265v-24h60v-359c0 -45.333 -2.66699 -76 -8 -92c-5.33301 -15.333 -17.666 -30.333 -36.999 -45v-18c64 -17.333 120 -50.333 168 -99l149 123l-21 24l-44 -35l-31.5 23l-35.5 25v453h119v77h-119v212z" />
    <glyph glyph-name="u" unicode="u" horiz-adv-x="648" 
d="M184 702l-146.001 -128.999l19 -21l27 21l30 -21v-344c0 -38.667 -2 -63.334 -6 -74.001c-4 -9.33301 -15 -17.666 -33 -24.999v-19c48 -21.333 100 -57 156 -107l185 169v-15c0 -35.333 4.66699 -63 14 -83c4.66699 -9.33301 11.667 -18.833 21 -28.5
s21 -19.834 35 -30.501c3.33301 -3.33301 9 -7.33301 17 -12l141 107l-21 24c-13.333 -9.33301 -23.666 -14 -30.999 -14c-25.333 0 -38 26.667 -38 80v375l46 43l-118 104l-116 -104l50 -43v-367l-100 -90l-63 51v406l48 43z" />
    <glyph glyph-name="v" unicode="v" horiz-adv-x="634" 
d="M439 702l-182.998 -155.004c-2 26.667 -8.33301 50.334 -19 71.001c-5.33301 10.667 -12.833 22.5 -22.5 35.5s-21.834 27.167 -36.501 42.5c-26 26.667 -39 50 -39 70c0 28 23 59.667 69 95l-14 19c-97.333 -53.333 -146 -114.666 -146 -183.999
c0 -21.333 3.33301 -39.666 10 -54.999c4 -9.33301 13.667 -25.666 29 -48.999c13.333 -20.667 21 -36.667 23 -48c2.66699 -10 4 -34.333 4 -73v-246c0 -42.667 -2.33301 -70.667 -7 -84c-5.33301 -13.333 -16.666 -24 -33.999 -32v-16
c48 -0.666992 91.667 -9.66699 131 -27s81.666 -45 126.999 -83c61.333 57.333 133.666 97.333 216.999 120v343c0 76.667 -6 128.667 -18 156c-12 28 -42.333 61.333 -91 100zM410.002 95.9961l-73.5 34l-80.5 34v351l97 82c26 -25.333 42 -45.333 48 -60
c6 -15.333 9 -45.333 9 -90v-351z" />
    <glyph glyph-name="w" unicode="w" horiz-adv-x="920" 
d="M432 702l-180.001 -157.003c-2 52 -27.667 100.667 -77 146c-30 26.667 -45 53.334 -45 80.001s18 54 54 82c5.33301 5.33301 9 8.33301 11 9l-14 21c-98 -55.333 -147 -114.666 -147 -177.999c0 -34 15.333 -70.333 46 -109
c2.66699 -5.33301 5.33398 -10.166 8.00098 -14.499s5.33398 -8.16602 8.00098 -11.499c12 -18 18 -50.333 18 -97v-261c0 -42 -3 -69.333 -9 -82c-4 -6 -8.33301 -10.333 -13 -13c-0.666992 0 -11.667 -5.66699 -33 -17v-13c99.333 -7.33301 183.666 -42 252.999 -104
c38.667 44.667 85.334 67 140.001 67c52 0 110.667 -22.333 176 -67c47.333 47.333 117.666 86 210.999 116v367c0 63.333 -7 109.666 -21 138.999c-12.667 28 -43 60.333 -91 97l-187 -157c-8 70 -44 122.333 -108 157zM403.999 89.9971l-152 62v358l96 86
c26.667 -20 43 -40 49 -60c4.66699 -12 7 -37 7 -75v-371zM699.999 98.9971l-155 62.999v349l97 85c26 -24 42.667 -44.667 50 -62c5.33301 -17.333 8 -43.666 8 -78.999v-356z" />
    <glyph glyph-name="x" unicode="x" horiz-adv-x="618" 
d="M84 175l-52.001 -120l126 -72l138 289l6.5 -14.5c1.66699 -3.66699 3.16699 -6.16699 4.5 -7.5l65 -131c32.667 -64 72.334 -109.333 119.001 -136l142 113l-22 25c-19.333 -12 -34 -18 -44 -18c-35.333 0 -100.333 112 -195 336l61 129l108 -59l63 120l-143 73
l-108 -226c-15.333 32.667 -30.166 61.167 -44.499 85.5s-28.166 44.833 -41.499 61.5c-26.667 34 -57.334 60.333 -92.001 79l-143 -128l18 -20c1.33301 0.666992 2.66602 1.66699 3.99902 3l4 4c15.333 12.667 28 19 38 19c22.667 0 51 -25.333 85 -76
c34 -51.333 66 -115.333 96 -192l-88 -191z" />
    <glyph glyph-name="y" unicode="y" horiz-adv-x="571" 
d="M164 702l-144.001 -121.001l18 -20l7 6c13.333 11.333 25.333 17 36 17c17.333 0 28 -12 32 -36c0.666992 -3.33301 1 -9.66602 1 -18.999v-37v-314c0 -46 -2.66699 -78 -8 -96c-5.33301 -17.333 -20 -42 -44 -74c-16 -20 -26 -35.333 -30 -46
c-6 -15.333 -9 -33.333 -9 -54c0 -36 12.833 -64 38.5 -84s61.834 -30 108.501 -30s86 7.33301 118 22c33.333 14 50 30.333 50 49c0 8 -3 15 -9 21s-13 9 -21 9c-13.333 0 -30.333 -10.333 -51 -31c-26.667 -26.667 -59.667 -40 -99 -40c-30 0 -54.167 7.5 -72.5 22.5
s-27.5 34.5 -27.5 58.5c0 27.333 9.33301 50.333 28 69c18 18 56.333 44.667 115 80c126 73.333 214.667 140.666 266 201.999c50.667 60.667 76 130.334 76 209.001c0 92.667 -30.667 169.667 -92 231l-195 -155v12c0 36 -6.66699 64.333 -20 85
c-12.667 20.667 -36.667 42 -72 64zM253.999 121.999v382l97 77c36 -51.333 54 -108.333 54 -171c0 -53.333 -14 -106.333 -42 -159c-26.667 -52 -63 -95 -109 -129z" />
    <glyph glyph-name="z" unicode="z" horiz-adv-x="452" 
d="M202 702l-173.002 -131.001l17 -23l71 50l128 -103l-199 -210l18 -15c34.667 18.667 65 28 91 28c30 0 54.333 -10.333 73 -31s28 -48 28 -82c0 -52.667 -28 -104 -84 -154c-34.667 -30.667 -57.334 -53.667 -68.001 -69c-10.667 -16.667 -16 -35.667 -16 -57
c0 -28 10 -51.333 30 -70s45 -28 75 -28c32 0 48 10 48 30c0 13.333 -8.33301 20 -25 20c-4 0 -9 -1 -15 -3l-20 -4c-1.33301 -0.666992 -5 -1 -11 -1c-32.667 0 -49 17.333 -49 52c0 17.333 6.66699 33.333 20 48c14.667 14.667 42.667 33.334 84 56.001
c68.667 39.333 116.667 75 144 107c26.667 30.667 40 68.667 40 114c0 50.667 -17.667 92.667 -53 126c-35.333 34 -78.666 51 -129.999 51c-5.33301 0 -10.666 -0.166992 -15.999 -0.5s-10.666 -0.833008 -15.999 -1.5l181 190l-11 15
c-6.66699 -0.666992 -11.5 -1.16699 -14.5 -1.5s-4.83301 -0.5 -5.5 -0.5c-15.333 0 -41.333 15 -78 45z" />
    <glyph glyph-name="braceleft" unicode="{" horiz-adv-x="612" 
d="M612 -267l-0.00195312 34.999c-58 0 -105.333 19 -142 57c-35.333 36.667 -53 80 -53 130v134c0 94.667 -21.667 159.667 -65 195c-34 28 -101 48.667 -201 62c94.667 16 161.334 39.333 200.001 70c44 34.667 66 87 66 157v136c0 82.667 13.333 139.334 40 170.001
c26.667 34 78.334 51 155.001 51v36c-189.333 0 -284 -83 -284 -249v-124c0 -78 -17.333 -132.333 -52 -163c-29.333 -24 -83.333 -42 -162 -54v-56c82 -9.33301 139 -30 171 -62c28.667 -28 43 -67.667 43 -119v-174c0 -154.667 94.667 -232 284 -232z" />
    <glyph glyph-name="bar" unicode="|" horiz-adv-x="178" 
d="M177 -136l1 1102h-64v-1102h63z" />
    <glyph glyph-name="braceright" unicode="}" horiz-adv-x="612" 
d="M612 320v55.999c-80 12 -133.333 30 -160 54c-34 30.667 -51 85 -51 163v124c0 166 -95.667 249 -287 249v-36c76.667 0 128.667 -16.667 156 -50c28 -33.333 42 -90.333 42 -171v-136c0 -70.667 21.667 -123 65 -157c38.667 -30.667 105 -54 199 -70
c-100 -13.333 -166.667 -34 -200 -62c-42.667 -34.667 -64 -99.667 -64 -195v-134c0 -50 -17.667 -93.333 -53 -130c-38 -38 -86.333 -57 -145 -57v-35c84.667 0 151.667 16.667 201 50c57.333 40 86 100.667 86 182v174c0 50.667 13.667 90.334 41 119.001
c33.333 32 90 52.667 170 62z" />
    <glyph glyph-name="asciitilde" unicode="~" horiz-adv-x="646" 
d="M268 1007l-173 -145l30 -23l70 58l187 -110l198 173l-29 25l-96 -85z" />
    <glyph glyph-name="exclamdown" unicode="&#xa1;" horiz-adv-x="405" 
d="M205 -17l116 113c-57.333 148 -91 327 -101 537h-33c-6 -208 -40.333 -385 -103 -531zM205 679l102 100l-102 102l-100 -102z" />
    <glyph glyph-name="cent" unicode="&#xa2;" horiz-adv-x="516" 
d="M313 226v431.999l114 -61l94 110l-200 109l-8 -6l3 123l-47 -29l6 -122l-11 -7c-144 -115.333 -216 -242.333 -216 -381c0 -145.333 75.667 -248.666 227 -309.999v-59c0 0.666992 -0.5 -5.66602 -1.5 -18.999s-2.16699 -34 -3.5 -62l46 30c-2 42 -3 75.667 -3 101
c6 -1.33301 11 -2.33301 15 -3s7.33301 -1.33398 10 -2.00098l113 130c-8 -1.33301 -15.833 -2.5 -23.5 -3.5s-15.167 -1.5 -22.5 -1.5c-28 0 -58.667 10.333 -92 31zM249 690.999l26 -11.999v-429c-65.333 47.333 -98 113 -98 197c0 79.333 24 160.666 72 243.999z" />
    <glyph glyph-name="sterling" unicode="&#xa3;" horiz-adv-x="885" 
d="M599 910l-330 -163.998c-15.333 -44.667 -23 -83.334 -23 -116.001c0 -29.333 7.66699 -75.333 23 -138h-167l-41 -116h248c28.667 -68 43 -132.667 43 -194c0 -6.66699 -0.166992 -13 -0.5 -19s-0.833008 -12 -1.5 -18c-58.667 -19.333 -112.5 -40.666 -161.5 -63.999
s-93.833 -48.333 -134.5 -75l15 -23c22.667 10.667 47.5 20.167 74.5 28.5s56.5 16.166 88.5 23.499c62.667 14.667 121.667 22 177 22c116 0 238.333 -24.667 367 -74l77 147c-91.333 36.667 -182 55 -272 55c-54.667 0 -117 -9 -187 -27c28.667 40 48.667 74 60 102
c11.333 28.667 17 60 17 94v11c0 4 -0.333008 7.66699 -1 11h195l44 116h-258c-21.333 56.667 -32 108 -32 154c0 47.333 17 98.666 51 153.999l268 -161l103 123z" />
    <glyph glyph-name="currency" unicode="&#xa4;" horiz-adv-x="609" 
d="M528 597l27.001 110.001c-32 9.33301 -65.667 14 -101 14c-42 0 -81 -5.66699 -117 -17s-68.333 -27.666 -97 -48.999s-53.334 -47.5 -74.001 -78.5s-36.334 -66.5 -47.001 -106.5h-87v-65h75v-61c0 -14.667 0.333008 -24.667 1 -30h-76v-64h85
c18.667 -78.667 53.334 -139.667 104.001 -183s115.334 -65 194.001 -65c42 0 84 5.66699 126 17l-24 107c-20.667 -4.66699 -42 -7 -64 -7c-91.333 0 -156 43.667 -194 131h234v64h-252c-0.666992 8 -1.16699 16 -1.5 24s-0.5 15.667 -0.5 23s0.166992 14.666 0.5 21.999
s0.833008 14.666 1.5 21.999h252v65h-233c40.667 90.667 107.667 136 201 136c23.333 0 45.666 -3 66.999 -9z" />
    <glyph glyph-name="yen" unicode="&#xa5;" horiz-adv-x="803" 
d="M81 319l212.999 0.00292969v-319h217v319h170l47 98h-217c1.33301 17.333 2.33301 31.833 3 43.5s1.33398 20.834 2.00098 27.501h180l46 98h-219c14.667 75.333 39.667 140.666 75 195.999c20.667 -11.333 44.167 -22.833 70.5 -34.5s55.5 -23.5 87.5 -35.5
c1.33301 -0.666992 3.5 -1.5 6.5 -2.5s6.16699 -2.5 9.5 -4.5l51 107c-73.333 33.333 -133.333 66.666 -180 99.999c-27.333 -36 -50 -68 -68 -96s-31.667 -52.333 -41 -73c-17.333 -38 -30 -79.667 -38 -125c-4.66699 -27.333 -8.16699 -62.333 -10.5 -105
s-3.5 -93.334 -3.5 -152.001v-332h-49v287c0 102 -5.33301 190.167 -16 264.5s-27 135.5 -49 183.5s-50 83.667 -84 107s-74.333 35 -121 35c-82 0 -142 -44.333 -180 -133l17 -16c34 34.667 67 52 99 52c40 0 75.667 -20.667 107 -62s52.333 -95 63 -161h-155l-56 -98h227
c2.66699 -26.667 4.66699 -50.334 6 -71.001h-163z" />
    <glyph glyph-name="brokenbar" unicode="&#xa6;" horiz-adv-x="360" 
d="M185 329h129v323h-129v-323zM185 -149h129v287h-129v-287z" />
    <glyph glyph-name="section" unicode="&#xa7;" horiz-adv-x="501" 
d="M380 106c54 74.667 80.999 126.666 80.999 155.999c0 26 -9.33301 48.333 -28 67l-48.5 38c-15 11.333 -29.167 21.333 -42.5 30l-91 63c-24 16.667 -42 29.667 -54 39c-26.667 20 -40 37.667 -40 53c0 12.667 7.33301 27.667 22 45c14.667 18 28 27 40 27
c8.66699 0 17.667 -3.33301 27 -10l54 -39l51 -38l66 90l-105.5 72c-27.667 18 -48.167 30.667 -61.5 38c-123.333 -106 -185 -188.667 -185 -248c0 -26 17.667 -54.667 53 -86c-27.333 -34 -45 -56.667 -53 -68c-19.333 -30.667 -29 -56.334 -29 -77.001
c0 -34.667 37 -80.334 111 -137.001l79.5 -58c21 -15.333 37.167 -26.666 48.5 -33.999c29.333 -20 48.833 -36.167 58.5 -48.5s14.5 -25.166 14.5 -38.499c0 -8 -1.83301 -16.333 -5.5 -25s-8.16699 -17.167 -13.5 -25.5s-11.666 -16.166 -18.999 -23.499
s-14.333 -13.333 -21 -18c-89.333 35.333 -134 66.333 -134 93c0 0.666992 5.66699 13.334 17 38.001l-31 26l-53 -61c-34.667 -39.333 -52 -63 -52 -71c0 -5.33301 6 -13 18 -23c68 -56.667 130 -96.334 186 -119.001c10 8.66699 17.5 15 22.5 19l7.5 6
c110.667 92.667 166 175 166 247c0 30 -18.667 63.667 -56 101zM287.999 282.999c58 -42 87 -69.667 87 -83c0 -12 -11 -33.333 -33 -64c-141.333 105.333 -212 166.333 -212 183c0 9.33301 9.33301 27.333 28 54l83.5 -57.5z" />
    <glyph glyph-name="dieresis" unicode="&#xa8;" horiz-adv-x="630" 
d="M184 964l-89 -89l89 -89l88 89zM448 964l-90 -89l90 -89l88 89z" />
    <glyph glyph-name="copyright" unicode="&#xa9;" horiz-adv-x="589" 
d="M298 654c-82 0 -149.335 -25.998 -202.002 -77.998c-52.667 -50.667 -79 -117.334 -79 -200.001c0 -42.667 10.333 -84.334 31 -125.001c24 -48 57.667 -85.167 101 -111.5s92 -39.5 146 -39.5c46.667 0 88.667 9.33301 126 28c46.667 24 83.334 58.167 110.001 102.5
s40 92.833 40 145.5c0 74.667 -26.667 139.667 -80 195s-117.666 83 -192.999 83zM296.998 600.002c60.667 -1.33301 111.667 -23.332 153 -65.999c41.333 -43.333 62 -96 62 -158c0 -64.667 -20.333 -118.334 -61 -161.001c-40 -42 -92 -63 -156 -63
c-62 0 -114 21.667 -156 65c-42 44 -63 97 -63 159c0 64 21 117.667 63 161c42 44 94.667 65 158 63zM437.998 348.003h-58.0049c-5.33301 -44 -32.666 -66 -81.999 -66c-26.667 0 -47 10 -61 30c-12.667 16.667 -19 38.667 -19 66c0 28.667 6.83301 52.167 20.5 70.5
s33.5 27.5 59.5 27.5c44.667 0 71.334 -17.333 80.001 -52h57c-4 36 -19 64.333 -45 85s-57 31 -93 31c-23.333 0 -44.333 -4 -63 -12s-34.667 -19.167 -48 -33.5s-23.666 -31.333 -30.999 -51s-11 -41.167 -11 -64.5c0 -48 13.667 -86.833 41 -116.5
s64.333 -44.5 111 -44.5c40.667 0 73.834 11.667 99.501 35s39.834 55 42.501 95z" />
    <glyph glyph-name="guillemotleft" unicode="&#xab;" horiz-adv-x="598" 
d="M245 82l82 81l-177 247l181 219l-40 36l-243 -306zM465 82l82 81l-176 247l181 219l-41 36l-243 -306z" />
    <glyph glyph-name="logicalnot" unicode="&#xac;" horiz-adv-x="755" 
d="M755 -239l-625 1210l-61 -30l625 -1211z" />
    <glyph glyph-name="registered" unicode="&#xae;" horiz-adv-x="589" 
d="M298 654c-82 0 -149.335 -25.998 -202.002 -77.998c-52.667 -50.667 -79 -117.334 -79 -200.001c0 -42.667 10.333 -84.334 31 -125.001c24 -48 57.667 -85.167 101 -111.5s92 -39.5 146 -39.5c46.667 0 88.667 9.33301 126 28c46.667 24 83.334 58.167 110.001 102.5
s40 92.833 40 145.5c0 74.667 -26.667 139.667 -80 195s-117.666 83 -192.999 83zM296.998 600.002c60.667 -1.33301 111.668 -23.332 153.001 -65.999c41.333 -43.333 62 -96 62 -158c0 -64.667 -20.333 -118.334 -61 -161.001c-40 -42 -92 -63 -156 -63
c-64.667 0 -117.334 21 -158.001 63c-40.667 41.333 -61 95 -61 161c0 64 21 117.667 63 161c42 44 94.667 65 158 63zM176.999 533.003l-0.00195312 -308h74v126h34c24.667 0 42 -8.66699 52 -26c2.66699 -5.33301 4.83398 -13 6.50098 -23s2.83398 -22.333 3.50098 -37
c1.33301 -22 3.66602 -35.333 6.99902 -40h70c-4 8 -6.66699 23.667 -8 47c-0.666992 14.667 -1.66699 27 -3 37s-2.66602 17.667 -3.99902 23c-6 20 -19.333 33.333 -40 40c34 14.667 51 39.667 51 75c0 57.333 -37.333 86 -112 86h-131zM250.997 488.003h45
c34 0 51 -15.667 51 -47s-18 -47 -54 -47h-42v94z" />
    <glyph glyph-name="degree" unicode="&#xb0;" horiz-adv-x="454" 
d="M95 892c0 -69.333 43.667 -118 131 -146c42 17.333 74.667 40.666 98 69.999s35 61 35 95c0 72 -44.333 122 -133 150c-87.333 -45.333 -131 -101.666 -131 -168.999zM304 878c0 -29.333 -11.333 -53.334 -34 -72.001c-80.667 22.667 -121 60.667 -121 114
c0 30.667 10.667 57.334 32 80.001c38 -8 68 -22.833 90 -44.5s33 -47.5 33 -77.5z" />
    <glyph glyph-name="twosuperior" unicode="&#xb2;" horiz-adv-x="673" 
d="M400 216c0 -38.667 -4 -64.3311 -12 -76.998c-3.33301 -4.66699 -10 -11.334 -20 -20.001s-23.667 -19.334 -41 -32.001l-36 27l-35 26v458h144v-382zM526 -16.9971l148 119.003l-18 18l-44 -33c-24 19.333 -47.667 37 -71 53v458h94v75h-94v174l119 -30l23 110l-137 35
l-85 -68c-24 -18.667 -44.333 -33.334 -61 -44.001v-177h-144v174l119 -30l22 110l-137 35l-84.5 -68c-24.333 -18.667 -44.833 -33.334 -61.5 -44.001v-177h-53v-75h53v-371c0 -17.333 -0.5 -31.833 -1.5 -43.5s-2.16699 -20.834 -3.5 -27.501
c-4.66699 -23.333 -18 -41.333 -40 -54v-15c60.667 -20 117.667 -54.667 171 -104l125 100c55.333 -18.667 109 -52 161 -100z" />
    <glyph glyph-name="threesuperior" unicode="&#xb3;" horiz-adv-x="663" 
d="M372 119l-1 1l-44 -33l-36 27l-35 26v455h140v-358v-40c0 -10 -0.333008 -17.333 -1 -22c-3.33301 -25.333 -11 -44 -23 -56zM536 885l-186 -246.001v34h-94v174l119 -30l22 110l-137 35c-32 -27.333 -60.167 -50.166 -84.5 -68.499s-44.833 -32.833 -61.5 -43.5v-177
h-53v-78h53v-368c0 -17.333 -0.5 -31.833 -1.5 -43.5s-2.16699 -20.834 -3.5 -27.501c-4.66699 -23.333 -18 -41.333 -40 -54v-15c60.667 -20 117.667 -54.667 171 -104l120 97c62 -19.333 114.667 -51.666 158 -96.999l150 123l-21 24l-44 -35l-31.5 24
c-11 8 -22.833 16 -35.5 24v453h119v77h-119v212z" />
    <glyph glyph-name="acute" unicode="&#xb4;" horiz-adv-x="394" 
d="M218 955l-150 -170l223 45l50 125h-123z" />
    <glyph glyph-name="paragraph" unicode="&#xb6;" horiz-adv-x="526" 
d="M480 614h52v48h-253c-146.667 0 -220 -57.333 -220 -172c0 -52 16.167 -92.833 48.5 -122.5s74.833 -44.5 127.5 -44.5h18v-428h64v719h99v-719h64v719z" />
    <glyph glyph-name="cedilla" unicode="&#xb8;" horiz-adv-x="260" 
d="M238 12h-60l-153 -129c56 -27.333 84 -61 84 -101c0 -13.333 -7.33301 -33.333 -22 -60l5 -10c56.667 30 85 68 85 114c0 24.667 -18.333 55 -55 91z" />
    <glyph glyph-name="onesuperior" unicode="&#xb9;" horiz-adv-x="684" 
d="M552 140l0.000976562 706.999l119 -30l22 110l-137 35c-32 -27.333 -60.167 -50.166 -84.5 -68.499s-44.833 -32.833 -61.5 -43.5v-177h-53v-75h53v-358c0 -48 -4 -79 -12 -93c-4.66699 -8.66699 -28.334 -28.667 -71.001 -60l-36 27l-35 26v707l119 -30l22 110l-137 35
c-32 -27.333 -60.167 -50.166 -84.5 -68.499s-44.833 -32.833 -61.5 -43.5v-177h-53v-75h53v-371c0 -17.333 -0.5 -31.833 -1.5 -43.5s-2.16699 -20.834 -3.5 -27.501c-4.66699 -23.333 -18 -41.333 -40 -54v-15c60.667 -20 117.667 -54.667 171 -104l129 103
c60 -20.667 115.667 -55 167 -103l149 119l-18 18l-44 -33l-36 27z" />
    <glyph glyph-name="ordmasculine" unicode="&#xba;" horiz-adv-x="671" 
d="M540 885l-201 -265v-24h61v-343c0 -74 -10 -118.333 -30 -133l-25 -19.5l-18 -13.5l-36 27l-35 26v707l119 -30l22 110l-137 35c-32 -27.333 -60.167 -50.166 -84.5 -68.499s-44.833 -32.833 -61.5 -43.5v-177h-53v-75h53v-371c0 -17.333 -0.5 -31.833 -1.5 -43.5
s-2.16699 -20.834 -3.5 -27.501c-4.66699 -23.333 -18 -41.333 -40 -54v-15c60.667 -20 117.667 -54.667 171 -104l121 97c61.333 -16.667 115 -49 161 -97l150 123l-22 24l-44 -35c-19.333 16 -41.333 32 -66 48v453h119v77h-119v212z" />
    <glyph glyph-name="guillemotright" unicode="&#xbb;" horiz-adv-x="598" 
d="M157 665l-81 -81l176 -247l-179 -219l38 -36l243 306zM377 665l-80 -81l175 -247l-181 -219l40 -36l245 306z" />
    <glyph glyph-name="onequarter" unicode="&#xbc;" horiz-adv-x="1332" 
d="M256 140v707l119 -30l22 110l-137 35c-32 -27.333 -60.167 -50.166 -84.5 -68.499s-44.833 -32.833 -61.5 -43.5v-177h-53v-75h53v-371c0 -17.333 -0.5 -31.833 -1.5 -43.5s-2.16699 -20.834 -3.5 -27.501c-4.66699 -23.333 -18 -41.333 -40 -54v-15
c60.667 -20 117.667 -54.667 171 -104l149 119l-18 18l-44 -33l-36 27zM810 127c-36 -27.333 -66.999 -48.335 -92.999 -63.002l-147 75v432l117 -67l70 105l-165 93c-70.667 -70.667 -143 -117.667 -217 -141v-16c26 0 42 -5 48 -15c4 -6 6 -25 6 -57v-288
c0 -26.667 -1.66699 -46.667 -5 -60c-4.66699 -17.333 -16 -33.333 -34 -48v-16c92 -10 174 -39 246 -87l138 89l99 -80l125 92l-46 52v381l109 85c19.333 -15.333 32 -31 38 -47c4.66699 -11.333 7 -32 7 -62v-341c0 -60 -4.66699 -106 -14 -138
c-13.333 -40 -42.666 -75.667 -87.999 -107c-21.333 -15.333 -63.333 -38.333 -126 -69l-17 -9l8 -24c40 14.667 76 28.834 108 42.501s60 27.167 84 40.5c36 19.333 66.333 39.833 91 61.5s43.667 44.834 57 69.501c28 48.667 42 114.334 42 197.001v282
c0 57.333 -5.66699 98 -17 122c-11.333 27.333 -39 57.666 -83 90.999l-199 -162v254c0 40.667 5.66699 71.667 17 93c12 21.333 35 42 69 62l-8 17c-74.667 -12 -130.334 -40 -167.001 -84c-38.667 35.333 -72.667 58.666 -102 69.999l-12 -19
c25.333 -21.333 41.666 -41.666 48.999 -60.999c8 -19.333 12 -46 12 -80v-665z" />
    <glyph glyph-name="onehalf" unicode="&#xbd;" horiz-adv-x="1020" 
d="M495 127c-36 -27.333 -66.998 -48.335 -92.998 -63.002l-148 75v432l118 -67l70 105l-165 93c-70.667 -70.667 -143.334 -117.667 -218.001 -141v-16c26.667 0 43 -5 49 -15c4 -6 6 -25 6 -57v-288c0 -26.667 -1.66699 -46.667 -5 -60
c-4.66699 -17.333 -16 -33.333 -34 -48v-16c92 -10 174 -39 246 -87l138 89l99 -80l125 92l-46 52v381l109 85c19.333 -15.333 32 -31 38 -47c4.66699 -11.333 7 -32 7 -62v-341c0 -61.333 -5 -107.333 -15 -138c-13.333 -40 -42.666 -75.667 -87.999 -107
c-20 -15.333 -62 -38.333 -126 -69l-16 -9l8 -24c40 14.667 76 28.834 108 42.501s60 27.167 84 40.5c36 19.333 66.333 39.833 91 61.5s43.667 44.834 57 69.501c28 48.667 42 114.334 42 197.001v282c0 57.333 -5.66699 98 -17 122c-11.333 27.333 -39 57.666 -83 90.999
l-199 -162v254c0 40.667 5.66699 71.667 17 93c12 21.333 35 42 69 62l-8 17c-74.667 -12 -130.334 -40 -167.001 -84c-38.667 35.333 -72.667 58.666 -102 69.999l-12 -19c25.333 -21.333 41.666 -41.666 48.999 -60.999c8 -19.333 12 -46 12 -80v-665z" />
    <glyph glyph-name="threequarters" unicode="&#xbe;" horiz-adv-x="986" 
d="M842 -17l150 118.999l-15 20l-35 -29c-14.667 14.667 -25 34.667 -31 60c0 1.33301 -0.833008 7.83301 -2.5 19.5s-4.16699 28.167 -7.5 49.5c-6 44 -17 79.333 -33 106c-14 24 -38.667 51.667 -74 83c-2.66699 2 -5 3.83301 -7 5.5s-3.66699 3.16699 -5 4.5l153 139
l-134 142l-180 -176v261c0 46.667 3.33301 78 10 94c8.66699 20.667 30.667 42 66 64l-5 21c-41.333 -10 -72.333 -20 -93 -30c-26.667 -12.667 -52 -32 -76 -58c-26 30 -62 51.667 -108 65l-10 -17c30.667 -19.333 50.667 -42.333 60 -69c7.33301 -20 11 -50.333 11 -91
v-559c0 -28.667 -1 -47.334 -3 -56.001c-4.66699 -20 -15.334 -33.333 -32.001 -40v-2l-65 -26l-122 56v432l118 -67l70 105l-165 93c-70.667 -70.667 -143.334 -117.667 -218.001 -141v-16h14c20.667 0 33.334 -7.33301 38.001 -22c2 -6 3 -22.667 3 -50v-288
c0 -26.667 -1.66699 -46.667 -5 -60c-4.66699 -17.333 -16 -33.333 -34 -48v-16c78 -8 149.333 -34 214 -78l155 94c65.333 -19.333 117.333 -50.666 156 -93.999l180 147c2.66699 -19.333 5.33398 -35.666 8.00098 -48.999s5.66699 -24 9 -32
c6.66699 -16 21.667 -38 45 -66zM691 91.999l-70 49v135l60 53c32 -23.333 54.333 -47 67 -71c11.333 -21.333 20.333 -53 27 -95zM819 490.999l-198 -179v179l106 99z" />
    <glyph glyph-name="questiondown" unicode="&#xbf;" horiz-adv-x="454" 
d="M345 -17l101.002 172.006l-17 9c-32.667 -30.667 -64 -46 -94 -46s-55.333 10.333 -76 31c-21.333 21.333 -32 46.666 -32 75.999c0 28.667 6.66699 60 20 94l36 88c24 58.667 36 122.667 36 192c0 2 -0.5 6.16699 -1.5 12.5s-1.5 11.833 -1.5 16.5h-26l-3 -22
c-5.33301 -30.667 -10.333 -56.334 -15 -77.001s-9.33398 -36.334 -14.001 -47.001c-12 -30.667 -35.333 -66.334 -70 -107.001c-41.333 -48 -68.333 -85 -81 -111c-13.333 -26.667 -20 -55.334 -20 -86.001c0 -62 22.167 -109.833 66.5 -143.5
s108.166 -50.834 191.499 -51.501zM306.002 680.006l99 100l-99 101l-101 -101z" />
    <glyph glyph-name="Agrave" unicode="&#xc0;" horiz-adv-x="930" 
d="M768 -23l161.999 136.001l-24 26c-25.333 -21.333 -42.666 -32 -51.999 -32c-14.667 0 -24.667 7.66699 -30 23c-2.66699 7.33301 -4.83398 19.166 -6.50098 35.499s-3.16699 36.833 -4.5 61.5l-22 482c-2 10.667 -3 28 -3 52c0 48.667 7 84.667 21 108
c7.33301 11.333 18.333 23.166 33 35.499s33.334 24.833 56.001 37.5l-16 24c-14.667 -6.66699 -27.667 -13.167 -39 -19.5s-21 -12.166 -29 -17.499c-7.33301 -5.33301 -16.666 -13 -27.999 -23l-40 -37c-3.33301 -3.33301 -6 -5.66602 -8 -6.99902
s-3.33301 -2.33301 -4 -3c-104.667 74.667 -206.334 112 -305.001 112c-96 0 -180 -34 -252 -102c-72 -67.333 -108 -146 -108 -236c0 -56.667 15.667 -109.834 47 -159.501s76 -93.5 134 -131.5l-103 -148c-31.333 -45.333 -51.333 -77.333 -60 -96
c-8.66699 -18 -13 -37.333 -13 -58c0 -15.333 4.83301 -29 14.5 -41s20.834 -18 33.501 -18c24 0 36 11 36 33c0 10.667 -4.66699 23.667 -14 39s-14 26.666 -14 33.999c0 8 3.16699 15.167 9.5 21.5s13.833 9.5 22.5 9.5c49.333 0 141.666 -47 276.999 -141l236 188l3 -37
c2 -39.333 8.66699 -68.666 20 -87.999c10.667 -18 34 -39 70 -63zM267.999 315.001h403l3 -110l-138 -107l-326 136zM599.999 792.001c8 -5.33301 16 -11.167 24 -17.5l25 -20.5l14 -340h-326zM382.999 679c25.333 0 52.3359 -9.66699 81.0029 -29l-194 -277
c-98.667 68.667 -148 149 -148 241c0 67.333 27 124 81 170c53.333 46.667 119.666 70 198.999 70c63.333 0 120.666 -15 171.999 -45l-40 -59c-40 10.667 -75.667 16 -107 16c-76.667 0 -132.334 -44.333 -167.001 -133l24 -11c30.667 38 63.667 57 99 57zM458.002 1100
l223 -45l-149 170h-123z" />
    <glyph glyph-name="Aacute" unicode="&#xc1;" horiz-adv-x="930" 
d="M768 -23l161.999 136.001l-24 26c-25.333 -21.333 -42.666 -32 -51.999 -32c-14.667 0 -24.667 7.66699 -30 23c-2.66699 7.33301 -4.83398 19.166 -6.50098 35.499s-3.16699 36.833 -4.5 61.5l-22 482c-2 10.667 -3 28 -3 52c0 48.667 7 84.667 21 108
c7.33301 11.333 18.333 23.166 33 35.499s33.334 24.833 56.001 37.5l-16 24c-14.667 -6.66699 -27.667 -13.167 -39 -19.5s-21 -12.166 -29 -17.499c-7.33301 -5.33301 -16.666 -13 -27.999 -23l-40 -37c-3.33301 -3.33301 -6 -5.66602 -8 -6.99902
s-3.33301 -2.33301 -4 -3c-104.667 74.667 -206.334 112 -305.001 112c-96 0 -180 -34 -252 -102c-72 -67.333 -108 -146 -108 -236c0 -56.667 15.667 -109.834 47 -159.501s76 -93.5 134 -131.5l-103 -148c-31.333 -45.333 -51.333 -77.333 -60 -96
c-8.66699 -18 -13 -37.333 -13 -58c0 -15.333 4.83301 -29 14.5 -41s20.834 -18 33.501 -18c24 0 36 11 36 33c0 10.667 -4.66699 23.667 -14 39s-14 26.666 -14 33.999c0 8 3.16699 15.167 9.5 21.5s13.833 9.5 22.5 9.5c49.333 0 141.666 -47 276.999 -141l236 188l3 -37
c2 -39.333 8.66699 -68.666 20 -87.999c10.667 -18 34 -39 70 -63zM267.999 315.001h403l3 -110l-138 -107l-326 136zM599.999 792.001c8 -5.33301 16 -11.167 24 -17.5l25 -20.5l14 -340h-326zM382.999 679c25.333 0 52.3359 -9.66699 81.0029 -29l-194 -277
c-98.667 68.667 -148 149 -148 241c0 67.333 27 124 81 170c53.333 46.667 119.666 70 198.999 70c63.333 0 120.666 -15 171.999 -45l-40 -59c-40 10.667 -75.667 16 -107 16c-76.667 0 -132.334 -44.333 -167.001 -133l24 -11c30.667 38 63.667 57 99 57zM712.002 1224
l-150 -170l224 45l50 125h-124z" />
    <glyph glyph-name="Acircumflex" unicode="&#xc2;" horiz-adv-x="930" 
d="M768 -23l161.999 136.001l-24 26c-25.333 -21.333 -42.666 -32 -51.999 -32c-14.667 0 -24.667 7.66699 -30 23c-2.66699 7.33301 -4.83398 19.166 -6.50098 35.499s-3.16699 36.833 -4.5 61.5l-22 482c-2 10.667 -3 28 -3 52c0 48.667 7 84.667 21 108
c7.33301 11.333 18.333 23.166 33 35.499s33.334 24.833 56.001 37.5l-16 24c-14.667 -6.66699 -27.667 -13.167 -39 -19.5s-21 -12.166 -29 -17.499c-7.33301 -5.33301 -16.666 -13 -27.999 -23l-40 -37c-3.33301 -3.33301 -6 -5.66602 -8 -6.99902
s-3.33301 -2.33301 -4 -3c-104.667 74.667 -206.334 112 -305.001 112c-96 0 -180 -34 -252 -102c-72 -67.333 -108 -146 -108 -236c0 -56.667 15.667 -109.834 47 -159.501s76 -93.5 134 -131.5l-103 -148c-31.333 -45.333 -51.333 -77.333 -60 -96
c-8.66699 -18 -13 -37.333 -13 -58c0 -15.333 4.83301 -29 14.5 -41s20.834 -18 33.501 -18c24 0 36 11 36 33c0 10.667 -4.66699 23.667 -14 39s-14 26.666 -14 33.999c0 8 3.16699 15.167 9.5 21.5s13.833 9.5 22.5 9.5c49.333 0 141.666 -47 276.999 -141l236 188l3 -37
c2 -39.333 8.66699 -68.666 20 -87.999c10.667 -18 34 -39 70 -63zM267.999 315.001h403l3 -110l-138 -107l-326 136zM599.999 792.001c8 -5.33301 16 -11.167 24 -17.5l25 -20.5l14 -340h-326zM382.999 679c25.333 0 52.3359 -9.66699 81.0029 -29l-194 -277
c-98.667 68.667 -148 149 -148 241c0 67.333 27 124 81 170c53.333 46.667 119.666 70 198.999 70c63.333 0 120.666 -15 171.999 -45l-40 -59c-40 10.667 -75.667 16 -107 16c-76.667 0 -132.334 -44.333 -167.001 -133l24 -11c30.667 38 63.667 57 99 57zM637.002 1281
l-203 -212l31 -15l111 111l208 -111l90 91z" />
    <glyph glyph-name="Atilde" unicode="&#xc3;" horiz-adv-x="930" 
d="M768 -23l161.999 136.001l-24 26c-25.333 -21.333 -42.666 -32 -51.999 -32c-14.667 0 -24.667 7.66699 -30 23c-2.66699 7.33301 -4.83398 19.166 -6.50098 35.499s-3.16699 36.833 -4.5 61.5l-22 482c-2 10.667 -3 28 -3 52c0 48.667 7 84.667 21 108
c7.33301 11.333 18.333 23.166 33 35.499s33.334 24.833 56.001 37.5l-16 24c-14.667 -6.66699 -27.667 -13.167 -39 -19.5s-21 -12.166 -29 -17.499c-7.33301 -5.33301 -16.666 -13 -27.999 -23l-40 -37c-3.33301 -3.33301 -6 -5.66602 -8 -6.99902
s-3.33301 -2.33301 -4 -3c-104.667 74.667 -206.334 112 -305.001 112c-96 0 -180 -34 -252 -102c-72 -67.333 -108 -146 -108 -236c0 -56.667 15.667 -109.834 47 -159.501s76 -93.5 134 -131.5l-103 -148c-31.333 -45.333 -51.333 -77.333 -60 -96
c-8.66699 -18 -13 -37.333 -13 -58c0 -15.333 4.83301 -29 14.5 -41s20.834 -18 33.501 -18c24 0 36 11 36 33c0 10.667 -4.66699 23.667 -14 39s-14 26.666 -14 33.999c0 8 3.16699 15.167 9.5 21.5s13.833 9.5 22.5 9.5c49.333 0 141.666 -47 276.999 -141l236 188l3 -37
c2 -39.333 8.66699 -68.666 20 -87.999c10.667 -18 34 -39 70 -63zM267.999 315.001h403l3 -110l-138 -107l-326 136zM599.999 792.001c8 -5.33301 16 -11.167 24 -17.5l25 -20.5l14 -340h-326zM382.999 679c25.333 0 52.3359 -9.66699 81.0029 -29l-194 -277
c-98.667 68.667 -148 149 -148 241c0 67.333 27 124 81 170c53.333 46.667 119.666 70 198.999 70c63.333 0 120.666 -15 171.999 -45l-40 -59c-40 10.667 -75.667 16 -107 16c-76.667 0 -132.334 -44.333 -167.001 -133l24 -11c30.667 38 63.667 57 99 57zM551.002 1278
l-174 -144l30 -22l71 56l187 -109l197 173l-30 24l-94 -84z" />
    <glyph glyph-name="Adieresis" unicode="&#xc4;" horiz-adv-x="930" 
d="M768 -23l161.999 136.001l-24 26c-25.333 -21.333 -42.666 -32 -51.999 -32c-14.667 0 -24.667 7.66699 -30 23c-2.66699 7.33301 -4.83398 19.166 -6.50098 35.499s-3.16699 36.833 -4.5 61.5l-22 482c-2 10.667 -3 28 -3 52c0 48.667 7 84.667 21 108
c7.33301 11.333 18.333 23.166 33 35.499s33.334 24.833 56.001 37.5l-16 24c-14.667 -6.66699 -27.667 -13.167 -39 -19.5s-21 -12.166 -29 -17.499c-7.33301 -5.33301 -16.666 -13 -27.999 -23l-40 -37c-3.33301 -3.33301 -6 -5.66602 -8 -6.99902
s-3.33301 -2.33301 -4 -3c-104.667 74.667 -206.334 112 -305.001 112c-96 0 -180 -34 -252 -102c-72 -67.333 -108 -146 -108 -236c0 -56.667 15.667 -109.834 47 -159.501s76 -93.5 134 -131.5l-103 -148c-31.333 -45.333 -51.333 -77.333 -60 -96
c-8.66699 -18 -13 -37.333 -13 -58c0 -15.333 4.83301 -29 14.5 -41s20.834 -18 33.501 -18c24 0 36 11 36 33c0 10.667 -4.66699 23.667 -14 39s-14 26.666 -14 33.999c0 8 3.16699 15.167 9.5 21.5s13.833 9.5 22.5 9.5c49.333 0 141.666 -47 276.999 -141l236 188l3 -37
c2 -39.333 8.66699 -68.666 20 -87.999c10.667 -18 34 -39 70 -63zM267.999 315.001h403l3 -110l-138 -107l-326 136zM599.999 792.001c8 -5.33301 16 -11.167 24 -17.5l25 -20.5l14 -340h-326zM382.999 679c25.333 0 52.3359 -9.66699 81.0029 -29l-194 -277
c-98.667 68.667 -148 149 -148 241c0 67.333 27 124 81 170c53.333 46.667 119.666 70 198.999 70c63.333 0 120.666 -15 171.999 -45l-40 -59c-40 10.667 -75.667 16 -107 16c-76.667 0 -132.334 -44.333 -167.001 -133l24 -11c30.667 38 63.667 57 99 57zM509.002 1234
l-89 -89l89 -89l89 89zM773.002 1234l-90 -89l90 -89l88 89z" />
    <glyph glyph-name="Aring" unicode="&#xc5;" horiz-adv-x="930" 
d="M768 -23l161.999 136.001l-24 26c-25.333 -21.333 -42.666 -32 -51.999 -32c-14.667 0 -24.667 7.66699 -30 23c-2.66699 7.33301 -4.83398 19.166 -6.50098 35.499s-3.16699 36.833 -4.5 61.5l-22 482c-2 10.667 -3 28 -3 52c0 48.667 7 84.667 21 108
c7.33301 11.333 18.333 23.166 33 35.499s33.334 24.833 56.001 37.5l-16 24c-14.667 -6.66699 -27.667 -13.167 -39 -19.5s-21 -12.166 -29 -17.499c-7.33301 -5.33301 -16.666 -13 -27.999 -23l-40 -37c-3.33301 -3.33301 -6 -5.66602 -8 -6.99902
s-3.33301 -2.33301 -4 -3c-104.667 74.667 -206.334 112 -305.001 112c-96 0 -180 -34 -252 -102c-72 -67.333 -108 -146 -108 -236c0 -56.667 15.667 -109.834 47 -159.501s76 -93.5 134 -131.5l-103 -148c-31.333 -45.333 -51.333 -77.333 -60 -96
c-8.66699 -18 -13 -37.333 -13 -58c0 -15.333 4.83301 -29 14.5 -41s20.834 -18 33.501 -18c24 0 36 11 36 33c0 10.667 -4.66699 23.667 -14 39s-14 26.666 -14 33.999c0 8 3.16699 15.167 9.5 21.5s13.833 9.5 22.5 9.5c49.333 0 141.666 -47 276.999 -141l236 188l3 -37
c2 -39.333 8.66699 -68.666 20 -87.999c10.667 -18 34 -39 70 -63zM267.999 315.001h403l3 -110l-138 -107l-326 136zM599.999 792.001c8 -5.33301 16 -11.167 24 -17.5l25 -20.5l14 -340h-326zM382.999 679c25.333 0 52.3359 -9.66699 81.0029 -29l-194 -277
c-98.667 68.667 -148 149 -148 241c0 67.333 27 124 81 170c53.333 46.667 119.666 70 198.999 70c63.333 0 120.666 -15 171.999 -45l-40 -59c-40 10.667 -75.667 16 -107 16c-76.667 0 -132.334 -44.333 -167.001 -133l24 -11c30.667 38 63.667 57 99 57zM377.002 1203
c0 -68 44 -117 132 -147c42 18 74.667 41.5 98 70.5s35 60.5 35 94.5c0 73.333 -44.333 123.333 -133 150c-88 -46 -132 -102 -132 -168zM586.002 1189c0 -29.333 -11 -53.333 -33 -72c-38 10 -67.667 25.333 -89 46s-32 43.667 -32 69c0 29.333 10.667 55.333 32 78
c38 -8 67.833 -22.667 89.5 -44s32.5 -47 32.5 -77z" />
    <glyph glyph-name="AE" unicode="&#xc6;" horiz-adv-x="1509" 
d="M268 315h403l3 -110l-138 -107l-326 136zM600 792c8 -5.33301 16 -11.167 24 -17.5l25 -20.5l14 -340h-326zM383 678.999c25.333 0 52.3359 -9.66699 81.0029 -29l-194 -277c-98.667 68.667 -148 149 -148 241c0 67.333 27 124 81 170
c53.333 46.667 119.666 70 198.999 70c63.333 0 120.666 -15 171.999 -45l-40 -59c-40 10.667 -75.667 16 -107 16c-76.667 0 -132.334 -44.333 -167.001 -133l24 -11c30.667 38 63.667 57 99 57zM1147 120.999l-0.00585938 418.994l231 -8l75 131l-164 4l200 202l-9 20
c-5.33301 -0.666992 -11 -1 -17 -1h-17c-71.333 0 -157.666 25.333 -258.999 76l-280 -222v-327c0 -36 -2.66699 -61 -8 -75c-5.33301 -13.333 -19.666 -30.666 -42.999 -51.999c-10.667 14.667 -20 30 -28 46s-15.333 32.667 -22 50l-13 264
c26.667 88 89.334 165 188.001 231l-13 22c-37.333 -19.333 -70.833 -39.666 -100.5 -60.999s-56.167 -43.666 -79.5 -66.999c1.33301 43.333 9.33301 76 24 98c14.667 22.667 43.334 46.334 86.001 71.001l-16 24c-14.667 -6.66699 -27.667 -13.167 -39 -19.5
s-21 -12.166 -29 -17.499c-7.33301 -5.33301 -16.666 -13 -27.999 -23l-40 -37c-3.33301 -3.33301 -6 -5.66602 -8 -6.99902s-3.33301 -2.33301 -4 -3c-104.667 74.667 -206.334 112 -305.001 112c-96 0 -180 -34 -252 -102c-72 -67.333 -108 -146 -108 -236
c0 -56.667 15.667 -109.834 47 -159.501s76 -93.5 134 -131.5l-103 -148c-31.333 -45.333 -51.333 -77.333 -60 -96c-8.66699 -18 -13 -37.333 -13 -58c0 -15.333 4.83301 -29 14.5 -41s20.834 -18 33.501 -18c24 0 36 11 36 33c0 10.667 -4.66699 23.667 -14 39
s-14 26.666 -14 33.999c0 8 3.16699 15.167 9.5 21.5s13.833 9.5 22.5 9.5c49.333 0 141.666 -47 276.999 -141l236 188l3 -37c2 -39.333 8.66699 -68.666 20 -87.999c10.667 -18 34 -39 70 -63l99 82c72.667 -48.667 153.334 -73 242.001 -73
c82.667 0 158.334 20.833 227.001 62.5s127 102.834 175 183.501l-10 14c-111.333 -83.333 -224 -125 -338 -125h-16zM1348 768.993l-200.999 -202.002v276c30 -17.333 61.667 -32.166 95 -44.499s68.666 -22.166 105.999 -29.499zM1043 797.991l74 59v-732
c-102 16 -183.333 62.667 -244 140l78 64c42 34 67.667 60.667 77 80c10 20 15 52.667 15 98v291z" />
    <glyph glyph-name="Ccedilla" unicode="&#xc7;" horiz-adv-x="898" 
d="M451 792l71.002 63.0039v-725c-98 10 -179.333 52 -244 126l57 48c23.333 19.333 42.5 37.166 57.5 53.499s26.167 30.833 33.5 43.5c5.33301 9.33301 9.66602 18.666 12.999 27.999s5.66602 18.666 6.99902 27.999s2.5 23.666 3.5 42.999s1.5 44 1.5 74v218z
M553.002 -10.9961c144 16.667 263.667 99.999 359 249.999l-15 18c-48.667 -40.667 -102.334 -72.334 -161.001 -95.001c-60 -23.333 -115 -35 -165 -35h-19v712c74.667 -35.333 144.334 -58.666 209.001 -69.999l128 122h-6c-97.333 0 -195.333 25 -294 75l-276 -235v-303
c0 -41.333 -2 -68.333 -6 -81c-7.33301 -26 -23.333 -47.333 -48 -64c-51.333 76.667 -77 156.334 -77 239.001c0 71.333 14.333 132.666 43 183.999c29.333 52.667 80 109 152 169l-11 16c-94 -49.333 -167 -113.333 -219 -192c-52 -79.333 -78 -166 -78 -260
c0 -123.333 38.667 -228.333 116 -315c77.333 -85.333 174.333 -131 291 -137l-147 -126c66 -33.333 99 -73.333 99 -120c0 -18.667 -8.66699 -43.334 -26 -74.001l7 -8c67.333 35.333 101 80 101 134c0 8.66699 -1 16.834 -3 24.501s-5.33301 15.5 -10 23.5
s-11.167 16.833 -19.5 26.5s-18.833 20.834 -31.5 33.501z" />
    <glyph glyph-name="Egrave" unicode="&#xc8;" horiz-adv-x="918" 
d="M554 122l-0.000976562 418.999l231 -8l75 132l-164 3l199 202l-8 21c-5.33301 -0.666992 -11 -1.16699 -17 -1.5s-11.667 -0.5 -17 -0.5c-69.333 0 -156 25.667 -260 77l-279 -223v-327c0 -37.333 -3 -62.333 -9 -75c-5.33301 -14 -19.333 -31.333 -42 -52
c-52.667 74.667 -79 158.667 -79 252c0 134.667 68 247.667 204 339l-13 22c-204 -107.333 -306 -254.333 -306 -441c0 -132.667 43 -245 129 -337c87.333 -91.333 193.333 -137 318 -137c82.667 0 158.167 20.833 226.5 62.5s126.833 102.834 175.5 183.501l-11 14
c-111.333 -83.333 -223.666 -125 -336.999 -125h-16zM754.999 770.999l-201 -203v276c58 -34.667 125 -59 201 -73zM448.999 798.999l73.999 60v-733c-101.333 16 -182.666 62.667 -243.999 140l79 65c42 34 67.667 60.667 77 80c9.33301 20 14 52.333 14 97v291z
M443.998 1100l223 -45l-150 170h-122z" />
    <glyph glyph-name="Eacute" unicode="&#xc9;" horiz-adv-x="918" 
d="M554 122l-0.000976562 418.999l231 -8l75 132l-164 3l199 202l-8 21c-5.33301 -0.666992 -11 -1.16699 -17 -1.5s-11.667 -0.5 -17 -0.5c-69.333 0 -156 25.667 -260 77l-279 -223v-327c0 -37.333 -3 -62.333 -9 -75c-5.33301 -14 -19.333 -31.333 -42 -52
c-52.667 74.667 -79 158.667 -79 252c0 134.667 68 247.667 204 339l-13 22c-204 -107.333 -306 -254.333 -306 -441c0 -132.667 43 -245 129 -337c87.333 -91.333 193.333 -137 318 -137c82.667 0 158.167 20.833 226.5 62.5s126.833 102.834 175.5 183.501l-11 14
c-111.333 -83.333 -223.666 -125 -336.999 -125h-16zM754.999 770.999l-201 -203v276c58 -34.667 125 -59 201 -73zM448.999 798.999l73.999 60v-733c-101.333 16 -182.666 62.667 -243.999 140l79 65c42 34 67.667 60.667 77 80c9.33301 20 14 52.333 14 97v291z
M598.998 1232l-150 -170l224 45l50 125h-124z" />
    <glyph glyph-name="Ecircumflex" unicode="&#xca;" horiz-adv-x="918" 
d="M554 122l-0.000976562 418.999l231 -8l75 132l-164 3l199 202l-8 21c-5.33301 -0.666992 -11 -1.16699 -17 -1.5s-11.667 -0.5 -17 -0.5c-69.333 0 -156 25.667 -260 77l-279 -223v-327c0 -37.333 -3 -62.333 -9 -75c-5.33301 -14 -19.333 -31.333 -42 -52
c-52.667 74.667 -79 158.667 -79 252c0 134.667 68 247.667 204 339l-13 22c-204 -107.333 -306 -254.333 -306 -441c0 -132.667 43 -245 129 -337c87.333 -91.333 193.333 -137 318 -137c82.667 0 158.167 20.833 226.5 62.5s126.833 102.834 175.5 183.501l-11 14
c-111.333 -83.333 -223.666 -125 -336.999 -125h-16zM754.999 770.999l-201 -203v276c58 -34.667 125 -59 201 -73zM448.999 798.999l73.999 60v-733c-101.333 16 -182.666 62.667 -243.999 140l79 65c42 34 67.667 60.667 77 80c9.33301 20 14 52.333 14 97v291z
M552.998 1281l-203 -212l30 -15l111 111l207 -111l90 91z" />
    <glyph glyph-name="Edieresis" unicode="&#xcb;" horiz-adv-x="918" 
d="M554 122l-0.000976562 418.999l231 -8l75 132l-164 3l199 202l-8 21c-5.33301 -0.666992 -11 -1.16699 -17 -1.5s-11.667 -0.5 -17 -0.5c-69.333 0 -156 25.667 -260 77l-279 -223v-327c0 -37.333 -3 -62.333 -9 -75c-5.33301 -14 -19.333 -31.333 -42 -52
c-52.667 74.667 -79 158.667 -79 252c0 134.667 68 247.667 204 339l-13 22c-204 -107.333 -306 -254.333 -306 -441c0 -132.667 43 -245 129 -337c87.333 -91.333 193.333 -137 318 -137c82.667 0 158.167 20.833 226.5 62.5s126.833 102.834 175.5 183.501l-11 14
c-111.333 -83.333 -223.666 -125 -336.999 -125h-16zM754.999 770.999l-201 -203v276c58 -34.667 125 -59 201 -73zM448.999 798.999l73.999 60v-733c-101.333 16 -182.666 62.667 -243.999 140l79 65c42 34 67.667 60.667 77 80c9.33301 20 14 52.333 14 97v291z
M409.998 1239l-89 -89l89 -89l89 89zM673.998 1239l-90 -89l90 -89l88 89z" />
    <glyph glyph-name="Igrave" unicode="&#xcc;" horiz-adv-x="845" 
d="M70 -4l18.0039 -6.99805c28.667 50.667 64 76 106 76c26 0 71 -11.667 135 -35c77.333 -28.667 135.666 -43 174.999 -43c75.333 0 135.666 27.667 180.999 83s68 130 68 224c0 30 -2.5 69 -7.5 117s-12.167 105.333 -21.5 172l-2 17
c-6.66699 44.667 -11.5 82.667 -14.5 114s-4.5 55.666 -4.5 72.999c0 40.667 8 71.667 24 93s43.667 38 83 50c8.66699 2 15.667 4 21 6l-14 24c-150.667 -20 -226 -124.667 -226 -314c0 -17.333 2 -43.666 6 -78.999s9.66699 -80.333 17 -135
c8.66699 -60.667 15 -112.5 19 -155.5s6 -78.5 6 -106.5c0 -90.667 -35.667 -136 -107 -136c-19.333 0 -37 3.66699 -53 11c-5.33301 3.33301 -11.5 7.83301 -18.5 13.5s-15.167 12.834 -24.5 21.501c-29.333 26.667 -55.333 47.667 -78 63c64.667 6 109.667 21 135 45
c26 24 39 63.667 39 119c0 15.333 -0.333008 29.5 -1 42.5s-1.66699 24.167 -3 33.5l-13 106c-4.66699 38.667 -8.16699 74 -10.5 106s-3.5 60.667 -3.5 86c0 60.667 9 110.667 27 150c18.667 40 51 79.333 97 118l-13 15c-32 -15.333 -64.667 -23 -98 -23
c-32 0 -69 5.33301 -111 16c-32.667 8.66699 -60.667 13 -84 13s-44.833 -3.83301 -64.5 -11.5s-37 -18.334 -52 -32.001s-27.333 -30.167 -37 -49.5s-15.834 -41 -18.501 -65l17 -3c12 26.667 25.167 45.334 39.5 56.001s34.166 16 59.499 16c3.33301 0 8 -0.5 14 -1.5
s13.667 -2.16699 23 -3.5l52 -9c8.66699 -2 19.334 -3 32.001 -3c31.333 0 74.666 11 129.999 33c-50.667 -50 -86.334 -98.333 -107.001 -145c-10.667 -23.333 -18.5 -49.5 -23.5 -78.5s-7.83301 -60.833 -8.5 -95.5c-13.333 3.33301 -26.666 5 -39.999 5
c-65.333 0 -118.666 -37.667 -159.999 -113l13 -9c8.66699 8 16.667 14.667 24 20s14.666 9.5 21.999 12.5s15 5.16699 23 6.5s17.333 2 28 2c20 0 38.167 -5 54.5 -15s30.166 -24.333 41.499 -43s20.166 -40.834 26.499 -66.501s9.5 -53.834 9.5 -84.501
c0 -22.667 -1.83301 -41.667 -5.5 -57s-9.66699 -27.833 -18 -37.5s-19.666 -16.667 -33.999 -21s-31.833 -6.83301 -52.5 -7.5c-69.333 -2.66699 -122 -17 -158 -43c-33.333 -24.667 -59.666 -68.334 -78.999 -131.001zM458.004 1100l223 -45l-149 170h-123z" />
    <glyph glyph-name="Iacute" unicode="&#xcd;" horiz-adv-x="845" 
d="M70 -4l18.0039 -6.99805c28.667 50.667 64 76 106 76c26 0 71 -11.667 135 -35c77.333 -28.667 135.666 -43 174.999 -43c75.333 0 135.666 27.667 180.999 83s68 130 68 224c0 30 -2.5 69 -7.5 117s-12.167 105.333 -21.5 172l-2 17
c-6.66699 44.667 -11.5 82.667 -14.5 114s-4.5 55.666 -4.5 72.999c0 40.667 8 71.667 24 93s43.667 38 83 50c8.66699 2 15.667 4 21 6l-14 24c-150.667 -20 -226 -124.667 -226 -314c0 -17.333 2 -43.666 6 -78.999s9.66699 -80.333 17 -135
c8.66699 -60.667 15 -112.5 19 -155.5s6 -78.5 6 -106.5c0 -90.667 -35.667 -136 -107 -136c-19.333 0 -37 3.66699 -53 11c-5.33301 3.33301 -11.5 7.83301 -18.5 13.5s-15.167 12.834 -24.5 21.501c-29.333 26.667 -55.333 47.667 -78 63c64.667 6 109.667 21 135 45
c26 24 39 63.667 39 119c0 15.333 -0.333008 29.5 -1 42.5s-1.66699 24.167 -3 33.5l-13 106c-4.66699 38.667 -8.16699 74 -10.5 106s-3.5 60.667 -3.5 86c0 60.667 9 110.667 27 150c18.667 40 51 79.333 97 118l-13 15c-32 -15.333 -64.667 -23 -98 -23
c-32 0 -69 5.33301 -111 16c-32.667 8.66699 -60.667 13 -84 13s-44.833 -3.83301 -64.5 -11.5s-37 -18.334 -52 -32.001s-27.333 -30.167 -37 -49.5s-15.834 -41 -18.501 -65l17 -3c12 26.667 25.167 45.334 39.5 56.001s34.166 16 59.499 16c3.33301 0 8 -0.5 14 -1.5
s13.667 -2.16699 23 -3.5l52 -9c8.66699 -2 19.334 -3 32.001 -3c31.333 0 74.666 11 129.999 33c-50.667 -50 -86.334 -98.333 -107.001 -145c-10.667 -23.333 -18.5 -49.5 -23.5 -78.5s-7.83301 -60.833 -8.5 -95.5c-13.333 3.33301 -26.666 5 -39.999 5
c-65.333 0 -118.666 -37.667 -159.999 -113l13 -9c8.66699 8 16.667 14.667 24 20s14.666 9.5 21.999 12.5s15 5.16699 23 6.5s17.333 2 28 2c20 0 38.167 -5 54.5 -15s30.166 -24.333 41.499 -43s20.166 -40.834 26.499 -66.501s9.5 -53.834 9.5 -84.501
c0 -22.667 -1.83301 -41.667 -5.5 -57s-9.66699 -27.833 -18 -37.5s-19.666 -16.667 -33.999 -21s-31.833 -6.83301 -52.5 -7.5c-69.333 -2.66699 -122 -17 -158 -43c-33.333 -24.667 -59.666 -68.334 -78.999 -131.001zM685.004 1224l-151 -170l223 45l50 125h-122z" />
    <glyph glyph-name="Icircumflex" unicode="&#xce;" horiz-adv-x="845" 
d="M70 -4l18.0039 -6.99805c28.667 50.667 64 76 106 76c26 0 71 -11.667 135 -35c77.333 -28.667 135.666 -43 174.999 -43c75.333 0 135.666 27.667 180.999 83s68 130 68 224c0 30 -2.5 69 -7.5 117s-12.167 105.333 -21.5 172l-2 17
c-6.66699 44.667 -11.5 82.667 -14.5 114s-4.5 55.666 -4.5 72.999c0 40.667 8 71.667 24 93s43.667 38 83 50c8.66699 2 15.667 4 21 6l-14 24c-150.667 -20 -226 -124.667 -226 -314c0 -17.333 2 -43.666 6 -78.999s9.66699 -80.333 17 -135
c8.66699 -60.667 15 -112.5 19 -155.5s6 -78.5 6 -106.5c0 -90.667 -35.667 -136 -107 -136c-19.333 0 -37 3.66699 -53 11c-5.33301 3.33301 -11.5 7.83301 -18.5 13.5s-15.167 12.834 -24.5 21.501c-29.333 26.667 -55.333 47.667 -78 63c64.667 6 109.667 21 135 45
c26 24 39 63.667 39 119c0 15.333 -0.333008 29.5 -1 42.5s-1.66699 24.167 -3 33.5l-13 106c-4.66699 38.667 -8.16699 74 -10.5 106s-3.5 60.667 -3.5 86c0 60.667 9 110.667 27 150c18.667 40 51 79.333 97 118l-13 15c-32 -15.333 -64.667 -23 -98 -23
c-32 0 -69 5.33301 -111 16c-32.667 8.66699 -60.667 13 -84 13s-44.833 -3.83301 -64.5 -11.5s-37 -18.334 -52 -32.001s-27.333 -30.167 -37 -49.5s-15.834 -41 -18.501 -65l17 -3c12 26.667 25.167 45.334 39.5 56.001s34.166 16 59.499 16c3.33301 0 8 -0.5 14 -1.5
s13.667 -2.16699 23 -3.5l52 -9c8.66699 -2 19.334 -3 32.001 -3c31.333 0 74.666 11 129.999 33c-50.667 -50 -86.334 -98.333 -107.001 -145c-10.667 -23.333 -18.5 -49.5 -23.5 -78.5s-7.83301 -60.833 -8.5 -95.5c-13.333 3.33301 -26.666 5 -39.999 5
c-65.333 0 -118.666 -37.667 -159.999 -113l13 -9c8.66699 8 16.667 14.667 24 20s14.666 9.5 21.999 12.5s15 5.16699 23 6.5s17.333 2 28 2c20 0 38.167 -5 54.5 -15s30.166 -24.333 41.499 -43s20.166 -40.834 26.499 -66.501s9.5 -53.834 9.5 -84.501
c0 -22.667 -1.83301 -41.667 -5.5 -57s-9.66699 -27.833 -18 -37.5s-19.666 -16.667 -33.999 -21s-31.833 -6.83301 -52.5 -7.5c-69.333 -2.66699 -122 -17 -158 -43c-33.333 -24.667 -59.666 -68.334 -78.999 -131.001zM553.004 1281l-203 -212l30 -15l111 111l207 -111
l90 91z" />
    <glyph glyph-name="Idieresis" unicode="&#xcf;" horiz-adv-x="845" 
d="M70 -4l18.0039 -6.99805c28.667 50.667 64 76 106 76c26 0 71 -11.667 135 -35c77.333 -28.667 135.666 -43 174.999 -43c75.333 0 135.666 27.667 180.999 83s68 130 68 224c0 30 -2.5 69 -7.5 117s-12.167 105.333 -21.5 172l-2 17
c-6.66699 44.667 -11.5 82.667 -14.5 114s-4.5 55.666 -4.5 72.999c0 40.667 8 71.667 24 93s43.667 38 83 50c8.66699 2 15.667 4 21 6l-14 24c-150.667 -20 -226 -124.667 -226 -314c0 -17.333 2 -43.666 6 -78.999s9.66699 -80.333 17 -135
c8.66699 -60.667 15 -112.5 19 -155.5s6 -78.5 6 -106.5c0 -90.667 -35.667 -136 -107 -136c-19.333 0 -37 3.66699 -53 11c-5.33301 3.33301 -11.5 7.83301 -18.5 13.5s-15.167 12.834 -24.5 21.501c-29.333 26.667 -55.333 47.667 -78 63c64.667 6 109.667 21 135 45
c26 24 39 63.667 39 119c0 15.333 -0.333008 29.5 -1 42.5s-1.66699 24.167 -3 33.5l-13 106c-4.66699 38.667 -8.16699 74 -10.5 106s-3.5 60.667 -3.5 86c0 60.667 9 110.667 27 150c18.667 40 51 79.333 97 118l-13 15c-32 -15.333 -64.667 -23 -98 -23
c-32 0 -69 5.33301 -111 16c-32.667 8.66699 -60.667 13 -84 13s-44.833 -3.83301 -64.5 -11.5s-37 -18.334 -52 -32.001s-27.333 -30.167 -37 -49.5s-15.834 -41 -18.501 -65l17 -3c12 26.667 25.167 45.334 39.5 56.001s34.166 16 59.499 16c3.33301 0 8 -0.5 14 -1.5
s13.667 -2.16699 23 -3.5l52 -9c8.66699 -2 19.334 -3 32.001 -3c31.333 0 74.666 11 129.999 33c-50.667 -50 -86.334 -98.333 -107.001 -145c-10.667 -23.333 -18.5 -49.5 -23.5 -78.5s-7.83301 -60.833 -8.5 -95.5c-13.333 3.33301 -26.666 5 -39.999 5
c-65.333 0 -118.666 -37.667 -159.999 -113l13 -9c8.66699 8 16.667 14.667 24 20s14.666 9.5 21.999 12.5s15 5.16699 23 6.5s17.333 2 28 2c20 0 38.167 -5 54.5 -15s30.166 -24.333 41.499 -43s20.166 -40.834 26.499 -66.501s9.5 -53.834 9.5 -84.501
c0 -22.667 -1.83301 -41.667 -5.5 -57s-9.66699 -27.833 -18 -37.5s-19.666 -16.667 -33.999 -21s-31.833 -6.83301 -52.5 -7.5c-69.333 -2.66699 -122 -17 -158 -43c-33.333 -24.667 -59.666 -68.334 -78.999 -131.001zM480.004 1239l-89 -89l89 -89l90 89zM746.004 1239
l-91 -89l91 -89l86 89z" />
    <glyph glyph-name="Ntilde" unicode="&#xd1;" horiz-adv-x="1312" 
d="M1196 -14l118.004 205l-33 11l-47 -77c-14.667 1.33301 -28.334 2.5 -41.001 3.5s-24.667 1.5 -36 1.5c-64 0 -120 -8 -168 -24c6.66699 10.667 11.667 17.667 15 21l98 136c94 128 141 243 141 345c0 86.667 -30.667 161.667 -92 225
c-60.667 63.333 -145.334 107.666 -254.001 132.999l-427 -210v-135c-50 23.333 -89.333 35 -118 35c-49.333 0 -90.333 -21 -123 -63l15 -16c26.667 14.667 52.334 22 77.001 22c88 0 137.667 -55 149 -165c-41.333 33.333 -81 50 -119 50
c-44.667 0 -85.334 -20.333 -122.001 -61l15 -19c24.667 12.667 50.334 19 77.001 19c86 0 140.333 -46.333 163 -139c-34.667 18.667 -66 28 -94 28c-42 0 -79.333 -22.333 -112 -67l18 -18c29.333 19.333 56 29 80 29c33.333 0 63.666 -13.667 90.999 -41
s41 -58.666 41 -93.999c0 -64 -29.667 -96 -89 -96c-5.33301 0 -13.333 1.33301 -24 4l-43 8c-43.333 8.66699 -76.333 13 -99 13c-72.667 0 -134 -38 -184 -114l18 -17c39.333 22.667 77.666 34 114.999 34c22 0 50.333 -5.33301 85 -16
c61.333 -19.333 109.666 -29 144.999 -29c86.667 0 153 27 199 81s69 132.333 69 235v135c56.667 36.667 120.667 55 192 55c53.333 0 112.666 -20.333 177.999 -61c-1.33301 -4 -2.66602 -7.33301 -3.99902 -10l-3 -6c-6 -13.333 -13.333 -28.833 -22 -46.5l-30 -58.5
l-27 -47.5l-26 -43.5c-60 -105.333 -98 -181.333 -114 -228l32 -11c38.667 76.667 101 115 187 115c42.667 0 87 -10.333 133 -31zM882.004 446c-53.333 0 -114 -16.3359 -182 -49.0029v176c66.667 -34 129 -51 187 -51c73.333 0 147.333 24.667 222 74
c1.33301 -7.33301 2.5 -14.666 3.5 -21.999s1.5 -14.666 1.5 -21.999c0 -51.333 -11.333 -107.666 -34 -168.999c-61.333 42 -127.333 63 -198 63zM889.004 554.997c-63.333 0 -126.335 19.667 -189.002 59v203c52 10 91 15 117 15c65.333 0 123.666 -18.333 174.999 -55
c52.667 -36 89.334 -85 110.001 -147c-21.333 -13.333 -41.166 -25 -59.499 -35s-35.166 -17.667 -50.499 -23c-32 -11.333 -66.333 -17 -103 -17zM606.002 778.997c15.333 7.33301 28.5 13.167 39.5 17.5l26.5 10.5v-517c0 -110.667 -10.333 -184.667 -31 -222
c-21.333 -38 -63.333 -60 -126 -66c36.667 22.667 61 50 73 82s18 85.333 18 160v535zM776.002 1278l-172 -144l30 -22l70 56l187 -109l198 173l-30 24l-95 -84z" />
    <glyph glyph-name="Ograve" unicode="&#xd2;" horiz-adv-x="1075" 
d="M593 966l-461.001 -277.998c-42 -99.333 -63 -193 -63 -281c0 -118.667 39 -218.334 117 -299.001s174.667 -121 290 -121c68.667 0 141.334 22.333 218.001 67c79.333 45.333 152.333 107 219 185c84.667 97.333 127 196.666 127 297.999c0 108 -41 201.667 -123 281
c-81.333 78.667 -189.333 128 -324 148zM177.999 486.002c0 116.667 45.667 208.667 137 276v-372c0 -20.667 -0.5 -38.167 -1.5 -52.5s-2.16699 -25.5 -3.5 -33.5c-6 -27.333 -20 -51.333 -42 -72c-60 84 -90 168.667 -90 254zM447.999 844.002
c13.333 0 26 -0.499023 38 -1.49902s23.667 -2.16699 35 -3.5v-746c-91.333 11.333 -168.333 49.666 -231 114.999c70 54.667 113.667 97 131 127c18 30.667 27 78 27 142v367zM712.999 577.003c-54.667 0 -108.336 22.001 -161.003 66.001v194
c36.667 -5.33301 71.334 -13.666 104.001 -24.999s62.834 -25.333 90.501 -42s52.167 -35.834 73.5 -57.501s39 -44.834 53 -69.501c-49.333 -44 -102.666 -66 -159.999 -66zM706.997 458.004c-56 0 -107.667 -20.667 -155 -62v215c52.667 -42 108 -63 166 -63
c54 0 109.667 21 167 63c13.333 -41.333 20 -79 20 -113c0 -30.667 -6 -71 -18 -121c-59.333 54 -119.333 81 -180 81zM563.997 93.0039h-12v260c42.667 50 95 75 157 75c65.333 0 121 -28 167 -84c-25.333 -74 -67.333 -134.333 -126 -181s-120.667 -70 -186 -70z
M387.997 1100l223 -45l-150 170h-123z" />
    <glyph glyph-name="Oacute" unicode="&#xd3;" horiz-adv-x="1075" 
d="M593 966l-461.001 -277.998c-42 -99.333 -63 -193 -63 -281c0 -118.667 39 -218.334 117 -299.001s174.667 -121 290 -121c68.667 0 141.334 22.333 218.001 67c79.333 45.333 152.333 107 219 185c84.667 97.333 127 196.666 127 297.999c0 108 -41 201.667 -123 281
c-81.333 78.667 -189.333 128 -324 148zM177.999 486.002c0 116.667 45.667 208.667 137 276v-372c0 -20.667 -0.5 -38.167 -1.5 -52.5s-2.16699 -25.5 -3.5 -33.5c-6 -27.333 -20 -51.333 -42 -72c-60 84 -90 168.667 -90 254zM447.999 844.002
c13.333 0 26 -0.499023 38 -1.49902s23.667 -2.16699 35 -3.5v-746c-91.333 11.333 -168.333 49.666 -231 114.999c70 54.667 113.667 97 131 127c18 30.667 27 78 27 142v367zM712.999 577.003c-54.667 0 -108.336 22.001 -161.003 66.001v194
c36.667 -5.33301 71.334 -13.666 104.001 -24.999s62.834 -25.333 90.501 -42s52.167 -35.834 73.5 -57.501s39 -44.834 53 -69.501c-49.333 -44 -102.666 -66 -159.999 -66zM706.997 458.004c-56 0 -107.667 -20.667 -155 -62v215c52.667 -42 108 -63 166 -63
c54 0 109.667 21 167 63c13.333 -41.333 20 -79 20 -113c0 -30.667 -6 -71 -18 -121c-59.333 54 -119.333 81 -180 81zM563.997 93.0039h-12v260c42.667 50 95 75 157 75c65.333 0 121 -28 167 -84c-25.333 -74 -67.333 -134.333 -126 -181s-120.667 -70 -186 -70z
M684.997 1224l-151 -170l223 45l50 125h-122z" />
    <glyph glyph-name="Ocircumflex" unicode="&#xd4;" horiz-adv-x="1075" 
d="M593 966l-461.001 -277.998c-42 -99.333 -63 -193 -63 -281c0 -118.667 39 -218.334 117 -299.001s174.667 -121 290 -121c68.667 0 141.334 22.333 218.001 67c79.333 45.333 152.333 107 219 185c84.667 97.333 127 196.666 127 297.999c0 108 -41 201.667 -123 281
c-81.333 78.667 -189.333 128 -324 148zM177.999 486.002c0 116.667 45.667 208.667 137 276v-372c0 -20.667 -0.5 -38.167 -1.5 -52.5s-2.16699 -25.5 -3.5 -33.5c-6 -27.333 -20 -51.333 -42 -72c-60 84 -90 168.667 -90 254zM447.999 844.002
c13.333 0 26 -0.499023 38 -1.49902s23.667 -2.16699 35 -3.5v-746c-91.333 11.333 -168.333 49.666 -231 114.999c70 54.667 113.667 97 131 127c18 30.667 27 78 27 142v367zM712.999 577.003c-54.667 0 -108.336 22.001 -161.003 66.001v194
c36.667 -5.33301 71.334 -13.666 104.001 -24.999s62.834 -25.333 90.501 -42s52.167 -35.834 73.5 -57.501s39 -44.834 53 -69.501c-49.333 -44 -102.666 -66 -159.999 -66zM706.997 458.004c-56 0 -107.667 -20.667 -155 -62v215c52.667 -42 108 -63 166 -63
c54 0 109.667 21 167 63c13.333 -41.333 20 -79 20 -113c0 -30.667 -6 -71 -18 -121c-59.333 54 -119.333 81 -180 81zM563.997 93.0039h-12v260c42.667 50 95 75 157 75c65.333 0 121 -28 167 -84c-25.333 -74 -67.333 -134.333 -126 -181s-120.667 -70 -186 -70z
M552.997 1281l-203 -212l30 -15l111 111l207 -111l90 91z" />
    <glyph glyph-name="Otilde" unicode="&#xd5;" horiz-adv-x="1075" 
d="M593 966l-461.001 -277.998c-42 -99.333 -63 -193 -63 -281c0 -118.667 39 -218.334 117 -299.001s174.667 -121 290 -121c68.667 0 141.334 22.333 218.001 67c79.333 45.333 152.333 107 219 185c84.667 97.333 127 196.666 127 297.999c0 108 -41 201.667 -123 281
c-81.333 78.667 -189.333 128 -324 148zM177.999 486.002c0 116.667 45.667 208.667 137 276v-372c0 -20.667 -0.5 -38.167 -1.5 -52.5s-2.16699 -25.5 -3.5 -33.5c-6 -27.333 -20 -51.333 -42 -72c-60 84 -90 168.667 -90 254zM447.999 844.002
c13.333 0 26 -0.499023 38 -1.49902s23.667 -2.16699 35 -3.5v-746c-91.333 11.333 -168.333 49.666 -231 114.999c70 54.667 113.667 97 131 127c18 30.667 27 78 27 142v367zM712.999 577.003c-54.667 0 -108.336 22.001 -161.003 66.001v194
c36.667 -5.33301 71.334 -13.666 104.001 -24.999s62.834 -25.333 90.501 -42s52.167 -35.834 73.5 -57.501s39 -44.834 53 -69.501c-49.333 -44 -102.666 -66 -159.999 -66zM706.997 458.004c-56 0 -107.667 -20.667 -155 -62v215c52.667 -42 108 -63 166 -63
c54 0 109.667 21 167 63c13.333 -41.333 20 -79 20 -113c0 -30.667 -6 -71 -18 -121c-59.333 54 -119.333 81 -180 81zM563.997 93.0039h-12v260c42.667 50 95 75 157 75c65.333 0 121 -28 167 -84c-25.333 -74 -67.333 -134.333 -126 -181s-120.667 -70 -186 -70z
M464.997 1278l-172 -144l29 -22l72 56l186 -109l198 173l-30 24l-95 -84z" />
    <glyph glyph-name="Odieresis" unicode="&#xd6;" horiz-adv-x="1075" 
d="M593 966l-461.001 -277.998c-42 -99.333 -63 -193 -63 -281c0 -118.667 39 -218.334 117 -299.001s174.667 -121 290 -121c68.667 0 141.334 22.333 218.001 67c79.333 45.333 152.333 107 219 185c84.667 97.333 127 196.666 127 297.999c0 108 -41 201.667 -123 281
c-81.333 78.667 -189.333 128 -324 148zM177.999 486.002c0 116.667 45.667 208.667 137 276v-372c0 -20.667 -0.5 -38.167 -1.5 -52.5s-2.16699 -25.5 -3.5 -33.5c-6 -27.333 -20 -51.333 -42 -72c-60 84 -90 168.667 -90 254zM447.999 844.002
c13.333 0 26 -0.499023 38 -1.49902s23.667 -2.16699 35 -3.5v-746c-91.333 11.333 -168.333 49.666 -231 114.999c70 54.667 113.667 97 131 127c18 30.667 27 78 27 142v367zM712.999 577.003c-54.667 0 -108.336 22.001 -161.003 66.001v194
c36.667 -5.33301 71.334 -13.666 104.001 -24.999s62.834 -25.333 90.501 -42s52.167 -35.834 73.5 -57.501s39 -44.834 53 -69.501c-49.333 -44 -102.666 -66 -159.999 -66zM706.997 458.004c-56 0 -107.667 -20.667 -155 -62v215c52.667 -42 108 -63 166 -63
c54 0 109.667 21 167 63c13.333 -41.333 20 -79 20 -113c0 -30.667 -6 -71 -18 -121c-59.333 54 -119.333 81 -180 81zM563.997 93.0039h-12v260c42.667 50 95 75 157 75c65.333 0 121 -28 167 -84c-25.333 -74 -67.333 -134.333 -126 -181s-120.667 -70 -186 -70z
M423.997 1234l-89 -89l89 -89l90 89zM687.997 1234l-90 -89l90 -89l88 89z" />
    <glyph glyph-name="multiply" unicode="&#xd7;" horiz-adv-x="716" 
d="M630 541l-51 51l-209 -209l-209 209l-52 -50l210 -209l-210 -209l52 -51l209 209l209 -209l51 49l-209 210z" />
    <glyph glyph-name="Oslash" unicode="&#xd8;" horiz-adv-x="1075" 
d="M564 93h-12v260c42.667 50 95 75 157 75c65.333 0 121 -28 167 -84c-25.333 -74 -67.333 -134.333 -126 -181s-120.667 -70 -186 -70zM707 458c-56 0 -107.667 -20.667 -155 -62v215c52.667 -42 108 -63 166 -63c54 0 109.667 21 167 63c13.333 -41.333 20 -79 20 -113
c0 -30.667 -6 -71 -18 -121c-59.333 54 -119.333 81 -180 81zM713 577c-54.667 0 -108.336 22.001 -161.003 66.001v194c36.667 -5.33301 71.334 -13.666 104.001 -24.999s62.834 -25.333 90.501 -42s52.167 -35.834 73.5 -57.501s39 -44.834 53 -69.501
c-49.333 -44 -102.666 -66 -159.999 -66zM447.998 844.001c13.333 0 26 -0.499023 38 -1.49902s23.667 -2.16699 35 -3.5v-746c-91.333 11.333 -168.333 49.666 -231 114.999c70 54.667 113.667 97 131 127c18 30.667 27 78 27 142v367zM177.998 486.002
c0 116.667 45.667 208.667 137 276v-372c0 -20.667 -0.5 -38.167 -1.5 -52.5s-2.16699 -25.5 -3.5 -33.5c-6 -27.333 -20 -51.333 -42 -72c-60 84 -90 168.667 -90 254zM249.998 54.002c64.667 -44.667 139.999 -66.999 225.999 -66.999c68.667 0 141.334 22.333 218.001 67
c79.333 45.333 152.333 107 219 185c84.667 97.333 127 196.666 127 297.999c0 118.667 -47.667 218.667 -143 300l89 108l-61 32l-86 -101c-69.333 44.667 -151.333 74.667 -246 90l-461 -278c-42 -99.333 -63 -193 -63 -281c0 -125.333 42.667 -229 128 -311l-90 -112
l61 -31c56 67.333 83.333 101 82 101z" />
    <glyph glyph-name="Ugrave" unicode="&#xd9;" horiz-adv-x="1117" 
d="M967 -30l142.002 117.998l-17 26c-15.333 -8 -27.666 -12 -36.999 -12c-30 0 -45 29.667 -45 89v464c0 74.667 3.33301 122.334 10 143.001c6.66699 22 27.667 53.667 63 95c1.33301 2.66699 3.33301 5.33398 6 8.00098l9 9l-27 20l-66 -70l-135 100l-157 -165l21 -22
l75 75l61 -49v-200c-28.667 -18.667 -62.334 -28 -101.001 -28c-43.333 0 -83.666 14.667 -120.999 44v366h-20c-26 -34 -71 -51 -135 -51c-30 0 -70.333 9 -121 27c-60 21.333 -102.667 32 -128 32c-56 0 -99.167 -21.167 -129.5 -63.5s-45.5 -101.833 -45.5 -178.5v-17
c0 -6 0.333008 -12.667 1 -20h30c-0.666992 0.666992 -1 3.66699 -1 9c0 99.333 39.667 149 119 149c11.333 0 21.666 -0.333008 30.999 -1s18 -1.66699 26 -3c13.333 -1.33301 24.666 -2.66602 33.999 -3.99902l21 -3c4.66699 -0.666992 10.167 -1.16699 16.5 -1.5
s13.166 -0.5 20.499 -0.5c-4.66699 0 -2 0.333008 8 1s27 1.66699 51 3c6.66699 0.666992 11.667 1 15 1h8l-25 -16c-54 -34 -100.5 -68.5 -139.5 -103.5s-70.833 -70.833 -95.5 -107.5c-46.667 -70.667 -70 -152 -70 -244c0 -118.667 35 -215.334 105 -290.001
s160.667 -112 272 -112c63.333 0 123 11.667 179 35c54 24 118.333 67 193 129c1.33301 -49.333 8.66602 -86.333 21.999 -111c14.667 -26 40.334 -49.333 77.001 -70zM870.002 202.998c-75.333 -61.333 -149.333 -96.333 -222 -105v286c34 22 69 33 105 33
c34.667 0 73.667 -11.667 117 -35v-179zM754.002 447.998c-33.333 0 -68.666 -8.33301 -105.999 -25v153c38.667 -24 78.667 -36 120 -36c36 0 70 8 102 24v-147c-40.667 20.667 -79.334 31 -116.001 31zM559.002 697.998c0 34 0.666992 61.666 2 82.999
s3.33301 37.333 6 48c6 21.333 22.333 46.333 49 75v-811c-6 -0.666992 -12.333 -1 -19 -1h-19c-74.667 0 -139.667 19.667 -195 59c36 21.333 66.833 43.5 92.5 66.5s46.167 46.167 61.5 69.5c14.667 20.667 22 57.334 22 110.001v301zM421.002 366.997
c0 -26 -1.16699 -48.5 -3.5 -67.5s-6.16602 -35.833 -11.499 -50.5s-12.333 -27.5 -21 -38.5s-19.334 -21.167 -32.001 -30.5c-66 70 -99 159.333 -99 268c0 188 99.333 332.333 298 433c-9.33301 -10 -15.333 -17 -18 -21l-52 -66c-24.667 -30.667 -41 -57.334 -49 -80.001
c-8 -23.333 -12 -54.666 -12 -93.999v-253zM529.002 1100l224 -45l-150 170h-124z" />
    <glyph glyph-name="Uacute" unicode="&#xda;" horiz-adv-x="1117" 
d="M967 -30l142.002 117.998l-17 26c-15.333 -8 -27.666 -12 -36.999 -12c-30 0 -45 29.667 -45 89v464c0 74.667 3.33301 122.334 10 143.001c6.66699 22 27.667 53.667 63 95c1.33301 2.66699 3.33301 5.33398 6 8.00098l9 9l-27 20l-66 -70l-135 100l-157 -165l21 -22
l75 75l61 -49v-200c-28.667 -18.667 -62.334 -28 -101.001 -28c-43.333 0 -83.666 14.667 -120.999 44v366h-20c-26 -34 -71 -51 -135 -51c-30 0 -70.333 9 -121 27c-60 21.333 -102.667 32 -128 32c-56 0 -99.167 -21.167 -129.5 -63.5s-45.5 -101.833 -45.5 -178.5v-17
c0 -6 0.333008 -12.667 1 -20h30c-0.666992 0.666992 -1 3.66699 -1 9c0 99.333 39.667 149 119 149c11.333 0 21.666 -0.333008 30.999 -1s18 -1.66699 26 -3c13.333 -1.33301 24.666 -2.66602 33.999 -3.99902l21 -3c4.66699 -0.666992 10.167 -1.16699 16.5 -1.5
s13.166 -0.5 20.499 -0.5c-4.66699 0 -2 0.333008 8 1s27 1.66699 51 3c6.66699 0.666992 11.667 1 15 1h8l-25 -16c-54 -34 -100.5 -68.5 -139.5 -103.5s-70.833 -70.833 -95.5 -107.5c-46.667 -70.667 -70 -152 -70 -244c0 -118.667 35 -215.334 105 -290.001
s160.667 -112 272 -112c63.333 0 123 11.667 179 35c54 24 118.333 67 193 129c1.33301 -49.333 8.66602 -86.333 21.999 -111c14.667 -26 40.334 -49.333 77.001 -70zM870.002 202.998c-75.333 -61.333 -149.333 -96.333 -222 -105v286c34 22 69 33 105 33
c34.667 0 73.667 -11.667 117 -35v-179zM754.002 447.998c-33.333 0 -68.666 -8.33301 -105.999 -25v153c38.667 -24 78.667 -36 120 -36c36 0 70 8 102 24v-147c-40.667 20.667 -79.334 31 -116.001 31zM559.002 697.998c0 34 0.666992 61.666 2 82.999
s3.33301 37.333 6 48c6 21.333 22.333 46.333 49 75v-811c-6 -0.666992 -12.333 -1 -19 -1h-19c-74.667 0 -139.667 19.667 -195 59c36 21.333 66.833 43.5 92.5 66.5s46.167 46.167 61.5 69.5c14.667 20.667 22 57.334 22 110.001v301zM421.002 366.997
c0 -26 -1.16699 -48.5 -3.5 -67.5s-6.16602 -35.833 -11.499 -50.5s-12.333 -27.5 -21 -38.5s-19.334 -21.167 -32.001 -30.5c-66 70 -99 159.333 -99 268c0 188 99.333 332.333 298 433c-9.33301 -10 -15.333 -17 -18 -21l-52 -66c-24.667 -30.667 -41 -57.334 -49 -80.001
c-8 -23.333 -12 -54.666 -12 -93.999v-253zM854.002 1224l-150 -170l223 45l50 125h-123z" />
    <glyph glyph-name="Ucircumflex" unicode="&#xdb;" horiz-adv-x="1117" 
d="M967 -30l142.002 117.998l-17 26c-15.333 -8 -27.666 -12 -36.999 -12c-30 0 -45 29.667 -45 89v464c0 74.667 3.33301 122.334 10 143.001c6.66699 22 27.667 53.667 63 95c1.33301 2.66699 3.33301 5.33398 6 8.00098l9 9l-27 20l-66 -70l-135 100l-157 -165l21 -22
l75 75l61 -49v-200c-28.667 -18.667 -62.334 -28 -101.001 -28c-43.333 0 -83.666 14.667 -120.999 44v366h-20c-26 -34 -71 -51 -135 -51c-30 0 -70.333 9 -121 27c-60 21.333 -102.667 32 -128 32c-56 0 -99.167 -21.167 -129.5 -63.5s-45.5 -101.833 -45.5 -178.5v-17
c0 -6 0.333008 -12.667 1 -20h30c-0.666992 0.666992 -1 3.66699 -1 9c0 99.333 39.667 149 119 149c11.333 0 21.666 -0.333008 30.999 -1s18 -1.66699 26 -3c13.333 -1.33301 24.666 -2.66602 33.999 -3.99902l21 -3c4.66699 -0.666992 10.167 -1.16699 16.5 -1.5
s13.166 -0.5 20.499 -0.5c-4.66699 0 -2 0.333008 8 1s27 1.66699 51 3c6.66699 0.666992 11.667 1 15 1h8l-25 -16c-54 -34 -100.5 -68.5 -139.5 -103.5s-70.833 -70.833 -95.5 -107.5c-46.667 -70.667 -70 -152 -70 -244c0 -118.667 35 -215.334 105 -290.001
s160.667 -112 272 -112c63.333 0 123 11.667 179 35c54 24 118.333 67 193 129c1.33301 -49.333 8.66602 -86.333 21.999 -111c14.667 -26 40.334 -49.333 77.001 -70zM870.002 202.998c-75.333 -61.333 -149.333 -96.333 -222 -105v286c34 22 69 33 105 33
c34.667 0 73.667 -11.667 117 -35v-179zM754.002 447.998c-33.333 0 -68.666 -8.33301 -105.999 -25v153c38.667 -24 78.667 -36 120 -36c36 0 70 8 102 24v-147c-40.667 20.667 -79.334 31 -116.001 31zM559.002 697.998c0 34 0.666992 61.666 2 82.999
s3.33301 37.333 6 48c6 21.333 22.333 46.333 49 75v-811c-6 -0.666992 -12.333 -1 -19 -1h-19c-74.667 0 -139.667 19.667 -195 59c36 21.333 66.833 43.5 92.5 66.5s46.167 46.167 61.5 69.5c14.667 20.667 22 57.334 22 110.001v301zM421.002 366.997
c0 -26 -1.16699 -48.5 -3.5 -67.5s-6.16602 -35.833 -11.499 -50.5s-12.333 -27.5 -21 -38.5s-19.334 -21.167 -32.001 -30.5c-66 70 -99 159.333 -99 268c0 188 99.333 332.333 298 433c-9.33301 -10 -15.333 -17 -18 -21l-52 -66c-24.667 -30.667 -41 -57.334 -49 -80.001
c-8 -23.333 -12 -54.666 -12 -93.999v-253zM685.002 1279l-205 -211l31 -16l111 112l208 -112l90 92z" />
    <glyph glyph-name="Udieresis" unicode="&#xdc;" horiz-adv-x="1117" 
d="M967 -30l142.002 117.998l-17 26c-15.333 -8 -27.666 -12 -36.999 -12c-30 0 -45 29.667 -45 89v464c0 74.667 3.33301 122.334 10 143.001c6.66699 22 27.667 53.667 63 95c1.33301 2.66699 3.33301 5.33398 6 8.00098l9 9l-27 20l-66 -70l-135 100l-157 -165l21 -22
l75 75l61 -49v-200c-28.667 -18.667 -62.334 -28 -101.001 -28c-43.333 0 -83.666 14.667 -120.999 44v366h-20c-26 -34 -71 -51 -135 -51c-30 0 -70.333 9 -121 27c-60 21.333 -102.667 32 -128 32c-56 0 -99.167 -21.167 -129.5 -63.5s-45.5 -101.833 -45.5 -178.5v-17
c0 -6 0.333008 -12.667 1 -20h30c-0.666992 0.666992 -1 3.66699 -1 9c0 99.333 39.667 149 119 149c11.333 0 21.666 -0.333008 30.999 -1s18 -1.66699 26 -3c13.333 -1.33301 24.666 -2.66602 33.999 -3.99902l21 -3c4.66699 -0.666992 10.167 -1.16699 16.5 -1.5
s13.166 -0.5 20.499 -0.5c-4.66699 0 -2 0.333008 8 1s27 1.66699 51 3c6.66699 0.666992 11.667 1 15 1h8l-25 -16c-54 -34 -100.5 -68.5 -139.5 -103.5s-70.833 -70.833 -95.5 -107.5c-46.667 -70.667 -70 -152 -70 -244c0 -118.667 35 -215.334 105 -290.001
s160.667 -112 272 -112c63.333 0 123 11.667 179 35c54 24 118.333 67 193 129c1.33301 -49.333 8.66602 -86.333 21.999 -111c14.667 -26 40.334 -49.333 77.001 -70zM870.002 202.998c-75.333 -61.333 -149.333 -96.333 -222 -105v286c34 22 69 33 105 33
c34.667 0 73.667 -11.667 117 -35v-179zM754.002 447.998c-33.333 0 -68.666 -8.33301 -105.999 -25v153c38.667 -24 78.667 -36 120 -36c36 0 70 8 102 24v-147c-40.667 20.667 -79.334 31 -116.001 31zM559.002 697.998c0 34 0.666992 61.666 2 82.999
s3.33301 37.333 6 48c6 21.333 22.333 46.333 49 75v-811c-6 -0.666992 -12.333 -1 -19 -1h-19c-74.667 0 -139.667 19.667 -195 59c36 21.333 66.833 43.5 92.5 66.5s46.167 46.167 61.5 69.5c14.667 20.667 22 57.334 22 110.001v301zM421.002 366.997
c0 -26 -1.16699 -48.5 -3.5 -67.5s-6.16602 -35.833 -11.499 -50.5s-12.333 -27.5 -21 -38.5s-19.334 -21.167 -32.001 -30.5c-66 70 -99 159.333 -99 268c0 188 99.333 332.333 298 433c-9.33301 -10 -15.333 -17 -18 -21l-52 -66c-24.667 -30.667 -41 -57.334 -49 -80.001
c-8 -23.333 -12 -54.666 -12 -93.999v-253zM552.002 1234l-89 -89l89 -89l89 89zM816.002 1234l-91 -89l91 -89l88 89z" />
    <glyph glyph-name="Yacute" unicode="&#xdd;" horiz-adv-x="1023" 
d="M100 912l14.0029 -23.999c20.667 10.667 38.667 16 54 16c46.667 0 80 -17.333 100 -52s30 -92 30 -172v-51c-46.667 29.333 -86 44 -118 44c-24.667 0 -50.334 -7 -77.001 -21l4 -23c3.33301 0.666992 6.66602 1 9.99902 1h11c49.333 0 90 -17.667 122 -53
s48 -80.666 48 -135.999v-28c-47.333 35.333 -94.666 53 -141.999 53c-16 0 -32.333 -2.33301 -49 -7v-18c29.333 -2 55.833 -9 79.5 -21s43.667 -28 60 -48s29 -43.833 38 -71.5s13.5 -57.834 13.5 -90.501v-25c-66.667 0 -121.334 -17.333 -164.001 -52
c-43.333 -35.333 -65 -79.333 -65 -132c0 -54.667 20.667 -100.667 62 -138c40.667 -38 91.334 -57 152.001 -57s147.334 30.667 260.001 92c52.667 28 89 42 109 42c20.667 0 31 -6.66699 31 -20c0 -0.666992 -1.66699 -5.33398 -5 -14.001
c-13.333 -18.667 -20 -35.334 -20 -50.001c0 -18 5.66699 -33.167 17 -45.5s25.666 -18.5 42.999 -18.5c42.667 0 64 23 64 69c0 35.333 -17.333 65.333 -52 90c-34 24 -76 36 -126 36c-35.333 0 -74 -6.33301 -116 -19l-40.5 -15l-71.5 -26
c-64 -23.333 -111.333 -35 -142 -35c-18 0 -34.833 3.16699 -50.5 9.5s-29.167 14.833 -40.5 25.5s-20.333 23.334 -27 38.001s-10 30.667 -10 48c0 44.667 20 79.5 60 104.5s96.333 37.5 169 37.5c23.333 0 58.666 -1 105.999 -3c46.667 -2 82 -3 106 -3
c152 0 264.5 35 337.5 105s109.5 178.667 109.5 326c0 100 -26 182 -78 246c-50.667 64.667 -116.667 97 -198 97c-64.667 0 -154.334 -33.667 -269.001 -101c-7.33301 -6.66699 -13 -10.667 -17 -12c-20 104 -82.333 156 -187 156c-54 0 -102.333 -18 -145 -54z
M495.003 185.001h-63v581c28.667 18.667 49.667 31.667 63 39v-620zM546.003 185.001h-20.001v201c46.667 38.667 96.334 58 149.001 58c56.667 0 110.667 -22.333 162 -67c-42 -128 -139 -192 -291 -192zM674.002 477.001c-50 0 -99.333 -17.666 -148 -52.999v194
c46.667 -38 98.334 -57 155.001 -57c30 0 57 4.66699 81 14c11.333 5.33301 24 12.166 38 20.499s28.667 18.833 44 31.5c6.66699 -30.667 10 -65 10 -103c0 -43.333 -3.33301 -80.333 -10 -111c-54.667 42.667 -111.334 64 -170.001 64zM678.002 591.002
c-14 0 -27.001 1.16699 -39.001 3.5s-24 6.16602 -36 11.499s-24.167 12.333 -36.5 21s-25.833 19.667 -40.5 33v162c40 17.333 74 26 102 26c48.667 0 91.667 -17.333 129 -52c39.333 -35.333 65.333 -80.666 78 -135.999c-45.333 -46 -97.666 -69 -156.999 -69z
M685.001 1224l-151 -170l223 45l50 125h-122z" />
    <glyph glyph-name="germandbls" unicode="&#xdf;" horiz-adv-x="671" 
d="M184 -17l119.997 93.999l-52 57v686l103.5 -91.5c33.667 -28.333 67.5 -54.5 101.5 -78.5l-194 -222l15 -15c40 22 71.667 33 95 33c30.667 0 55 -10.333 73 -31s27 -48.334 27 -83.001c0 -55.333 -25 -111.333 -75 -168
c-39.333 -45.333 -65.666 -78.666 -78.999 -99.999c-12 -21.333 -18 -42.666 -18 -63.999c0 -30 11.333 -55.333 34 -76c23.333 -21.333 50.333 -32 81 -32c30 0 45 10.667 45 32c0 12.667 -7.33301 19 -22 19c-5.33301 0 -12 -1.33301 -20 -4
c-11.333 -4.66699 -19.333 -7 -24 -7c-15.333 0 -28.666 6.33301 -39.999 19s-17 27.667 -17 45c0 39.333 45 93 135 161c65.333 48.667 107.333 86 126 112c20 26.667 30 59 30 97c0 52.667 -17 96.667 -51 132c-33.333 36 -74.666 54 -123.999 54
c-16.667 0 -33.334 -1.66699 -50.001 -5l174 199l-10 14c-7.33301 -2.66699 -13 -4 -17 -4c-19.333 0 -53.333 20 -102 60l-145 119c-3.33301 -3.33301 -6 -5.83301 -8 -7.5l-3 -2.5l-93 -66l-73 -52c-0.666992 -0.666992 -2.16699 -1.66699 -4.5 -3
s-5.16602 -3.33301 -8.49902 -6v-571c0 -19.333 -0.166992 -35.333 -0.5 -48s-0.833008 -21.667 -1.5 -27c-6 -27.333 -20 -46 -42 -56v-29c40.667 -20 78.667 -48 114 -84z" />
    <glyph glyph-name="agrave" unicode="&#xe0;" horiz-adv-x="633" 
d="M468 -17l150 117.002l-14 19c-17.333 -12.667 -30.666 -19 -39.999 -19c-20 0 -32.333 13.333 -37 40c-2 10 -3 31 -3 63v246c0 57.333 3 97.666 9 120.999c6 24 20.333 53.333 43 88l-20 13c-20 -21.333 -41.333 -32 -64 -32c-46.667 0 -110.334 21 -191.001 63
c-51.333 -40 -107 -60 -167 -60h-19c-6 0 -11.667 0.333008 -17 1l122 -217l-17 -19c-77.333 -89.333 -116 -169 -116 -239c0 -68.667 36.333 -130.334 109 -185.001l188 151c2.66699 -17.333 5.83398 -33 9.50098 -47s8.16699 -25.667 13.5 -35
c11.333 -19.333 31.666 -42.333 60.999 -69zM234 404.002l150 -63v-173l-91 -73c-58.667 50 -88 102.667 -88 158c0 50.667 9.66699 101 29 151zM143 618.002l241 -81v-168l-135 58zM201 831.002l223 -45l-149 170h-124z" />
    <glyph glyph-name="aacute" unicode="&#xe1;" horiz-adv-x="633" 
d="M468 -17l150 117.002l-14 19c-17.333 -12.667 -30.666 -19 -39.999 -19c-20 0 -32.333 13.333 -37 40c-2 10 -3 31 -3 63v246c0 57.333 3 97.666 9 120.999c6 24 20.333 53.333 43 88l-20 13c-20 -21.333 -41.333 -32 -64 -32c-46.667 0 -110.334 21 -191.001 63
c-51.333 -40 -107 -60 -167 -60h-19c-6 0 -11.667 0.333008 -17 1l122 -217l-17 -19c-77.333 -89.333 -116 -169 -116 -239c0 -68.667 36.333 -130.334 109 -185.001l188 151c2.66699 -17.333 5.83398 -33 9.50098 -47s8.16699 -25.667 13.5 -35
c11.333 -19.333 31.666 -42.333 60.999 -69zM234 404.002l150 -63v-173l-91 -73c-58.667 50 -88 102.667 -88 158c0 50.667 9.66699 101 29 151zM143 618.002l241 -81v-168l-135 58zM444 952.002l-150 -168l223 45l50 123h-123z" />
    <glyph glyph-name="acircumflex" unicode="&#xe2;" horiz-adv-x="633" 
d="M468 -17l150 117.002l-14 19c-17.333 -12.667 -30.666 -19 -39.999 -19c-20 0 -32.333 13.333 -37 40c-2 10 -3 31 -3 63v246c0 57.333 3 97.666 9 120.999c6 24 20.333 53.333 43 88l-20 13c-20 -21.333 -41.333 -32 -64 -32c-46.667 0 -110.334 21 -191.001 63
c-51.333 -40 -107 -60 -167 -60h-19c-6 0 -11.667 0.333008 -17 1l122 -217l-17 -19c-77.333 -89.333 -116 -169 -116 -239c0 -68.667 36.333 -130.334 109 -185.001l188 151c2.66699 -17.333 5.83398 -33 9.50098 -47s8.16699 -25.667 13.5 -35
c11.333 -19.333 31.666 -42.333 60.999 -69zM234 404.002l150 -63v-173l-91 -73c-58.667 50 -88 102.667 -88 158c0 50.667 9.66699 101 29 151zM143 618.002l241 -81v-168l-135 58zM352 1015l-203 -212l31 -16l110 112l208 -112l91 93z" />
    <glyph glyph-name="atilde" unicode="&#xe3;" horiz-adv-x="633" 
d="M468 -17l150 117.002l-14 19c-17.333 -12.667 -30.666 -19 -39.999 -19c-20 0 -32.333 13.333 -37 40c-2 10 -3 31 -3 63v246c0 57.333 3 97.666 9 120.999c6 24 20.333 53.333 43 88l-20 13c-20 -21.333 -41.333 -32 -64 -32c-46.667 0 -110.334 21 -191.001 63
c-51.333 -40 -107 -60 -167 -60h-19c-6 0 -11.667 0.333008 -17 1l122 -217l-17 -19c-77.333 -89.333 -116 -169 -116 -239c0 -68.667 36.333 -130.334 109 -185.001l188 151c2.66699 -17.333 5.83398 -33 9.50098 -47s8.16699 -25.667 13.5 -35
c11.333 -19.333 31.666 -42.333 60.999 -69zM234 404.002l150 -63v-173l-91 -73c-58.667 50 -88 102.667 -88 158c0 50.667 9.66699 101 29 151zM143 618.002l241 -81v-168l-135 58zM309 1005l-172 -144l29 -23l72 57l186 -109l198 172l-30 24l-94 -83z" />
    <glyph glyph-name="adieresis" unicode="&#xe4;" horiz-adv-x="633" 
d="M468 -17l150 117.002l-14 19c-17.333 -12.667 -30.666 -19 -39.999 -19c-20 0 -32.333 13.333 -37 40c-2 10 -3 31 -3 63v246c0 57.333 3 97.666 9 120.999c6 24 20.333 53.333 43 88l-20 13c-20 -21.333 -41.333 -32 -64 -32c-46.667 0 -110.334 21 -191.001 63
c-51.333 -40 -107 -60 -167 -60h-19c-6 0 -11.667 0.333008 -17 1l122 -217l-17 -19c-77.333 -89.333 -116 -169 -116 -239c0 -68.667 36.333 -130.334 109 -185.001l188 151c2.66699 -17.333 5.83398 -33 9.50098 -47s8.16699 -25.667 13.5 -35
c11.333 -19.333 31.666 -42.333 60.999 -69zM234 404.002l150 -63v-173l-91 -73c-58.667 50 -88 102.667 -88 158c0 50.667 9.66699 101 29 151zM143 618.002l241 -81v-168l-135 58zM212 966.002l-90 -90l90 -89l89 89zM477 966.002l-91 -90l91 -89l87 89z" />
    <glyph glyph-name="aring" unicode="&#xe5;" horiz-adv-x="633" 
d="M468 -17l150 117.002l-14 19c-17.333 -12.667 -30.666 -19 -39.999 -19c-20 0 -32.333 13.333 -37 40c-2 10 -3 31 -3 63v246c0 57.333 3 97.666 9 120.999c6 24 20.333 53.333 43 88l-20 13c-20 -21.333 -41.333 -32 -64 -32c-46.667 0 -110.334 21 -191.001 63
c-51.333 -40 -107 -60 -167 -60h-19c-6 0 -11.667 0.333008 -17 1l122 -217l-17 -19c-77.333 -89.333 -116 -169 -116 -239c0 -68.667 36.333 -130.334 109 -185.001l188 151c2.66699 -17.333 5.83398 -33 9.50098 -47s8.16699 -25.667 13.5 -35
c11.333 -19.333 31.666 -42.333 60.999 -69zM234 404.002l150 -63v-173l-91 -73c-58.667 50 -88 102.667 -88 158c0 50.667 9.66699 101 29 151zM143 618.002l241 -81v-168l-135 58zM222 937.002c0 -68 43.667 -116.667 131 -146c42 17.333 74.667 40.666 98 69.999
s35 61 35 95c0 72 -44.333 122 -133 150c-87.333 -45.333 -131 -101.666 -131 -168.999zM432 923.002c0 -28.667 -11.667 -52.6689 -35 -72.002c-38 10.667 -67.667 26.334 -89 47.001s-32 43.334 -32 68.001c0 30 10.667 56.333 32 79c38 -8 68.167 -22.833 90.5 -44.5
s33.5 -47.5 33.5 -77.5z" />
    <glyph glyph-name="ae" unicode="&#xe6;" horiz-adv-x="794" 
d="M202 -17l178 78c66.667 -18.667 125 -44.667 175 -78l205 143l-13 18l-103 -71c-40 28 -80.333 49.333 -121 64v133l252 216l-177 221l-120 -70c-57.333 6 -118 27.667 -182 65c-49.333 -44 -99 -66 -149 -66c-16 0 -32.333 1.66699 -49 5l120 -220
c-87.333 -95.333 -131 -181.666 -131 -258.999c0 -66.667 38.333 -126.334 115 -179.001zM141 611l242 -77v-222l-136 112zM238 401l145 -126.002v-177l-76 -33c-32 24.667 -57.667 53.834 -77 87.501s-29 66.834 -29 99.501c0 49.333 12.333 99 37 149zM660 434.998
l-137 -120v296z" />
    <glyph glyph-name="ccedilla" unicode="&#xe7;" horiz-adv-x="452" 
d="M278 -187c0 30 -21.334 65.335 -64.001 106.002l238 194l-16 19l-60 -49l-122 56v432l118 -67l70 105l-165 93c-71.333 -70.667 -144 -117.334 -218 -140.001v-17h14c18 0 29.333 -4.5 34 -13.5s7 -28.5 7 -58.5v-288c0 -26.667 -1.66699 -46.667 -5 -60
c-5.33301 -17.333 -16.666 -33.333 -33.999 -48v-16c6.66699 -1.33301 12.667 -2 18 -2c21.333 -3.33301 39.833 -7.16602 55.5 -11.499s29.5 -8.83301 41.5 -13.5s22.5 -9.33398 31.5 -14.001l25.5 -13c8.66699 -2.66699 14 -5 16 -7l-156 -125
c59.333 -30 89 -67.667 89 -113c0 -18.667 -8.66699 -43.334 -26 -74.001l8 -7c66.667 32.667 100 76.667 100 132z" />
    <glyph glyph-name="egrave" unicode="&#xe8;" horiz-adv-x="528" 
d="M285 -17l206.999 137.997l-14 20l-102 -68c-20 11.333 -40.167 22 -60.5 32s-41.166 19.667 -62.499 29v130l257 215l-172 223c-42.667 -25.333 -85.667 -49.166 -129 -71.499s-87.333 -43.166 -132 -62.499l-8.5 -3.5c-2.33301 -1 -4.83301 -2.16699 -7.5 -3.5l7 -15h5
c18 0 29.333 -4.33301 34 -13s7 -31 7 -67v-252c0 -33.333 -1.66699 -57.666 -5 -72.999c-6 -24 -19.667 -42 -41 -54v-14c66.667 -10.667 139 -40.667 217 -90zM396.999 431.997l-144 -120v303zM129.999 830.997l223 -45l-150 170h-122z" />
    <glyph glyph-name="eacute" unicode="&#xe9;" horiz-adv-x="528" 
d="M285 -17l206.999 137.997l-14 20l-102 -68c-20 11.333 -40.167 22 -60.5 32s-41.166 19.667 -62.499 29v130l257 215l-172 223c-42.667 -25.333 -85.667 -49.166 -129 -71.499s-87.333 -43.166 -132 -62.499l-8.5 -3.5c-2.33301 -1 -4.83301 -2.16699 -7.5 -3.5l7 -15h5
c18 0 29.333 -4.33301 34 -13s7 -31 7 -67v-252c0 -33.333 -1.66699 -57.666 -5 -72.999c-6 -24 -19.667 -42 -41 -54v-14c66.667 -10.667 139 -40.667 217 -90zM396.999 431.997l-144 -120v303zM344.999 951.997l-150 -168l224 45l49 123h-123z" />
    <glyph glyph-name="ecircumflex" unicode="&#xea;" horiz-adv-x="528" 
d="M285 -17l206.999 137.997l-14 20l-102 -68c-20 11.333 -40.167 22 -60.5 32s-41.166 19.667 -62.499 29v130l257 215l-172 223c-42.667 -25.333 -85.667 -49.166 -129 -71.499s-87.333 -43.166 -132 -62.499l-8.5 -3.5c-2.33301 -1 -4.83301 -2.16699 -7.5 -3.5l7 -15h5
c18 0 29.333 -4.33301 34 -13s7 -31 7 -67v-252c0 -33.333 -1.66699 -57.666 -5 -72.999c-6 -24 -19.667 -42 -41 -54v-14c66.667 -10.667 139 -40.667 217 -90zM396.999 431.997l-144 -120v303zM281.999 1015l-205 -212l32 -16l110 112l208 -112l90 93z" />
    <glyph glyph-name="edieresis" unicode="&#xeb;" horiz-adv-x="528" 
d="M285 -17l206.999 137.997l-14 20l-102 -68c-20 11.333 -40.167 22 -60.5 32s-41.166 19.667 -62.499 29v130l257 215l-172 223c-42.667 -25.333 -85.667 -49.166 -129 -71.499s-87.333 -43.166 -132 -62.499l-8.5 -3.5c-2.33301 -1 -4.83301 -2.16699 -7.5 -3.5l7 -15h5
c18 0 29.333 -4.33301 34 -13s7 -31 7 -67v-252c0 -33.333 -1.66699 -57.666 -5 -72.999c-6 -24 -19.667 -42 -41 -54v-14c66.667 -10.667 139 -40.667 217 -90zM396.999 431.997l-144 -120v303zM169.999 963.997l-89 -89l89 -89l89 89zM433.999 963.997l-90 -89l90 -89
l88 89z" />
    <glyph glyph-name="igrave" unicode="&#xec;" horiz-adv-x="352" 
d="M205 -17l147 115.001l-17 23l-42 -34l-40 34v439l48 44l-119 98l-117 -94l49 -42v-348c0 -33.333 -1 -54.333 -3 -63c-6 -22.667 -20 -37.334 -42 -44.001v-13c38.667 -24 84 -62.333 136 -115zM2 831.001l224 -45l-150 170h-121z" />
    <glyph glyph-name="iacute" unicode="&#xed;" horiz-adv-x="352" 
d="M205 -17l147 115.001l-17 23l-42 -34l-40 34v439l48 44l-119 98l-117 -94l49 -42v-348c0 -33.333 -1 -54.333 -3 -63c-6 -22.667 -20 -37.334 -42 -44.001v-13c38.667 -24 84 -62.333 136 -115zM302 952.001l-150 -168l224 45l50 123h-124z" />
    <glyph glyph-name="icircumflex" unicode="&#xee;" horiz-adv-x="352" 
d="M205 -17l147 115.001l-17 23l-42 -34l-40 34v439l48 44l-119 98l-117 -94l49 -42v-348c0 -33.333 -1 -54.333 -3 -63c-6 -22.667 -20 -37.334 -42 -44.001v-13c38.667 -24 84 -62.333 136 -115zM196 1015l-202 -212l30 -16l110 112l208 -112l91 93z" />
    <glyph glyph-name="idieresis" unicode="&#xef;" horiz-adv-x="352" 
d="M205 -17l147 115.001l-17 23l-42 -34l-40 34v439l48 44l-119 98l-117 -94l49 -42v-348c0 -33.333 -1 -54.333 -3 -63c-6 -22.667 -20 -37.334 -42 -44.001v-13c38.667 -24 84 -62.333 136 -115zM84 964.001l-88 -89l88 -89l90 89zM350 964.001l-91 -89l91 -89l86 89z" />
    <glyph glyph-name="ntilde" unicode="&#xf1;" horiz-adv-x="646" 
d="M172 702l-140 -106.001l16 -22c18 10 29.667 15 35 15c6.66699 0 12 -1.16699 16 -3.5s7.16699 -6.66602 9.5 -12.999s3.83301 -15.5 4.5 -27.5s1 -27.333 1 -46v-363l-55 -52l121 -101l122 98l-48 52v390l98 81l55 -57v-356c0 -60 3.66699 -100.333 11 -121
s27.333 -45.334 60 -74.001c1.33301 -1.33301 3.33301 -3.16602 6 -5.49902l9 -7.5l149 119l-17 28l-6.5 -5c-1.66699 -1.33301 -3.16699 -2.66602 -4.5 -3.99902c-15.333 -10.667 -26.333 -16 -33 -16c-18 0 -29 15.333 -33 46c-0.666992 3.33301 -1 10.333 -1 21v44v241
c0 49.333 4.33301 84.666 13 105.999c8.66699 22.667 28.667 48.667 60 78l-21 22l-66 -64l-104 103l-175 -146c-0.666992 3.33301 -1 9.33301 -1 18c0 27.333 -5.33301 49.333 -16 66c-8 12 -24.667 28.667 -50 50zM296 1005l-174 -144l30 -23l72 57l186 -109l198 172
l-30 24l-94 -83z" />
    <glyph glyph-name="ograve" unicode="&#xf2;" horiz-adv-x="578" 
d="M510 93l-0.000976562 505.001c-40.667 10.667 -79.5 24.5 -116.5 41.5s-72.5 37.833 -106.5 62.5c-57.333 -52.667 -124 -91.667 -200 -117v-322c0 -46.667 -1 -75.334 -3 -86.001c-5.33301 -32 -18 -55.667 -38 -71v-17c86.667 -6.66699 173.334 -42 260.001 -106
c46.667 37.333 114.667 74 204 110zM223.999 159.001v431l148 -64v-430zM118.999 831.001l223 -45l-149 170h-124z" />
    <glyph glyph-name="oacute" unicode="&#xf3;" horiz-adv-x="578" 
d="M510 93l-0.000976562 505.001c-40.667 10.667 -79.5 24.5 -116.5 41.5s-72.5 37.833 -106.5 62.5c-57.333 -52.667 -124 -91.667 -200 -117v-322c0 -46.667 -1 -75.334 -3 -86.001c-5.33301 -32 -18 -55.667 -38 -71v-17c86.667 -6.66699 173.334 -42 260.001 -106
c46.667 37.333 114.667 74 204 110zM223.999 159.001v431l148 -64v-430zM387.999 952.001l-150 -168l223 45l49 123h-122z" />
    <glyph glyph-name="ocircumflex" unicode="&#xf4;" horiz-adv-x="578" 
d="M510 93l-0.000976562 505.001c-40.667 10.667 -79.5 24.5 -116.5 41.5s-72.5 37.833 -106.5 62.5c-57.333 -52.667 -124 -91.667 -200 -117v-322c0 -46.667 -1 -75.334 -3 -86.001c-5.33301 -32 -18 -55.667 -38 -71v-17c86.667 -6.66699 173.334 -42 260.001 -106
c46.667 37.333 114.667 74 204 110zM223.999 159.001v431l148 -64v-430zM312.999 1015l-204 -212l31 -16l110 112l208 -112l90 93z" />
    <glyph glyph-name="otilde" unicode="&#xf5;" horiz-adv-x="578" 
d="M510 93l-0.000976562 505.001c-40.667 10.667 -79.5 24.5 -116.5 41.5s-72.5 37.833 -106.5 62.5c-57.333 -52.667 -124 -91.667 -200 -117v-322c0 -46.667 -1 -75.334 -3 -86.001c-5.33301 -32 -18 -55.667 -38 -71v-17c86.667 -6.66699 173.334 -42 260.001 -106
c46.667 37.333 114.667 74 204 110zM223.999 159.001v431l148 -64v-430zM252.999 1005l-172 -144l30 -23l70 57l186 -109l199 172l-30 24l-95 -83z" />
    <glyph glyph-name="odieresis" unicode="&#xf6;" horiz-adv-x="578" 
d="M510 93l-0.000976562 505.001c-40.667 10.667 -79.5 24.5 -116.5 41.5s-72.5 37.833 -106.5 62.5c-57.333 -52.667 -124 -91.667 -200 -117v-322c0 -46.667 -1 -75.334 -3 -86.001c-5.33301 -32 -18 -55.667 -38 -71v-17c86.667 -6.66699 173.334 -42 260.001 -106
c46.667 37.333 114.667 74 204 110zM223.999 159.001v431l148 -64v-430zM183.999 964.001l-89 -89l89 -89l88 89zM447.999 964.001l-90 -89l90 -89l88 89z" />
    <glyph glyph-name="divide" unicode="&#xf7;" horiz-adv-x="468" 
d="M307 449c0 20.667 -7.16699 38.334 -21.5 53.001s-31.5 22 -51.5 22c-19.333 0 -36.166 -7.33301 -50.499 -22s-21.5 -32.334 -21.5 -53.001c0 -19.333 7.16699 -36 21.5 -50s31.166 -21 50.499 -21c20 0 37.167 7 51.5 21s21.5 30.667 21.5 50zM444 237v98h-418v-98h418
zM307 121c0 20 -7.16699 37 -21.5 51s-31.5 21 -51.5 21c-19.333 0 -36.166 -7 -50.499 -21s-21.5 -31 -21.5 -51c0 -20.667 7.16699 -38 21.5 -52s31.166 -21 50.499 -21c20 0 37.167 7 51.5 21s21.5 31.333 21.5 52z" />
    <glyph glyph-name="oslash" unicode="&#xf8;" horiz-adv-x="578" 
d="M570 725l-100.003 -115.999c-49.333 16 -106.666 44 -171.999 84c-2.66699 1.33301 -5 2.83301 -7 4.5s-4 3.16699 -6 4.5c-46 -45.333 -112 -84.333 -198 -117v-339c0 -37.333 -1 -60.333 -3 -69c-4 -24.667 -13.667 -44.667 -29 -60
c-40.667 -40.667 -61 -77.667 -61 -111c0 -16 4.5 -29.167 13.5 -39.5s21.5 -15.5 37.5 -15.5c12.667 0 23.334 4.16699 32.001 12.5s13 18.166 13 29.499c0 4 -3.66699 15 -11 33c-6.66699 16 -10 27 -10 33c0 15.333 9 23 27 23s49.667 -10.333 95 -31
c42.667 -20 80.334 -42.667 113.001 -68c46 40 114.667 76.333 206 109v486l102 124zM371.997 495.001l-148 -172v267l148 -64v-31zM371.997 96.001l-148 63v90l148 172v-325z" />
    <glyph glyph-name="ugrave" unicode="&#xf9;" horiz-adv-x="648" 
d="M184 702l-146.001 -128.999l19 -21l27 21l30 -21v-344c0 -38.667 -2 -63.334 -6 -74.001c-4 -9.33301 -15 -17.666 -33 -24.999v-19c48 -21.333 100 -57 156 -107l185 169v-15c0 -35.333 4.66699 -63 14 -83c4.66699 -9.33301 11.667 -18.833 21 -28.5
s21 -19.834 35 -30.501c3.33301 -3.33301 9 -7.33301 17 -12l141 107l-21 24c-13.333 -9.33301 -23.666 -14 -30.999 -14c-25.333 0 -38 26.667 -38 80v375l46 43l-118 104l-116 -104l50 -43v-367l-100 -90l-63 51v406l48 43zM132.999 831.001l224 -45l-150 170h-124z" />
    <glyph glyph-name="uacute" unicode="&#xfa;" horiz-adv-x="648" 
d="M184 702l-146.001 -128.999l19 -21l27 21l30 -21v-344c0 -38.667 -2 -63.334 -6 -74.001c-4 -9.33301 -15 -17.666 -33 -24.999v-19c48 -21.333 100 -57 156 -107l185 169v-15c0 -35.333 4.66699 -63 14 -83c4.66699 -9.33301 11.667 -18.833 21 -28.5
s21 -19.834 35 -30.501c3.33301 -3.33301 9 -7.33301 17 -12l141 107l-21 24c-13.333 -9.33301 -23.666 -14 -30.999 -14c-25.333 0 -38 26.667 -38 80v375l46 43l-118 104l-116 -104l50 -43v-367l-100 -90l-63 51v406l48 43zM428.999 952.001l-150 -168l224 45l50 123h-124
z" />
    <glyph glyph-name="ucircumflex" unicode="&#xfb;" horiz-adv-x="648" 
d="M184 702l-146.001 -128.999l19 -21l27 21l30 -21v-344c0 -38.667 -2 -63.334 -6 -74.001c-4 -9.33301 -15 -17.666 -33 -24.999v-19c48 -21.333 100 -57 156 -107l185 169v-15c0 -35.333 4.66699 -63 14 -83c4.66699 -9.33301 11.667 -18.833 21 -28.5
s21 -19.834 35 -30.501c3.33301 -3.33301 9 -7.33301 17 -12l141 107l-21 24c-13.333 -9.33301 -23.666 -14 -30.999 -14c-25.333 0 -38 26.667 -38 80v375l46 43l-118 104l-116 -104l50 -43v-367l-100 -90l-63 51v406l48 43zM340.999 1015l-204 -212l31 -16l110 112
l208 -112l91 93z" />
    <glyph glyph-name="udieresis" unicode="&#xfc;" horiz-adv-x="648" 
d="M184 702l-146.001 -128.999l19 -21l27 21l30 -21v-344c0 -38.667 -2 -63.334 -6 -74.001c-4 -9.33301 -15 -17.666 -33 -24.999v-19c48 -21.333 100 -57 156 -107l185 169v-15c0 -35.333 4.66699 -63 14 -83c4.66699 -9.33301 11.667 -18.833 21 -28.5
s21 -19.834 35 -30.501c3.33301 -3.33301 9 -7.33301 17 -12l141 107l-21 24c-13.333 -9.33301 -23.666 -14 -30.999 -14c-25.333 0 -38 26.667 -38 80v375l46 43l-118 104l-116 -104l50 -43v-367l-100 -90l-63 51v406l48 43zM196.999 964.001l-88 -89l88 -89l90 89z
M462.999 964.001l-91 -89l91 -89l88 89z" />
    <glyph glyph-name="yacute" unicode="&#xfd;" horiz-adv-x="571" 
d="M164 702l-144.001 -121.001l18 -20l7 6c13.333 11.333 25.333 17 36 17c17.333 0 28 -12 32 -36c0.666992 -3.33301 1 -9.66602 1 -18.999v-37v-314c0 -46 -2.66699 -78 -8 -96c-5.33301 -17.333 -20 -42 -44 -74c-16 -20 -26 -35.333 -30 -46
c-6 -15.333 -9 -33.333 -9 -54c0 -36 12.833 -64 38.5 -84s61.834 -30 108.501 -30s86 7.33301 118 22c33.333 14 50 30.333 50 49c0 8 -3 15 -9 21s-13 9 -21 9c-13.333 0 -30.333 -10.333 -51 -31c-26.667 -26.667 -59.667 -40 -99 -40c-30 0 -54.167 7.5 -72.5 22.5
s-27.5 34.5 -27.5 58.5c0 27.333 9.33301 50.333 28 69c18 18 56.333 44.667 115 80c126 73.333 214.667 140.666 266 201.999c50.667 60.667 76 130.334 76 209.001c0 92.667 -30.667 169.667 -92 231l-195 -155v12c0 36 -6.66699 64.333 -20 85
c-12.667 20.667 -36.667 42 -72 64zM253.999 121.999v382l97 77c36 -51.333 54 -108.333 54 -171c0 -53.333 -14 -106.333 -42 -159c-26.667 -52 -63 -95 -109 -129zM428.999 951.999l-150 -168l224 45l50 123h-124z" />
    <glyph glyph-name="ydieresis" unicode="&#xff;" horiz-adv-x="571" 
d="M164 702l-144.001 -121.001l18 -20l7 6c13.333 11.333 25.333 17 36 17c17.333 0 28 -12 32 -36c0.666992 -3.33301 1 -9.66602 1 -18.999v-37v-314c0 -46 -2.66699 -78 -8 -96c-5.33301 -17.333 -20 -42 -44 -74c-16 -20 -26 -35.333 -30 -46
c-6 -15.333 -9 -33.333 -9 -54c0 -36 12.833 -64 38.5 -84s61.834 -30 108.501 -30s86 7.33301 118 22c33.333 14 50 30.333 50 49c0 8 -3 15 -9 21s-13 9 -21 9c-13.333 0 -30.333 -10.333 -51 -31c-26.667 -26.667 -59.667 -40 -99 -40c-30 0 -54.167 7.5 -72.5 22.5
s-27.5 34.5 -27.5 58.5c0 27.333 9.33301 50.333 28 69c18 18 56.333 44.667 115 80c126 73.333 214.667 140.666 266 201.999c50.667 60.667 76 130.334 76 209.001c0 92.667 -30.667 169.667 -92 231l-195 -155v12c0 36 -6.66699 64.333 -20 85
c-12.667 20.667 -36.667 42 -72 64zM253.999 121.999v382l97 77c36 -51.333 54 -108.333 54 -171c0 -53.333 -14 -106.333 -42 -159c-26.667 -52 -63 -95 -109 -129zM196.999 963.999l-88 -89l88 -89l90 89zM462.999 963.999l-91 -89l91 -89l88 89z" />
    <glyph glyph-name="OE" unicode="&#x152;" horiz-adv-x="1769" 
d="M178 486c0 116.667 45.667 208.667 137 276v-372c0 -20.667 -0.5 -38.167 -1.5 -52.5s-2.16699 -25.5 -3.5 -33.5c-6 -27.333 -20 -51.333 -42 -72c-60 84 -90 168.667 -90 254zM448 844c13.333 0 26 -0.499023 38 -1.49902s23.667 -2.16699 35 -3.5v-746
c-91.333 11.333 -168.333 49.666 -231 114.999c70 54.667 113.667 97 131 127c18 30.667 27 78 27 142v367zM713 577.001c-54.667 0 -108.336 22.001 -161.003 66.001v194c36.667 -5.33301 71.334 -13.666 104.001 -24.999s62.834 -25.333 90.501 -42
s52.167 -35.834 73.5 -57.501s39 -44.834 53 -69.501c-49.333 -44 -102.666 -66 -159.999 -66zM706.998 458.002c-56 0 -107.667 -20.667 -155 -62v215c52.667 -42 108 -63 166 -63c54 0 109.667 21 167 63c13.333 -41.333 20 -79 20 -113c0 -30.667 -6 -71 -18 -121
c-59.333 54 -119.333 81 -180 81zM563.998 93.002h-12v260c42.667 50 95 75 157 75c65.333 0 121 -28 167 -84c-25.333 -74 -67.333 -134.333 -126 -181s-120.667 -70 -186 -70zM1408 121.002l-0.000976562 418.999l231 -8l74 131l-164 4l200 202l-8 20
c-5.33301 -0.666992 -11 -1 -17 -1h-18c-71.333 0 -157.666 25.333 -258.999 76l-279 -222v-327c0 -37.333 -3 -62.333 -9 -75c-5.33301 -14 -19.333 -31.333 -42 -52c-45.333 64 -71.333 137.333 -78 220c0.666992 4.66699 1 9.33398 1 14.001v15v16
c0 6 -0.333008 11.667 -1 17c9.33301 121.333 76.666 224.333 201.999 309l-13 22c-103.333 -55.333 -180 -118.333 -230 -189c-34.667 66.667 -87 122 -157 166s-152.667 73.333 -248 88l-461 -278c-42 -99.333 -63 -193 -63 -281c0 -118.667 39 -218.334 117 -299.001
s174.667 -121 290 -121c68.667 0 141.334 22.333 218.001 67c79.333 45.333 152.333 107 219 185c16 18 29 34.333 39 49c32.667 -91.333 86.667 -164.333 162 -219c75.333 -55.333 160.666 -83 255.999 -83c82 0 157.333 20.833 226 62.5s127.334 102.834 176.001 183.501
l-11 14c-111.333 -83.333 -224 -125 -338 -125h-15zM1609 769.001l-201 -202.002v276c30 -17.333 61.5 -32.166 94.5 -44.499s68.5 -22.166 106.5 -29.499zM1303 797.999l73.999 58.999v-732c-101.333 16 -182.666 62.667 -243.999 140l79 64c42 34 67.667 60.667 77 80
c9.33301 20.667 14 53.334 14 98.001v291z" />
    <glyph glyph-name="oe" unicode="&#x153;" horiz-adv-x="784" 
d="M306 -17c14 11.333 29.666 22.333 46.999 33s36.333 21.334 57 32.001c30.667 -13.333 68.667 -32.333 114 -57c3.33301 -1.33301 6.5 -2.66602 9.5 -3.99902s5.5 -2.66602 7.5 -3.99902l208 142l-14 20l-101 -69l-59.5 31.5l-64.5 31.5v132l258 218l-172 228
c-62.667 -36 -107 -60.667 -133 -74c-15.333 -8 -24.833 -12.5 -28.5 -13.5s-6.16699 -3.16699 -7.5 -6.5l-10 5c-30 15.333 -55.833 29.166 -77.5 41.499s-39.167 23.166 -52.5 32.499c-56 -50.667 -122.667 -89.667 -200 -117v-322c0 -46.667 -1 -75.334 -3 -86.001
c-5.33301 -32 -18 -55.667 -38 -71v-17c88.667 -6.66699 175.334 -42 260.001 -106zM371.999 526v-348c-4 -33.333 -12 -57.333 -24 -72l-123 53v431zM654.999 441l-145 -122v310z" />
    <glyph glyph-name="Scaron" unicode="&#x160;" horiz-adv-x="1102" 
d="M740 870l-276.999 99c-166 -125.333 -249 -234.333 -249 -327v-6c0.666992 -2 1 -4.66699 1 -8c-79.333 -31.333 -119 -81.333 -119 -150c0 -50.667 21.333 -89.667 64 -117s104.334 -41 185.001 -41h30c13.333 0.666992 23.333 1 30 1
c7.33301 0 12.666 0.333008 15.999 1l-49 -88c-21.333 3.33301 -39.833 5.83301 -55.5 7.5s-28.834 2.5 -39.501 2.5c-62 0 -112.333 -12.333 -151 -37c-38 -25.333 -57 -57.333 -57 -96c0 -38 15.333 -68.167 46 -90.5s72 -33.5 124 -33.5c71.333 0 167 29 287 87
c8 -4.66699 14.333 -7.66699 19 -9l59 -22l59 -26l18 -9c257.333 127.333 386 262.333 386 405c0 78 -31.167 138.333 -93.5 181s-150.5 64 -264.5 64c-9.33301 0 -18.833 -0.166992 -28.5 -0.5s-19.167 -0.833008 -28.5 -1.5l157 273l-25 16zM435.001 848
c61.333 0 142.666 -27.667 243.999 -83l-65 -112c-5.33301 -0.666992 -9.66602 -1 -12.999 -1h-8c-38 -3.33301 -69.5 -5.83301 -94.5 -7.5s-43.167 -2.5 -54.5 -2.5c-94.667 0 -142 31 -142 93c0 16 3.33301 31 10 45s16 26 28 36s26 17.833 42 23.5s33.667 8.5 53 8.5z
M517.001 530l29.002 3.00098l-53 -89c-34.667 -2.66699 -63 -4.66699 -85 -6s-38.333 -2 -49 -2c-118.667 0 -178 32.333 -178 97c0 26.667 12.667 49 38 67c11.333 -30.667 28.333 -51.334 51 -62.001c23.333 -10.667 62.666 -16 117.999 -16
c9.33301 0 24.666 0.666992 45.999 2s49 3.33301 83 6zM554.003 449.001c-0.666992 0 -3.00098 -0.164062 -7.00098 -0.49707s-9.66699 -0.833008 -17 -1.5l53 90c37.333 2.66699 66.333 4.66699 87 6s33.667 2 39 2c40 0 76 -4.5 108 -13.5s59.333 -21.833 82 -38.5
s40 -36.834 52 -60.501s18 -49.834 18 -78.501c0 -86.667 -57 -169 -171 -247c-34 15.333 -68.667 28.666 -104 39.999c4.66699 2.66699 8.33398 4.83398 11.001 6.50098s4.66699 2.83398 6 3.50098c34.667 19.333 63.834 37.166 87.501 53.499s42.167 31.166 55.5 44.499
c26 26.667 39 55.667 39 87c0 38 -16.333 67.833 -49 89.5s-77.334 32.5 -134.001 32.5c-26 0 -45.333 -1 -58 -3zM424.002 225.004l-19 3.99902l53 93c12.667 2 20.667 3 24 3l147 17c10 1.33301 20.5 2.33301 31.5 3s22.167 1 33.5 1c24 0 43.667 -5 59 -15
s23 -22.667 23 -38c0 -33.333 -39.333 -74 -118 -122l-12 -7c-43.333 14 -81.333 25 -114 33c-5.33301 2.66699 -18.333 6.33398 -39 11.001zM229.002 136.003c80 0 164.999 -16.333 254.999 -49c-97.333 -48 -181.666 -72 -252.999 -72c-66 0 -99 20 -99 60
c0 40.667 32.333 61 97 61zM609.001 1054l203 211l-31 16l-110 -112l-207 112l-91 -92z" />
    <glyph glyph-name="scaron" unicode="&#x161;" horiz-adv-x="625" 
d="M219 253l-181 -253.996l19 -16c44.667 36 91 54 139 54c50 0 103.667 -18 161 -54c57.333 51.333 122.666 87.666 195.999 108.999v277l-146 85l121 166c38.667 52.667 58 97 58 133c0 37.333 -16.333 56 -49 56c-28 0 -42 -13.333 -42 -40
c-0.666992 -6.66699 0.5 -12.834 3.5 -18.501s6.5 -11.334 10.5 -17.001s7.83301 -11.5 11.5 -17.5s5.5 -12.667 5.5 -20c0 -30.667 -23.667 -46 -71 -46c-55.333 0 -116.333 17.333 -183 52c-11.333 -16.667 -23.5 -31.334 -36.5 -44.001s-26.167 -23.667 -39.5 -33
c-27.333 -18 -63.666 -34 -108.999 -48v-252zM327 339.004l83.001 -46v-191c-52 28 -98.667 42 -140 42c-28.667 0 -60.334 -6 -95.001 -18zM296.001 360.004l-70 41v190c44.667 -30 95 -45 151 -45c8 0 16.333 0.166992 25 0.5s17.667 0.833008 27 1.5zM337.001 787.004
l204 213l-32 15l-109 -111l-209 111l-90 -92z" />
    <glyph glyph-name="Ydieresis" unicode="&#x178;" horiz-adv-x="1023" 
d="M100 912l14.0029 -23.999c20.667 10.667 38.667 16 54 16c46.667 0 80 -17.333 100 -52s30 -92 30 -172v-51c-46.667 29.333 -86 44 -118 44c-24.667 0 -50.334 -7 -77.001 -21l4 -23c3.33301 0.666992 6.66602 1 9.99902 1h11c49.333 0 90 -17.667 122 -53
s48 -80.666 48 -135.999v-28c-47.333 35.333 -94.666 53 -141.999 53c-16 0 -32.333 -2.33301 -49 -7v-18c29.333 -2 55.833 -9 79.5 -21s43.667 -28 60 -48s29 -43.833 38 -71.5s13.5 -57.834 13.5 -90.501v-25c-66.667 0 -121.334 -17.333 -164.001 -52
c-43.333 -35.333 -65 -79.333 -65 -132c0 -54.667 20.667 -100.667 62 -138c40.667 -38 91.334 -57 152.001 -57s147.334 30.667 260.001 92c52.667 28 89 42 109 42c20.667 0 31 -6.66699 31 -20c0 -0.666992 -1.66699 -5.33398 -5 -14.001
c-13.333 -18.667 -20 -35.334 -20 -50.001c0 -18 5.66699 -33.167 17 -45.5s25.666 -18.5 42.999 -18.5c42.667 0 64 23 64 69c0 35.333 -17.333 65.333 -52 90c-34 24 -76 36 -126 36c-35.333 0 -74 -6.33301 -116 -19l-40.5 -15l-71.5 -26
c-64 -23.333 -111.333 -35 -142 -35c-18 0 -34.833 3.16699 -50.5 9.5s-29.167 14.833 -40.5 25.5s-20.333 23.334 -27 38.001s-10 30.667 -10 48c0 44.667 20 79.5 60 104.5s96.333 37.5 169 37.5c23.333 0 58.666 -1 105.999 -3c46.667 -2 82 -3 106 -3
c152 0 264.5 35 337.5 105s109.5 178.667 109.5 326c0 100 -26 182 -78 246c-50.667 64.667 -116.667 97 -198 97c-64.667 0 -154.334 -33.667 -269.001 -101c-7.33301 -6.66699 -13 -10.667 -17 -12c-20 104 -82.333 156 -187 156c-54 0 -102.333 -18 -145 -54z
M495.003 185.001h-63v581c28.667 18.667 49.667 31.667 63 39v-620zM546.003 185.001h-20.001v201c46.667 38.667 96.334 58 149.001 58c56.667 0 110.667 -22.333 162 -67c-42 -128 -139 -192 -291 -192zM674.002 477.001c-50 0 -99.333 -17.666 -148 -52.999v194
c46.667 -38 98.334 -57 155.001 -57c30 0 57 4.66699 81 14c11.333 5.33301 24 12.166 38 20.499s28.667 18.833 44 31.5c6.66699 -30.667 10 -65 10 -103c0 -43.333 -3.33301 -80.333 -10 -111c-54.667 42.667 -111.334 64 -170.001 64zM678.002 591.002
c-14 0 -27.001 1.16699 -39.001 3.5s-24 6.16602 -36 11.499s-24.167 12.333 -36.5 21s-25.833 19.667 -40.5 33v162c40 17.333 74 26 102 26c48.667 0 91.667 -17.333 129 -52c39.333 -35.333 65.333 -80.666 78 -135.999c-45.333 -46 -97.666 -69 -156.999 -69z
M466.001 1239l-89 -89l89 -89l89 89zM731.001 1239l-90 -89l90 -89l87 89z" />
    <glyph glyph-name="florin" unicode="&#x192;" horiz-adv-x="458" 
d="M107 673l-13.998 -75.002h65l-85 -486c-22 -119.333 -44 -200 -66 -242c-20.667 -41.333 -60 -76.666 -118 -105.999l5 -20c171.333 12 276 125 314 339l90 515h91l13 75h-90l38 212l113 -28l41 110l-135 33c-32.667 -25.333 -62.334 -47.166 -89.001 -65.499
s-50.334 -33.833 -71.001 -46.5l-38 -215h-64z" />
    <glyph glyph-name="circumflex" unicode="&#x2c6;" horiz-adv-x="536" 
d="M262 1015l-204 -212l31 -16l111 112l207 -112l91 93z" />
    <glyph glyph-name="tilde" unicode="&#x2dc;" horiz-adv-x="646" 
d="M268 1007l-173 -145l30 -23l70 58l187 -110l198 173l-29 25l-96 -85z" />
    <glyph glyph-name="endash" unicode="&#x2013;" 
d="M590 417l-431.999 -0.000976562c-7.33301 -19.333 -15.166 -38.666 -23.499 -57.999s-17.833 -38.333 -28.5 -57h434c9.33301 24.667 18.166 46.5 26.499 65.5s16.166 35.5 23.499 49.5z" />
    <glyph glyph-name="emdash" unicode="&#x2014;" horiz-adv-x="866" 
d="M813 417h-699.996c-8.66699 -22.667 -17.334 -43.5 -26.001 -62.5s-17.334 -36.5 -26.001 -52.5h702c9.33301 24.667 18.166 46.5 26.499 65.5s16.166 35.5 23.499 49.5z" />
    <glyph glyph-name="quoteleft" unicode="&#x2018;" horiz-adv-x="276" 
d="M218 966c-90 -34.667 -146.667 -102.667 -170 -204l91 -89l90 92l-10 8c-32 32.667 -48 60.667 -48 84c0 24.667 19.333 52 58 82z" />
    <glyph glyph-name="quoteright" unicode="&#x2019;" horiz-adv-x="276" 
d="M58 673c88 32.667 145 100.333 171 203l-92 90l-89 -92l9 -8c32 -28 48 -56 48 -84c0 -26 -19 -53.333 -57 -82z" />
    <glyph glyph-name="quotesinglbase" unicode="&#x201a;" horiz-adv-x="332" 
d="M87 -132c98.667 38.667 161.333 114.333 188 227l-103 99l-98 -102l9 -10c36 -35.333 54 -66.333 54 -93c0 -26 -21 -56 -63 -90z" />
    <glyph glyph-name="quotedblleft" unicode="&#x201c;" horiz-adv-x="504" 
d="M218 966c-90 -34.667 -146.667 -102.667 -170 -204l91 -89l90 92l-10 8c-32 32.667 -48 60.667 -48 84c0 24.667 19.333 52 58 82zM447 966c-91.333 -33.333 -148.333 -101.333 -171 -204l91 -89l90 92l-9 8c-31.333 31.333 -47 59.333 -47 84s18.667 52 56 82z" />
    <glyph glyph-name="quotedblright" unicode="&#x201d;" horiz-adv-x="504" 
d="M58 673c88 32.667 145 100.333 171 203l-92 90l-89 -92l9 -8c32 -28 48 -56 48 -84c0 -26 -19 -53.333 -57 -82zM287 672.999c89.333 33.333 146 101 170 203l-92 90l-89 -92l9 -8c32.667 -28.667 49 -56.667 49 -84c0 -24 -19.333 -51.333 -58 -82z" />
    <glyph glyph-name="quotedblbase" unicode="&#x201e;" horiz-adv-x="528" 
d="M81 -110c89.333 35.333 146.333 103.667 171 205l-93 89l-89 -92l10 -10c31.333 -32.667 47 -60 47 -82c0 -23.333 -19 -50.333 -57 -81zM309 -109.999c90 34.667 146.667 103 170 205l-91 89l-90 -92l10 -10c32.667 -32.667 49 -60 49 -82
c0 -22.667 -19.667 -49.667 -59 -81z" />
    <glyph glyph-name="dagger" unicode="&#x2020;" horiz-adv-x="562" 
d="M463 334l107.003 98l-54 48l-31 28.5l-21 20.5c-30 -26.667 -53 -44.334 -69 -53.001c-22.667 -12 -50.334 -19 -83.001 -21c0 62 24.667 121.667 74 179c-33.333 28.667 -68.333 66.667 -105 114c-39.333 -50 -74.333 -88 -105 -114c12 -14 23 -28.833 33 -44.5
s18.167 -31.5 24.5 -47.5s11.166 -31.5 14.499 -46.5s4.66602 -28.833 3.99902 -41.5c-53.333 4 -104.333 28.333 -153 73l-100 -95l60.5 -60l39.5 -39c50.667 48 102 73 154 75c0.666992 -95.333 -1.16602 -174 -5.49902 -236s-10.833 -108.667 -19.5 -140
c-9.33301 -31.333 -26.333 -72.333 -51 -123l54 -70.5l50 -70.5l39 57.5c9.33301 13.667 15 21.834 17 24.501c14 18 30 37 48 57c-14.667 31.333 -26.334 58.166 -35.001 80.499s-14.667 40.833 -18 55.5c-9.33301 39.333 -15.333 82 -18 128
c-0.666992 6.66699 -1 20.334 -1 41.001c0 21.333 -0.333008 50 -1 86c-2 56.667 -2 94 0 112c52 -2.66699 102.333 -28 151 -76z" />
    <glyph glyph-name="bullet" unicode="&#x2022;" horiz-adv-x="440" 
d="M386 331c0 46 -16.333 85 -49 117c-32 32.667 -71 49 -117 49s-85.333 -16.333 -118 -49c-32 -32 -48 -71 -48 -117c0 -47.333 16 -87.333 48 -120c32.667 -32 72 -48 118 -48c46.667 0 86 16 118 48c32 32.667 48 72.667 48 120z" />
    <glyph glyph-name="ellipsis" unicode="&#x2026;" horiz-adv-x="995" 
d="M856 187l-102 -104l102 -100l104 100zM193 187l-103 -104l103 -100l103 100zM524 187l-102 -104l102 -100l104 100z" />
    <glyph glyph-name="perthousand" unicode="&#x2030;" horiz-adv-x="1090" 
d="M48 665c0 -100 53.333 -172.334 160 -217.001c44.667 24 80.667 58.667 108 104c28 46 42 93.333 42 142c0 50 -14.333 94.333 -43 133s-68 66.334 -118 83.001c-99.333 -69.333 -149 -151 -149 -245zM576 899.999l-458 -887l44 -22l458 887zM377 196.999
c0 -98.667 53.999 -170.002 161.999 -214.002c44.667 23.333 80.334 57.333 107.001 102c28 44.667 42 92 42 142c0 24.667 -3.66699 48.334 -11 71.001s-18 43.334 -32 62.001s-30.833 35 -50.5 49s-41.5 25 -65.5 33c-101.333 -70 -152 -151.667 -152 -245z
M290.999 632.997c0 -39.333 -9.66699 -73.667 -29 -103c-22 7.33301 -42.167 17.166 -60.5 29.499s-34 26.5 -47 42.5s-23 33.333 -30 52s-10.5 37.667 -10.5 57c0 40.667 10.333 78.334 31 113.001c97.333 -33.333 146 -97 146 -191zM621.999 164.996
c0 -39.333 -10.332 -73.666 -30.999 -102.999c-42.667 14 -77.334 38.333 -104.001 73c-27.333 35.333 -41 72 -41 110c0 41.333 10 78.666 30 111.999c97.333 -33.333 146 -97.333 146 -192zM734 196.996c0 -98.667 53.6689 -170.002 161.002 -214.002
c44.667 22.667 80.667 56.667 108 102c28 44.667 42 92 42 142c0 24.667 -3.83301 48.334 -11.5 71.001s-18.334 43.334 -32.001 62.001s-30.334 35 -50.001 49s-41.5 25 -65.5 33c-101.333 -70 -152 -151.667 -152 -245zM979.002 164.994
c0 -39.333 -10.332 -73.666 -30.999 -102.999c-42.667 14 -77.334 38.333 -104.001 73c-27.333 35.333 -41 72 -41 110c0 41.333 9.66699 78.666 29 111.999c98 -33.333 147 -97.333 147 -192z" />
    <glyph glyph-name="guilsinglleft" unicode="&#x2039;" horiz-adv-x="379" 
d="M245 82l82 81l-177 247l181 219l-40 36l-243 -306z" />
    <glyph glyph-name="guilsinglright" unicode="&#x203a;" horiz-adv-x="379" 
d="M162 665l-81 -81l175 -247l-180 -219l38 -36l245 306z" />
    <glyph glyph-name="trademark" unicode="&#x2122;" horiz-adv-x="825" 
d="M42 585c4.66699 32 21.333 48 50 48h36v-239c0 -26.667 -14.667 -40 -44 -40v-22h175v22c-28.667 0 -43 13.333 -43 40v239h37c26.667 0 42.667 -16 48 -48h22v70h-303v-70h22zM352.999 655v-22c10.667 0 22.667 -4.66699 36 -14s20 -18.333 20 -27v-198
c0 -24.667 -13 -38 -39 -40v-22h108v22c-26.667 0 -40 13.333 -40 40v159l105 -220h13l115 220h2v-159c0 -26.667 -14.333 -40 -43 -40v-22h173v22c-28 0 -42 13.333 -42 40v206c0 22 14.333 33 43 33v22h-107l-113 -216l-105 216h-126z" />
    <glyph glyph-name="apple" unicode="&#xe000;" horiz-adv-x="1448" 
d="M1426 -37v837h-1403v-837h1403zM1401 561c0 -9.33301 -1.99902 -18.167 -5.99902 -26.5s-9.33301 -15.833 -16 -22.5s-14.334 -11.834 -23.001 -15.501s-18 -5.5 -28 -5.5h-146c-23.333 0 -35 -15 -35 -45v-302c0 -21.333 6.33301 -35.333 19 -42v-56
c-48 10.667 -72 39.334 -72 86.001v321c0 65.333 38.333 98 115 98c10.667 0 26.667 -1 48 -3c22 -2 38.333 -3 49 -3c27.333 0 41 7 41 21c0 12.667 -13.667 19 -41 19c-5.33301 0 -12.166 -0.166992 -20.499 -0.5s-17.833 -0.833008 -28.5 -1.5
s-19.834 -1.16699 -27.501 -1.5s-14.167 -0.5 -19.5 -0.5c-77.333 0 -116 29.333 -116 88v131h57v-131c0 -23.333 12.333 -35 37 -35h149c18 0 33.167 -6.83301 45.5 -20.5s18.5 -31.167 18.5 -52.5zM1014 135.999c0 -26.667 -7.83203 -48 -23.499 -64
s-36.834 -24 -63.501 -24h-281c-20 0 -36.667 6.66699 -50 20s-20 30 -20 50c0 21.333 6 38.833 18 52.5s27.667 20.5 47 20.5h279v-53h-270c-13.333 0 -20 -6 -20 -18c0 -14 7.33301 -21 22 -21h250c40.667 0 61 15 61 45v76c0 30 -15 45 -45 45h-250
c-28 0 -50.333 8.33301 -67 25s-25 39 -25 67v89c0 30 8.83301 54.5 26.5 73.5s41.5 28.5 71.5 28.5h246c50 0 80 -25.333 90 -76h-50c-14 14 -28.667 21 -44 21h-244c-27.333 0 -41 -14.667 -41 -44v-93c0 -26 13.667 -39 41 -39h246c30 0 53.5 -7.66699 70.5 -23
s25.5 -37 25.5 -65v-93zM507.002 799.999v-682.997c0 -20.667 -7.33301 -38.334 -22 -53.001s-32 -22 -52 -22c-21.333 0 -38.666 7.33301 -51.999 22s-20 33 -20 55c0 42 -0.166992 76.833 -0.5 104.5s-0.833008 49.167 -1.5 64.5c-0.666992 6 -29.667 36.667 -87 92
l-96 94c-9.33301 9.33301 -18 14 -26 14c-6.66699 0 -12.334 -2 -17.001 -6c-5.33301 -18 -8 -29 -8 -33v-309c0 -28 12 -42 36 -42h80c3.33301 1.33301 7.16602 3.66602 11.499 6.99902s8.83301 7.66602 13.5 12.999h53c-9.33301 -48 -34.666 -72 -75.999 -72h-82
c-58.667 0 -88 31.667 -88 95v331c0 20.667 7.83301 37.167 23.5 49.5s35.167 18.5 58.5 18.5c21.333 0 38.333 -6.33301 51 -19l179 -177c20.667 -20 31 -44.667 31 -74v-152c0 -13.333 6.33301 -20 19 -20c4 0 8 2.33301 12 7s6 9 6 13l-2 682h56z" />
    <glyph glyph-name="longs" unicode="&#xe001;" horiz-adv-x="388" 
d="M256 140v707l119 -30l22 110l-137 35c-32 -27.333 -60.167 -50.166 -84.5 -68.499s-44.833 -32.833 -61.5 -43.5v-177h-53v-75h53v-371c0 -17.333 -0.5 -31.833 -1.5 -43.5s-2.16699 -20.834 -3.5 -27.501c-4.66699 -23.333 -18 -41.333 -40 -54v-15
c60.667 -20 117.667 -54.667 171 -104l149 119l-18 18l-44 -33l-36 27z" />
  </font>
</defs>
</svg>
